<svg id="svg" version="1.1" xmlns="http://www.w3.org/2000/svg" xmlns:xlink="http://www.w3.org/1999/xlink" width="400" height="483.96946564885496" viewBox="0, 0, 400,483.96946564885496"><g id="svgg"><path id="path0" d="M196.878 16.082 C 196.615 16.345,196.400 16.794,196.400 17.080 C 196.400 17.366,196.158 17.600,195.862 17.600 C 195.566 17.600,194.981 18.002,194.562 18.493 C 193.808 19.377,193.808 19.380,194.600 18.797 C 195.040 18.473,194.641 18.987,193.714 19.938 C 192.206 21.484,191.576 21.849,190.200 21.976 C 189.937 22.000,189.939 22.113,190.205 22.306 C 190.455 22.487,190.263 22.940,189.705 23.486 C 189.207 23.973,188.800 24.203,188.800 23.998 C 188.800 23.793,188.515 23.735,188.166 23.868 C 187.818 24.002,187.701 24.221,187.905 24.356 C 188.110 24.490,187.720 25.046,187.039 25.592 C 186.227 26.242,186.007 26.323,186.400 25.827 C 186.964 25.115,186.947 25.097,186.122 25.537 C 185.640 25.794,185.117 26.211,184.960 26.464 C 184.771 26.771,184.863 26.817,185.238 26.603 C 185.664 26.360,185.692 26.400,185.352 26.769 C 184.952 27.204,184.185 27.467,183.000 27.576 C 182.780 27.596,182.864 27.779,183.186 27.983 C 183.657 28.281,183.559 28.436,182.686 28.767 C 182.089 28.994,181.597 29.410,181.594 29.690 C 181.589 30.072,181.500 30.061,181.238 29.647 C 180.962 29.212,180.744 29.313,180.214 30.123 C 179.843 30.689,179.307 31.062,179.022 30.953 C 178.727 30.840,178.407 31.130,178.276 31.629 C 178.127 32.199,177.839 32.424,177.450 32.274 C 177.121 32.148,176.792 32.225,176.719 32.444 C 176.645 32.664,176.279 32.889,175.904 32.944 C 175.530 32.999,175.083 33.198,174.912 33.386 C 174.740 33.574,174.825 33.599,175.100 33.441 C 175.375 33.282,175.600 33.310,175.600 33.502 C 175.600 33.694,174.970 34.098,174.200 34.400 C 173.430 34.702,172.800 35.106,172.800 35.298 C 172.800 35.490,172.620 35.536,172.400 35.400 C 172.180 35.264,172.000 35.315,172.000 35.512 C 172.000 36.000,170.031 36.867,169.570 36.581 C 169.367 36.456,169.200 36.644,169.200 37.000 C 169.200 37.356,169.020 37.536,168.800 37.400 C 168.580 37.264,168.400 37.322,168.400 37.528 C 168.400 37.734,167.815 38.142,167.100 38.435 C 166.385 38.727,165.552 39.209,165.248 39.506 C 164.945 39.803,164.450 39.951,164.148 39.836 C 163.847 39.720,163.600 39.810,163.600 40.036 C 163.600 40.262,163.420 40.336,163.200 40.200 C 162.980 40.064,162.800 40.255,162.800 40.625 C 162.800 41.178,162.693 41.209,162.200 40.800 C 161.711 40.394,161.600 40.415,161.600 40.912 C 161.600 41.554,159.360 42.546,158.754 42.172 C 158.559 42.051,158.400 42.253,158.400 42.619 C 158.400 43.057,158.187 43.204,157.779 43.047 C 157.423 42.911,157.263 42.978,157.403 43.205 C 157.626 43.566,156.985 43.755,155.700 43.707 C 155.425 43.697,155.200 43.868,155.200 44.087 C 155.200 44.306,154.930 44.382,154.600 44.255 C 154.255 44.123,154.000 44.248,154.000 44.549 C 154.000 45.045,151.537 46.019,149.800 46.209 C 149.360 46.257,149.045 46.500,149.100 46.748 C 149.189 47.151,148.359 47.362,146.900 47.307 C 146.625 47.297,146.400 47.449,146.400 47.644 C 146.400 47.840,146.040 48.000,145.600 48.000 C 145.160 48.000,144.800 48.202,144.800 48.449 C 144.800 48.759,144.615 48.744,144.200 48.400 C 143.652 47.945,143.429 48.117,143.553 48.900 C 143.579 49.065,143.420 49.200,143.200 49.200 C 142.980 49.200,142.800 48.986,142.800 48.724 C 142.800 48.461,142.557 48.579,142.261 48.985 C 141.964 49.390,141.514 49.594,141.261 49.438 C 141.007 49.281,140.800 49.363,140.800 49.619 C 140.800 49.876,140.523 49.979,140.185 49.850 C 139.835 49.715,139.472 49.869,139.342 50.207 C 139.217 50.533,138.853 50.800,138.534 50.800 C 138.214 50.800,138.064 50.620,138.200 50.400 C 138.336 50.180,138.257 50.000,138.024 50.000 C 137.791 50.000,137.600 50.291,137.600 50.647 C 137.600 51.096,137.356 51.230,136.800 51.084 C 136.360 50.969,136.000 51.015,136.000 51.186 C 136.000 51.358,135.240 51.619,134.312 51.768 C 133.384 51.916,132.514 52.215,132.380 52.432 C 132.246 52.649,131.521 52.889,130.768 52.967 C 130.016 53.044,129.077 53.241,128.683 53.403 C 128.288 53.566,127.853 53.586,127.715 53.449 C 127.578 53.311,127.109 53.514,126.674 53.899 C 126.123 54.387,125.832 54.455,125.716 54.122 C 125.624 53.860,125.291 53.744,124.976 53.864 C 124.662 53.985,124.504 54.245,124.626 54.442 C 124.748 54.639,124.556 54.800,124.200 54.800 C 123.844 54.800,123.664 54.620,123.800 54.400 C 124.167 53.806,123.556 53.916,122.828 54.575 C 122.479 54.891,121.208 55.241,120.004 55.352 C 118.800 55.464,117.751 55.746,117.674 55.978 C 117.597 56.210,117.178 56.400,116.743 56.400 C 116.213 56.400,116.054 56.235,116.261 55.900 C 116.430 55.625,116.089 55.714,115.503 56.097 C 114.917 56.480,114.024 56.796,113.519 56.799 C 111.743 56.809,109.189 57.160,108.703 57.460 C 108.433 57.627,107.624 57.713,106.906 57.651 C 106.144 57.586,105.600 57.725,105.600 57.985 C 105.600 58.248,104.898 58.423,103.900 58.410 C 102.965 58.397,101.120 58.491,99.800 58.617 C 98.480 58.743,95.422 58.940,93.004 59.054 C 90.581 59.169,88.491 59.452,88.347 59.685 C 88.176 59.962,86.932 60.018,84.743 59.848 C 80.943 59.553,74.192 59.558,69.244 59.860 C 67.239 59.982,65.789 59.906,65.643 59.670 C 65.509 59.454,63.240 59.179,60.600 59.061 C 51.996 58.675,47.813 58.344,47.605 58.034 C 47.244 57.498,45.736 57.292,45.036 57.684 C 44.593 57.932,44.177 57.913,43.835 57.629 C 43.547 57.390,41.916 57.096,40.209 56.976 C 38.416 56.850,36.705 56.494,36.153 56.133 C 35.559 55.743,35.200 55.676,35.200 55.954 C 35.200 56.199,34.829 56.400,34.376 56.400 C 33.923 56.400,33.653 56.238,33.775 56.040 C 33.897 55.842,33.143 55.579,32.099 55.455 C 31.054 55.330,29.705 55.164,29.100 55.084 C 28.495 55.005,27.415 54.906,26.700 54.864 C 25.813 54.812,25.571 54.680,25.937 54.448 C 26.329 54.199,26.194 54.054,25.437 53.909 C 24.867 53.800,24.400 53.866,24.400 54.055 C 24.400 54.556,23.293 54.479,23.122 53.966 C 23.043 53.728,22.443 53.483,21.789 53.423 C 21.135 53.363,20.330 53.196,20.000 53.053 C 19.523 52.845,19.375 53.178,19.278 54.681 C 19.211 55.720,18.941 56.837,18.678 57.162 C 18.303 57.626,18.308 57.689,18.700 57.453 C 19.076 57.227,19.200 57.704,19.200 59.376 C 19.200 60.599,19.054 61.600,18.875 61.600 C 18.696 61.600,18.506 62.443,18.452 63.474 C 18.399 64.505,18.265 65.495,18.154 65.674 C 18.043 65.853,18.143 66.000,18.376 66.000 C 18.635 66.000,18.800 67.103,18.800 68.824 C 18.800 70.604,18.652 71.556,18.400 71.400 C 18.148 71.244,18.002 72.161,18.005 73.876 C 18.007 75.374,17.922 79.300,17.815 82.600 C 17.235 100.505,17.705 157.667,18.435 157.933 C 18.870 158.092,18.933 163.200,18.500 163.199 C 18.335 163.199,18.262 164.189,18.337 165.400 C 18.412 166.611,18.637 167.500,18.837 167.377 C 19.042 167.250,19.223 168.683,19.253 170.676 C 19.283 172.614,19.375 175.460,19.459 177.000 C 19.543 178.540,19.710 181.690,19.830 184.000 C 19.949 186.310,20.217 188.260,20.424 188.333 C 20.631 188.407,20.800 189.182,20.800 190.057 C 20.800 191.015,20.641 191.549,20.400 191.400 C 20.180 191.264,20.000 191.328,20.000 191.543 C 20.000 191.758,20.196 191.999,20.435 192.078 C 20.674 192.158,20.945 193.388,21.038 194.812 C 21.551 202.677,21.673 203.811,22.020 203.933 C 22.482 204.095,22.528 205.874,22.077 206.152 C 21.900 206.262,21.832 207.012,21.926 207.820 C 22.045 208.838,22.204 209.122,22.443 208.744 C 22.673 208.382,22.780 208.668,22.766 209.600 C 22.748 210.744,22.681 210.854,22.400 210.200 C 22.211 209.760,22.044 209.597,22.028 209.839 C 22.013 210.080,22.277 210.831,22.615 211.509 C 22.953 212.186,23.222 213.339,23.214 214.070 C 23.181 216.851,23.597 220.199,23.990 220.330 C 24.496 220.499,24.539 222.400,24.037 222.400 C 23.838 222.400,23.769 222.760,23.884 223.200 C 23.999 223.640,24.258 224.000,24.459 224.000 C 24.660 224.000,24.806 224.585,24.783 225.300 C 24.759 226.015,24.938 227.853,25.180 229.385 C 25.423 230.916,25.534 232.396,25.427 232.673 C 25.321 232.950,25.496 233.439,25.817 233.760 C 26.531 234.474,26.582 235.598,25.900 235.606 C 25.539 235.611,25.554 235.710,25.953 235.962 C 26.257 236.155,26.579 237.007,26.669 237.856 C 27.009 241.090,27.308 242.617,27.696 243.100 C 27.969 243.439,27.949 243.780,27.635 244.158 C 27.279 244.587,27.310 244.853,27.770 245.313 C 28.098 245.641,28.446 246.875,28.542 248.055 C 28.638 249.235,28.845 250.515,29.001 250.900 C 29.158 251.285,29.179 251.877,29.050 252.215 C 28.915 252.565,29.069 252.928,29.407 253.058 C 30.103 253.325,30.214 254.800,29.538 254.800 C 29.263 254.800,29.348 255.100,29.746 255.540 C 30.114 255.947,30.482 257.127,30.563 258.162 C 30.645 259.198,30.822 260.155,30.956 260.289 C 31.090 260.423,31.200 261.043,31.200 261.667 C 31.200 262.290,31.378 262.800,31.596 262.800 C 31.813 262.800,31.994 263.205,31.997 263.700 C 32.009 265.257,32.251 266.784,32.530 267.064 C 32.679 267.212,32.800 267.743,32.800 268.243 C 32.800 268.743,32.989 269.269,33.219 269.412 C 33.509 269.591,33.502 269.836,33.197 270.203 C 32.869 270.599,32.898 270.821,33.312 271.068 C 33.905 271.422,34.941 275.849,34.570 276.448 C 34.449 276.645,34.644 276.919,35.004 277.057 C 35.471 277.236,35.589 277.591,35.414 278.288 C 35.273 278.849,35.326 279.169,35.539 279.038 C 35.876 278.830,36.545 281.537,36.599 283.321 C 36.611 283.718,36.852 284.185,37.135 284.360 C 37.417 284.534,37.682 285.334,37.724 286.137 C 37.766 286.940,37.956 287.597,38.147 287.598 C 38.337 287.599,38.396 287.971,38.278 288.424 C 38.145 288.934,38.284 289.334,38.641 289.471 C 39.086 289.642,39.114 289.822,38.761 290.247 C 38.351 290.741,38.519 290.953,39.249 290.864 C 39.386 290.848,39.725 291.906,40.004 293.217 C 40.282 294.528,40.660 295.600,40.845 295.600 C 41.029 295.600,41.079 296.105,40.956 296.722 C 40.806 297.471,40.939 298.017,41.355 298.363 C 41.698 298.647,42.094 299.492,42.234 300.240 C 42.374 300.988,42.649 301.600,42.845 301.600 C 43.040 301.600,43.200 301.791,43.200 302.024 C 43.200 302.257,43.020 302.336,42.800 302.200 C 42.580 302.064,42.400 302.143,42.400 302.376 C 42.400 302.609,42.650 302.800,42.955 302.800 C 43.464 302.800,44.221 305.062,44.127 306.300 C 44.106 306.575,44.339 306.800,44.644 306.800 C 45.138 306.800,45.364 307.583,45.307 309.100 C 45.297 309.375,45.449 309.600,45.644 309.600 C 45.840 309.600,46.000 309.870,46.000 310.200 C 46.000 310.530,46.202 310.800,46.449 310.800 C 46.769 310.800,46.776 310.947,46.472 311.313 C 46.202 311.639,46.182 312.042,46.417 312.413 C 46.741 312.926,46.792 312.924,46.822 312.400 C 46.841 312.070,47.111 312.496,47.423 313.346 C 47.735 314.197,47.892 315.052,47.771 315.246 C 47.651 315.441,47.819 315.600,48.145 315.600 C 48.670 315.600,49.483 317.685,49.276 318.500 C 49.234 318.665,49.399 318.800,49.643 318.800 C 49.886 318.800,49.982 319.070,49.855 319.400 C 49.721 319.749,49.849 320.000,50.161 320.000 C 50.455 320.000,50.923 320.810,51.200 321.800 C 51.477 322.790,51.844 323.600,52.015 323.600 C 52.185 323.600,52.236 324.005,52.128 324.500 C 51.993 325.116,52.046 325.238,52.297 324.887 C 52.559 324.519,52.814 324.831,53.196 325.987 C 53.488 326.874,53.850 327.600,54.000 327.600 C 54.423 327.600,55.238 329.616,54.981 330.030 C 54.856 330.233,54.954 330.400,55.200 330.400 C 55.446 330.400,55.536 330.580,55.400 330.800 C 55.264 331.020,55.478 331.203,55.876 331.206 C 56.490 331.211,56.509 331.271,56.000 331.600 C 55.487 331.931,55.502 331.989,56.100 331.994 C 56.485 331.997,56.814 332.225,56.831 332.500 C 56.916 333.895,57.234 334.660,57.979 335.264 C 58.431 335.629,58.800 336.130,58.800 336.377 C 58.800 336.623,59.070 336.929,59.400 337.055 C 59.730 337.182,60.000 337.457,60.000 337.666 C 60.000 337.876,59.775 337.938,59.500 337.805 C 59.225 337.672,59.405 337.863,59.900 338.230 C 60.395 338.597,60.800 339.146,60.800 339.449 C 60.800 339.752,60.991 340.000,61.224 340.000 C 61.457 340.000,61.548 340.161,61.426 340.358 C 61.304 340.555,61.474 340.819,61.802 340.946 C 62.131 341.072,62.400 341.442,62.400 341.768 C 62.400 342.094,62.715 342.544,63.100 342.768 C 63.485 342.992,63.581 343.181,63.313 343.188 C 63.044 343.195,62.927 343.464,63.050 343.787 C 63.174 344.110,63.484 344.335,63.738 344.287 C 63.992 344.239,64.156 344.422,64.103 344.692 C 64.049 344.963,64.463 345.485,65.023 345.852 C 65.582 346.218,65.955 346.739,65.852 347.009 C 65.748 347.279,66.099 347.699,66.632 347.942 C 67.164 348.184,67.597 348.612,67.594 348.891 C 67.590 349.242,67.467 349.213,67.200 348.800 C 66.863 348.278,66.811 348.285,66.806 348.853 C 66.803 349.213,67.197 349.611,67.683 349.737 C 68.168 349.864,68.444 350.089,68.297 350.237 C 68.149 350.384,68.216 350.857,68.446 351.287 C 68.677 351.717,68.969 351.965,69.096 351.838 C 69.486 351.447,70.400 352.453,70.400 353.273 C 70.400 353.699,70.560 353.949,70.755 353.828 C 71.220 353.541,71.985 354.485,72.203 355.613 C 72.406 356.670,72.800 357.174,72.800 356.378 C 72.800 355.701,74.040 357.389,74.164 358.234 C 74.211 358.557,74.346 358.772,74.464 358.711 C 74.895 358.487,76.000 359.720,76.000 360.425 C 76.000 360.825,76.208 361.281,76.462 361.438 C 76.748 361.615,76.815 361.548,76.638 361.262 C 76.144 360.462,76.561 360.755,77.801 362.079 C 78.461 362.783,78.752 363.208,78.448 363.024 C 78.084 362.803,77.951 362.854,78.058 363.174 C 78.147 363.441,78.390 363.692,78.597 363.730 C 79.143 363.831,80.801 365.429,80.794 365.846 C 80.791 366.041,80.613 365.930,80.400 365.600 C 80.166 365.238,80.010 365.189,80.006 365.477 C 80.003 365.740,80.547 366.278,81.216 366.673 C 81.886 367.069,82.535 367.799,82.660 368.296 C 82.785 368.793,83.077 369.200,83.310 369.200 C 83.543 369.200,83.614 369.319,83.469 369.464 C 83.324 369.610,83.601 369.926,84.085 370.167 C 84.569 370.409,85.071 371.055,85.201 371.603 C 85.330 372.151,85.626 372.600,85.858 372.600 C 86.553 372.600,88.329 374.520,88.125 375.052 C 88.020 375.324,88.468 375.821,89.119 376.158 C 90.360 376.800,90.989 377.763,91.150 379.267 C 91.177 379.523,91.318 379.615,91.463 379.470 C 91.856 379.078,92.832 380.024,92.534 380.507 C 92.378 380.759,92.472 380.803,92.770 380.618 C 93.224 380.338,94.590 381.738,94.597 382.492 C 94.599 382.653,95.008 383.070,95.507 383.420 C 96.005 383.769,96.307 384.227,96.177 384.437 C 96.047 384.648,96.179 384.770,96.470 384.710 C 96.762 384.649,96.955 384.825,96.900 385.100 C 96.845 385.375,97.007 385.555,97.260 385.500 C 97.513 385.445,98.084 386.074,98.529 386.898 C 98.974 387.721,99.416 388.317,99.511 388.222 C 99.821 387.912,104.063 392.375,103.825 392.760 C 103.698 392.966,104.137 393.554,104.802 394.067 C 106.819 395.624,112.800 401.628,112.800 402.094 C 112.800 402.691,122.842 412.800,123.435 412.800 C 123.696 412.800,125.594 414.456,127.654 416.481 C 129.715 418.506,131.175 420.025,130.900 419.857 C 130.623 419.689,130.400 419.742,130.400 419.976 C 130.400 420.209,130.605 420.400,130.856 420.400 C 131.107 420.400,131.512 420.660,131.756 420.978 C 132.000 421.296,132.450 421.611,132.756 421.678 C 133.589 421.861,137.214 425.254,136.980 425.632 C 136.798 425.928,137.541 426.491,138.600 426.861 C 138.820 426.937,138.951 427.148,138.890 427.330 C 138.830 427.511,138.938 427.562,139.132 427.442 C 139.582 427.164,141.299 428.968,140.933 429.334 C 140.782 429.485,141.410 429.904,142.329 430.265 C 143.248 430.626,144.000 431.085,144.000 431.284 C 144.000 431.484,143.775 431.518,143.500 431.359 C 143.210 431.192,143.140 431.224,143.333 431.436 C 143.517 431.636,143.787 431.816,143.933 431.835 C 144.705 431.935,145.568 432.528,145.382 432.830 C 145.264 433.020,145.788 433.435,146.545 433.751 C 147.303 434.068,148.042 434.703,148.188 435.163 C 148.334 435.624,148.622 436.000,148.827 436.000 C 149.632 436.000,149.824 436.079,150.491 436.682 C 150.870 437.026,151.068 437.491,150.929 437.715 C 150.784 437.949,150.874 438.002,151.138 437.838 C 151.392 437.681,151.600 437.743,151.600 437.976 C 151.600 438.209,151.915 438.401,152.300 438.403 C 152.685 438.404,153.434 439.043,153.965 439.822 C 154.524 440.643,155.040 441.059,155.193 440.811 C 155.348 440.560,155.677 440.797,155.994 441.388 C 156.289 441.940,157.328 442.778,158.302 443.250 C 159.584 443.870,159.925 444.201,159.537 444.447 C 159.152 444.692,159.261 444.789,159.924 444.794 C 160.451 444.797,160.739 444.976,160.594 445.210 C 160.455 445.435,160.489 445.594,160.670 445.563 C 161.522 445.415,162.021 445.643,161.762 446.062 C 161.588 446.343,161.652 446.415,161.924 446.247 C 162.349 445.984,162.877 446.335,164.910 448.230 C 165.399 448.686,166.115 449.176,166.500 449.317 C 166.885 449.459,167.200 449.861,167.200 450.211 C 167.200 450.561,167.388 450.731,167.618 450.589 C 168.171 450.247,169.263 451.175,168.933 451.708 C 168.771 451.971,168.991 452.043,169.524 451.904 C 170.129 451.746,170.442 451.901,170.615 452.447 C 170.748 452.867,171.020 453.111,171.218 452.989 C 171.416 452.866,171.893 453.134,172.278 453.583 C 172.663 454.032,173.187 454.400,173.443 454.400 C 173.699 454.400,174.207 454.856,174.572 455.413 C 174.937 455.970,175.407 456.319,175.618 456.189 C 175.828 456.059,176.000 456.143,176.000 456.376 C 176.000 456.609,176.135 456.779,176.300 456.753 C 177.248 456.603,177.783 456.823,177.266 457.150 C 176.837 457.423,176.856 457.536,177.366 457.732 C 177.715 457.865,178.000 457.793,178.000 457.572 C 178.000 457.350,178.251 457.401,178.558 457.684 C 178.865 457.968,179.027 458.347,178.918 458.527 C 178.809 458.706,179.053 458.796,179.460 458.727 C 179.867 458.657,180.161 458.808,180.113 459.062 C 180.065 459.316,180.290 459.626,180.613 459.750 C 180.936 459.873,181.205 459.756,181.212 459.487 C 181.219 459.219,181.408 459.315,181.632 459.700 C 181.856 460.085,182.306 460.400,182.632 460.400 C 182.958 460.400,183.329 460.670,183.455 461.000 C 183.582 461.330,183.947 461.600,184.266 461.600 C 184.604 461.600,184.727 461.794,184.562 462.062 C 184.374 462.365,184.453 462.414,184.793 462.204 C 185.124 462.000,185.591 462.230,186.090 462.842 C 186.519 463.369,186.753 463.575,186.611 463.300 C 186.469 463.025,186.543 462.800,186.776 462.800 C 187.009 462.800,187.200 462.958,187.200 463.151 C 187.200 463.345,187.734 463.724,188.386 463.994 C 189.038 464.264,189.533 464.683,189.486 464.924 C 189.439 465.165,189.670 465.384,190.000 465.410 C 191.240 465.509,193.200 466.499,193.200 467.027 C 193.200 467.374,193.444 467.481,193.866 467.319 C 194.330 467.141,194.439 467.214,194.225 467.559 C 194.034 467.869,194.121 468.013,194.460 467.944 C 195.555 467.721,197.200 468.419,197.206 469.108 C 197.211 469.701,197.268 469.714,197.600 469.200 C 198.286 468.139,198.113 449.729,197.415 449.461 C 197.093 449.337,195.563 448.418,194.015 447.418 C 192.467 446.418,189.895 444.763,188.300 443.740 C 176.600 436.236,159.309 422.525,144.013 408.625 C 137.998 403.159,116.904 381.654,110.833 374.800 C 107.228 370.730,103.721 366.770,103.040 366.001 C 98.828 361.247,87.498 347.295,80.952 338.800 C 73.270 328.830,65.828 314.957,60.031 299.800 C 56.787 291.317,57.012 291.987,52.168 276.295 C 50.053 269.440,44.503 244.676,43.407 237.200 C 43.262 236.210,42.900 234.140,42.602 232.600 C 42.126 230.138,40.957 221.972,38.995 207.400 C 38.670 204.980,38.127 199.940,37.790 196.200 C 37.452 192.460,37.002 187.780,36.789 185.800 C 36.439 182.550,35.882 174.248,34.774 155.800 C 33.757 138.866,33.970 75.059,35.046 73.999 C 35.247 73.801,36.781 73.897,38.600 74.222 C 59.613 77.968,90.933 77.948,114.000 74.173 C 144.127 69.243,173.419 57.229,195.097 40.914 L 198.000 38.729 197.994 27.665 C 197.988 16.692,197.837 15.123,196.878 16.082 M145.300 126.412 C 144.805 126.611,144.400 126.918,144.400 127.093 C 144.400 127.268,143.680 127.723,142.800 128.104 C 141.920 128.486,141.200 128.956,141.200 129.150 C 141.200 129.344,140.645 129.733,139.966 130.014 C 139.287 130.295,138.522 130.732,138.266 130.984 C 137.498 131.740,131.454 135.841,130.700 136.118 C 130.315 136.259,130.000 136.539,130.000 136.739 C 130.000 136.939,129.460 137.327,128.800 137.600 C 128.140 137.873,127.600 138.247,127.600 138.430 C 127.600 138.613,126.925 139.076,126.100 139.460 C 125.275 139.843,124.456 140.392,124.280 140.678 C 124.104 140.965,123.733 141.200,123.456 141.200 C 123.178 141.200,122.585 141.541,122.138 141.957 C 121.691 142.374,120.802 143.000,120.162 143.349 C 116.851 145.157,116.499 146.599,118.172 151.517 C 120.248 157.621,123.877 160.950,128.362 160.861 C 129.702 160.835,130.557 161.119,131.936 162.050 C 138.612 166.555,145.589 162.839,145.939 154.592 C 146.253 147.179,140.639 143.299,134.354 146.586 C 131.796 147.923,130.733 147.712,129.400 145.600 C 127.818 143.094,128.930 138.892,131.530 137.551 C 132.119 137.248,132.838 136.775,133.129 136.500 C 134.218 135.470,138.926 135.742,141.732 136.998 C 147.624 139.635,148.406 142.011,148.818 158.517 C 149.156 172.072,149.198 172.573,150.467 178.355 C 155.026 199.132,174.930 208.584,187.622 196.000 C 190.737 192.912,194.084 187.200,192.779 187.200 C 192.571 187.200,192.400 187.350,192.400 187.534 C 192.400 188.596,185.789 192.176,182.313 192.996 C 164.911 197.099,150.223 176.930,158.590 160.420 C 164.422 148.912,179.614 148.463,179.592 159.800 C 179.586 162.692,179.258 162.990,177.477 161.723 C 172.728 158.344,168.000 161.079,168.000 167.205 C 168.000 179.308,185.287 183.432,190.613 172.600 C 191.282 171.239,191.401 170.149,191.407 165.312 C 191.415 158.726,191.565 158.435,194.957 158.413 L 196.914 158.400 196.660 155.900 C 195.962 149.041,189.418 141.717,182.058 139.559 C 179.416 138.784,179.535 137.164,182.481 133.779 L 183.562 132.537 181.881 131.769 C 176.720 129.409,168.238 131.306,160.800 136.483 L 158.600 138.015 158.000 137.114 C 155.893 133.949,150.383 128.349,147.800 126.747 C 146.450 125.910,146.525 125.920,145.300 126.412 M167.400 154.476 C 150.691 163.259,158.616 191.392,177.800 191.399 C 182.834 191.401,186.239 190.008,191.262 185.891 C 196.739 181.404,196.739 187.909,191.264 195.164 C 188.494 198.835,185.020 201.311,180.676 202.713 L 177.129 203.858 185.214 208.429 C 189.662 210.943,194.133 213.488,195.150 214.084 C 196.168 214.680,197.360 215.362,197.800 215.599 C 198.645 216.054,198.716 216.017,217.800 205.010 C 229.788 198.095,232.832 196.298,232.715 196.200 C 232.652 196.147,230.170 194.711,227.200 193.007 C 224.230 191.304,218.830 188.198,215.200 186.105 C 211.570 184.013,206.710 181.223,204.400 179.905 C 202.090 178.588,198.527 176.518,196.483 175.306 C 194.438 174.093,192.706 173.169,192.633 173.251 C 192.561 173.333,192.226 173.940,191.889 174.600 C 187.483 183.231,173.583 183.172,168.076 174.499 C 162.298 165.398,168.080 155.235,176.900 158.988 C 178.634 159.725,177.222 155.839,175.244 154.432 C 173.625 153.278,169.636 153.301,167.400 154.476 M260.400 220.091 C 256.550 222.314,250.520 225.790,247.000 227.815 C 243.480 229.840,238.936 232.457,236.903 233.631 C 234.869 234.805,233.339 235.894,233.503 236.051 C 233.666 236.208,238.570 238.987,244.400 242.227 C 256.661 249.039,258.136 250.102,259.453 253.082 C 261.556 257.837,259.607 261.911,253.675 265.162 C 252.424 265.847,250.680 266.834,249.800 267.353 C 243.134 271.290,241.032 272.392,240.745 272.105 C 240.563 271.923,240.366 267.243,240.307 261.706 L 240.200 251.638 236.920 253.519 C 230.020 257.476,228.168 258.560,227.200 259.211 C 226.650 259.580,223.950 261.193,221.200 262.795 C 218.450 264.396,214.085 266.964,211.500 268.502 L 206.800 271.296 206.800 301.256 L 206.800 331.216 208.300 330.400 C 209.125 329.951,210.632 329.092,211.649 328.492 C 212.665 327.891,215.635 326.167,218.249 324.661 C 225.458 320.505,233.258 315.995,234.600 315.205 C 235.260 314.817,238.160 313.138,241.044 311.473 C 243.929 309.808,246.899 308.088,247.644 307.651 C 248.390 307.214,251.138 305.628,253.751 304.128 C 256.365 302.628,259.273 300.950,260.214 300.400 C 261.156 299.850,263.607 298.428,265.663 297.239 C 270.370 294.517,271.011 294.146,275.370 291.614 C 295.139 280.131,302.102 262.113,294.207 242.870 C 290.780 234.516,284.607 227.310,275.600 221.148 C 272.717 219.175,267.681 215.986,267.510 216.025 C 267.449 216.039,264.250 217.868,260.400 220.091 " stroke="none" fill="#0e730d" fill-rule="evenodd"></path><path id="path1" d="M153.783 71.700 C 153.678 71.975,153.639 80.926,153.696 91.592 L 153.800 110.984 155.000 111.732 C 157.501 113.292,171.439 121.259,198.000 136.311 C 203.610 139.490,208.380 142.228,208.600 142.397 C 208.820 142.565,211.970 144.366,215.600 146.399 C 219.230 148.432,224.270 151.304,226.800 152.782 C 229.330 154.260,236.980 158.652,243.800 162.543 C 259.126 171.287,258.999 171.185,259.463 175.105 C 260.052 180.076,258.409 181.761,246.200 188.705 C 243.120 190.456,239.011 192.814,237.068 193.945 C 235.126 195.075,233.476 196.000,233.402 196.000 C 233.327 196.000,231.880 196.820,230.186 197.821 C 223.063 202.032,198.719 216.000,198.503 216.000 C 198.428 216.000,198.149 216.198,197.883 216.439 C 197.351 216.923,191.829 220.106,180.113 226.684 C 175.885 229.058,172.420 231.096,172.413 231.214 C 172.396 231.489,206.286 250.800,206.787 250.800 C 206.994 250.800,208.747 249.877,210.682 248.748 C 221.280 242.568,224.527 240.690,232.000 236.421 C 236.510 233.845,243.217 230.000,246.904 227.875 C 250.591 225.751,256.531 222.329,260.104 220.270 C 279.421 209.140,282.366 207.178,287.029 202.337 C 303.132 185.618,300.623 160.246,281.400 145.427 C 277.544 142.454,277.588 142.483,269.252 137.712 C 260.125 132.487,251.852 127.715,238.200 119.799 C 231.820 116.099,224.350 111.779,221.600 110.198 C 218.850 108.618,213.090 105.289,208.800 102.802 C 190.589 92.245,177.878 84.887,173.200 82.194 C 160.014 74.605,155.369 71.887,155.020 71.558 C 154.488 71.057,154.009 71.112,153.783 71.700 M176.434 356.034 C 170.410 357.217,163.868 362.605,160.842 368.878 C 153.032 385.068,161.457 399.915,190.999 422.022 C 198.901 427.935,198.015 427.534,199.923 426.056 C 200.736 425.427,203.650 423.237,206.400 421.190 C 234.805 400.044,243.785 383.748,235.957 367.560 C 233.097 361.647,227.246 357.106,221.000 355.952 C 213.364 354.541,203.186 357.670,199.600 362.531 C 198.382 364.181,198.148 364.338,197.800 363.736 C 194.302 357.680,185.048 354.344,176.434 356.034 M187.749 370.900 C 188.315 372.495,189.939 377.220,191.356 381.400 C 192.774 385.580,194.984 392.094,196.267 395.875 C 197.550 399.656,198.771 402.806,198.980 402.875 C 199.349 402.996,200.245 400.596,205.279 386.000 C 208.706 376.063,208.708 376.062,212.384 383.261 C 213.771 385.977,215.082 388.421,215.296 388.692 C 215.577 389.048,218.036 389.214,224.142 389.292 C 232.297 389.396,232.600 389.429,232.600 390.200 C 232.600 391.256,214.897 391.681,214.038 390.646 C 213.445 389.931,210.038 383.643,209.733 382.700 C 209.204 381.066,209.345 380.716,201.742 402.491 C 199.932 407.672,199.160 408.920,198.296 408.056 C 197.972 407.732,192.833 392.911,187.904 378.085 C 187.005 375.382,186.136 373.312,185.973 373.485 C 185.696 373.778,183.993 379.753,183.146 383.400 C 182.941 384.280,182.396 386.152,181.934 387.561 L 181.094 390.122 172.854 389.848 C 164.523 389.571,163.681 389.408,164.158 388.165 C 164.400 387.533,165.050 387.499,171.980 387.747 L 179.538 388.019 180.222 385.709 C 180.598 384.439,181.242 382.185,181.653 380.700 C 182.064 379.215,182.736 376.785,183.147 375.300 C 185.585 366.488,186.031 366.062,187.749 370.900 " stroke="none" fill="#e20404" fill-rule="evenodd"></path><path id="path2" d="M198.022 27.300 L 198.044 39.000 199.922 40.297 C 227.137 59.098,249.152 68.379,279.800 73.972 C 302.485 78.113,339.844 78.205,359.859 74.170 L 361.117 73.917 361.355 76.058 C 361.890 80.888,362.097 131.911,361.626 143.000 C 359.724 187.791,355.888 223.585,350.204 249.600 C 349.891 251.030,349.522 252.830,349.384 253.600 C 347.120 266.204,339.478 291.939,334.418 304.000 C 333.726 305.650,332.811 307.900,332.386 309.000 C 329.045 317.637,320.994 331.428,313.469 341.400 C 288.444 374.566,257.944 406.308,230.000 428.268 C 218.563 437.255,200.376 449.600,198.573 449.600 C 198.129 449.600,198.006 451.475,197.913 459.600 C 197.810 468.748,197.857 469.601,198.473 469.600 C 199.138 469.600,204.013 467.245,204.401 466.736 C 204.512 466.591,205.367 466.167,206.301 465.793 C 207.236 465.419,208.000 464.970,208.000 464.796 C 208.000 464.621,208.495 464.306,209.100 464.095 C 209.706 463.884,210.921 463.233,211.800 462.648 C 213.957 461.215,214.288 461.001,216.600 459.550 C 217.700 458.859,219.050 457.986,219.600 457.609 C 220.150 457.233,222.040 455.946,223.800 454.750 C 227.085 452.517,231.580 449.329,233.000 448.225 C 233.440 447.883,234.700 446.928,235.800 446.102 C 236.900 445.276,237.944 444.375,238.120 444.100 C 238.296 443.825,238.668 443.600,238.948 443.600 C 239.227 443.600,239.832 443.195,240.292 442.700 C 240.751 442.205,241.993 441.170,243.051 440.400 C 244.109 439.630,245.284 438.730,245.663 438.400 C 246.041 438.070,247.007 437.260,247.809 436.600 C 249.132 435.511,250.252 434.537,253.776 431.410 C 254.423 430.837,255.575 429.880,256.337 429.284 C 257.099 428.688,258.616 427.366,259.708 426.347 C 260.800 425.328,262.978 423.310,264.547 421.864 C 269.132 417.638,287.093 399.707,290.800 395.655 C 292.670 393.611,295.010 391.060,296.000 389.985 C 296.990 388.911,298.228 387.530,298.751 386.916 C 299.275 386.302,300.324 385.080,301.083 384.200 C 301.842 383.320,303.124 381.817,303.932 380.861 C 304.739 379.904,305.779 378.734,306.243 378.261 C 306.706 377.787,308.556 375.600,310.352 373.400 C 314.245 368.632,314.918 367.816,316.412 366.054 C 319.034 362.961,326.800 352.857,326.800 352.538 C 326.800 352.348,327.160 351.968,327.600 351.693 C 328.040 351.418,328.400 350.944,328.400 350.639 C 328.400 350.335,328.673 349.981,329.006 349.853 C 329.339 349.725,329.785 349.166,329.996 348.610 C 330.207 348.055,330.544 347.600,330.743 347.600 C 330.943 347.600,331.212 347.285,331.342 346.900 C 331.676 345.904,332.515 344.655,333.100 344.280 C 333.375 344.104,333.600 343.788,333.600 343.577 C 333.600 343.366,334.140 342.448,334.800 341.537 C 335.460 340.625,336.000 339.637,336.000 339.340 C 336.000 339.043,336.144 338.800,336.320 338.800 C 336.496 338.800,337.042 338.035,337.534 337.100 C 338.806 334.677,339.763 333.032,340.034 332.800 C 340.162 332.690,341.057 330.980,342.022 329.000 C 342.987 327.020,343.917 325.340,344.088 325.267 C 344.260 325.193,344.400 324.969,344.400 324.768 C 344.400 324.429,345.473 321.974,347.802 316.984 C 348.319 315.875,348.873 314.435,349.033 313.784 C 349.193 313.133,349.480 312.497,349.671 312.370 C 349.863 312.244,350.321 311.074,350.690 309.770 C 351.058 308.467,351.577 307.179,351.843 306.908 C 352.109 306.637,352.449 305.692,352.599 304.808 C 352.748 303.924,353.015 303.200,353.191 303.200 C 353.367 303.200,353.835 301.985,354.231 300.500 C 354.627 299.015,355.063 297.710,355.200 297.600 C 355.337 297.490,355.782 296.140,356.188 294.600 C 356.595 293.060,357.049 291.710,357.196 291.600 C 357.344 291.490,357.700 290.275,357.987 288.900 C 358.274 287.525,358.624 286.400,358.765 286.400 C 358.905 286.400,359.361 284.825,359.778 282.900 C 360.196 280.975,360.653 279.310,360.795 279.200 C 360.937 279.090,361.382 277.380,361.784 275.400 C 362.186 273.420,362.645 271.620,362.805 271.400 C 362.964 271.180,363.322 269.740,363.600 268.200 C 363.878 266.660,364.238 265.220,364.399 265.000 C 364.561 264.780,364.998 262.800,365.371 260.600 C 365.744 258.400,366.209 256.240,366.404 255.800 C 366.600 255.360,367.055 253.020,367.416 250.600 C 367.776 248.180,368.227 245.840,368.418 245.400 C 368.798 244.526,369.555 239.984,370.918 230.400 C 371.403 226.990,371.912 224.020,372.049 223.800 C 372.186 223.580,372.609 220.070,372.989 216.000 C 373.369 211.930,373.830 208.240,374.013 207.800 C 374.197 207.360,374.629 203.850,374.974 200.000 C 375.319 196.150,375.769 191.470,375.974 189.600 C 376.178 187.730,376.554 181.970,376.809 176.800 C 377.064 171.630,377.426 167.040,377.613 166.600 C 379.186 162.898,379.134 61.093,377.558 59.420 C 377.361 59.211,377.200 57.726,377.200 56.120 C 377.200 53.278,377.174 53.200,376.207 53.200 C 374.777 53.200,369.436 54.126,369.200 54.415 C 369.090 54.549,366.930 54.956,364.400 55.319 C 361.870 55.682,359.350 56.096,358.800 56.239 C 358.250 56.382,355.280 56.781,352.200 57.124 C 349.120 57.468,346.510 57.872,346.400 58.022 C 345.256 59.580,294.347 59.582,293.200 58.024 C 293.090 57.874,290.750 57.460,288.000 57.103 C 281.992 56.322,273.078 54.726,272.800 54.381 C 272.690 54.245,270.980 53.815,269.000 53.427 C 267.020 53.038,265.310 52.591,265.200 52.434 C 265.090 52.276,263.566 51.836,261.813 51.457 C 260.061 51.077,258.531 50.616,258.413 50.432 C 258.296 50.247,257.165 49.866,255.900 49.585 C 254.635 49.303,253.600 48.945,253.600 48.789 C 253.600 48.633,252.564 48.215,251.298 47.859 C 250.032 47.504,248.284 46.850,247.413 46.407 C 246.543 45.963,245.582 45.600,245.277 45.600 C 244.973 45.600,244.246 45.343,243.662 45.030 C 241.473 43.855,237.361 42.040,236.300 41.781 C 235.695 41.634,235.200 41.377,235.200 41.211 C 235.200 41.045,234.345 40.586,233.300 40.191 C 232.255 39.796,231.310 39.356,231.200 39.213 C 231.090 39.070,229.740 38.259,228.200 37.411 C 226.660 36.563,225.310 35.763,225.200 35.634 C 225.090 35.505,224.280 35.040,223.400 34.600 C 222.520 34.160,221.620 33.664,221.400 33.499 C 219.904 32.372,216.756 30.400,216.452 30.400 C 216.251 30.400,215.982 30.130,215.855 29.800 C 215.729 29.470,215.439 29.200,215.211 29.200 C 214.983 29.200,213.492 28.207,211.898 26.994 C 205.407 22.054,203.823 20.732,200.374 17.376 C 199.370 16.399,198.425 15.600,198.274 15.600 C 198.123 15.600,198.010 20.865,198.022 27.300 M297.709 176.800 C 297.709 177.790,297.787 178.195,297.882 177.700 C 297.978 177.205,297.978 176.395,297.882 175.900 C 297.787 175.405,297.709 175.810,297.709 176.800 M256.575 182.100 L 255.400 183.400 256.700 182.225 C 257.415 181.579,258.000 180.994,258.000 180.925 C 258.000 180.616,257.670 180.888,256.575 182.100 M286.181 203.300 L 284.600 205.000 286.300 203.419 C 287.881 201.948,288.184 201.600,287.881 201.600 C 287.816 201.600,287.051 202.365,286.181 203.300 M165.600 234.775 C 162.190 236.709,158.544 239.062,157.498 240.004 C 154.232 242.945,154.400 240.582,154.400 283.653 L 154.400 321.562 152.628 322.781 C 151.653 323.451,150.781 324.000,150.690 324.000 C 150.342 324.000,138.565 330.904,137.900 331.498 C 137.252 332.078,137.200 333.549,137.200 351.438 C 137.200 370.634,137.285 371.883,138.518 370.874 C 138.783 370.657,142.017 368.754,145.704 366.646 C 149.391 364.538,155.421 361.075,159.104 358.951 C 162.787 356.827,166.520 354.684,167.400 354.190 C 182.605 345.648,186.409 343.271,187.643 341.541 L 188.600 340.200 188.800 300.821 L 189.000 261.442 192.400 259.469 C 196.337 257.183,198.018 256.219,203.329 253.200 C 205.458 251.990,206.974 250.927,206.700 250.837 C 206.425 250.748,198.508 246.293,189.106 240.937 C 179.704 235.582,171.964 231.213,171.906 231.229 C 171.848 231.245,169.010 232.841,165.600 234.775 M180.900 355.476 C 181.285 355.576,181.915 355.576,182.300 355.476 C 182.685 355.375,182.370 355.293,181.600 355.293 C 180.830 355.293,180.515 355.375,180.900 355.476 M165.178 362.300 L 163.800 363.800 165.300 362.422 C 166.696 361.138,166.984 360.800,166.678 360.800 C 166.612 360.800,165.937 361.475,165.178 362.300 M171.305 387.887 C 171.914 387.979,172.814 387.977,173.305 387.882 C 173.797 387.787,173.300 387.711,172.200 387.714 C 171.100 387.717,170.697 387.795,171.305 387.887 M171.705 389.887 C 172.314 389.979,173.214 389.977,173.705 389.882 C 174.197 389.787,173.700 389.711,172.600 389.714 C 171.500 389.717,171.097 389.795,171.705 389.887 M223.400 390.800 L 214.200 391.023 223.276 391.111 C 228.993 391.167,232.444 391.052,232.600 390.800 C 232.736 390.580,232.792 390.440,232.724 390.489 C 232.656 390.537,228.460 390.678,223.400 390.800 " stroke="none" fill="#fbcb04" fill-rule="evenodd"></path><path id="path3" d="M195.400 41.043 C 157.096 70.119,101.672 82.622,43.740 75.255 L 35.280 74.179 35.043 77.390 C 33.646 96.381,34.151 146.143,36.002 171.800 C 36.702 181.504,37.983 196.594,38.224 197.973 C 38.356 198.728,38.807 202.418,39.227 206.173 C 40.369 216.394,42.776 232.841,44.148 239.800 C 44.496 241.560,44.948 243.900,45.153 245.000 C 46.086 249.990,47.267 255.681,48.018 258.800 C 50.897 270.762,51.172 271.812,53.467 279.600 C 54.966 284.684,58.480 295.343,58.808 295.800 C 58.966 296.020,59.325 296.920,59.605 297.800 C 63.437 309.846,73.036 327.865,81.767 339.400 C 114.251 382.320,155.003 421.787,190.687 444.884 C 199.060 450.303,198.300 450.095,201.859 447.943 C 234.878 427.980,270.873 394.681,304.059 353.400 C 318.969 334.854,327.648 321.250,332.386 309.000 C 332.811 307.900,333.726 305.650,334.418 304.000 C 339.478 291.939,347.120 266.204,349.384 253.600 C 349.522 252.830,349.891 251.030,350.204 249.600 C 355.888 223.585,359.724 187.791,361.626 143.000 C 362.097 131.911,361.890 80.888,361.355 76.058 L 361.117 73.917 359.859 74.170 C 347.992 76.562,319.246 77.894,303.200 76.795 C 264.936 74.174,227.696 61.165,201.341 41.214 C 198.131 38.784,198.368 38.790,195.400 41.043 M157.112 72.741 C 158.591 73.588,163.310 76.317,167.600 78.804 C 171.890 81.292,177.020 84.255,179.000 85.389 C 183.018 87.691,203.819 99.732,209.400 102.987 C 211.380 104.142,216.060 106.848,219.800 109.000 C 223.540 111.153,228.130 113.821,230.000 114.929 C 231.870 116.038,235.650 118.236,238.400 119.816 C 247.755 125.187,256.589 130.287,261.600 133.209 C 264.350 134.812,268.892 137.437,271.692 139.042 C 288.224 148.515,295.983 158.675,297.572 172.934 C 299.420 189.501,291.119 202.667,272.093 213.348 C 267.400 215.982,267.427 215.750,271.508 218.225 C 303.251 237.472,306.806 272.912,278.704 289.964 C 276.208 291.479,266.346 297.212,254.200 304.209 C 250.680 306.237,245.550 309.203,242.800 310.801 C 240.050 312.399,234.830 315.418,231.200 317.510 C 221.083 323.340,214.977 326.869,210.721 329.344 C 208.588 330.585,206.742 331.600,206.619 331.600 C 206.496 331.600,206.441 317.985,206.497 301.344 L 206.600 271.088 209.400 269.407 C 210.940 268.482,216.250 265.332,221.200 262.407 C 226.150 259.482,232.430 255.764,235.155 254.145 C 237.880 252.525,240.265 251.200,240.455 251.200 C 240.645 251.200,240.800 255.899,240.800 261.643 C 240.800 270.112,240.899 272.047,241.326 271.884 C 242.222 271.540,254.925 264.110,256.295 263.128 C 260.032 260.451,261.053 255.456,258.584 251.934 C 257.061 249.761,255.788 248.927,243.104 241.789 L 232.807 235.994 226.504 239.665 C 223.037 241.685,215.520 246.066,209.800 249.402 C 204.080 252.738,198.590 255.925,197.600 256.483 C 196.610 257.041,194.270 258.385,192.400 259.470 L 189.000 261.442 188.800 300.821 L 188.600 340.200 187.643 341.541 C 186.409 343.271,182.605 345.648,167.400 354.190 C 166.520 354.684,162.740 356.853,159.000 359.010 C 155.260 361.167,149.230 364.630,145.600 366.705 C 141.970 368.781,138.783 370.657,138.518 370.874 C 137.285 371.883,137.200 370.634,137.200 351.438 C 137.200 333.549,137.252 332.078,137.900 331.498 C 138.565 330.904,150.342 324.000,150.690 324.000 C 150.781 324.000,151.653 323.451,152.628 322.781 L 154.400 321.562 154.400 283.653 C 154.400 240.582,154.232 242.946,157.498 240.002 C 158.544 239.059,162.910 236.311,167.200 233.895 C 171.490 231.479,175.720 229.090,176.600 228.586 C 177.480 228.083,182.520 225.215,187.800 222.213 C 193.080 219.212,197.551 216.606,197.736 216.422 C 197.921 216.238,196.661 215.281,194.936 214.295 C 193.211 213.309,188.319 210.519,184.064 208.097 C 179.809 205.674,176.481 203.597,176.667 203.482 C 176.854 203.367,177.725 203.140,178.603 202.978 C 184.966 201.804,190.579 197.181,193.676 190.564 C 196.338 184.875,195.052 183.356,190.519 186.836 C 181.313 193.903,171.657 193.446,164.247 185.591 C 157.610 178.556,156.075 169.324,160.194 161.217 C 164.595 152.553,176.362 150.274,177.776 157.812 C 178.129 159.696,178.091 159.719,175.852 158.956 C 166.635 155.815,162.417 168.838,170.146 176.567 C 176.949 183.371,187.278 181.899,192.202 173.424 C 192.669 172.619,190.466 171.453,211.800 183.803 C 219.720 188.387,227.774 193.022,229.697 194.101 L 233.193 196.064 238.897 192.777 C 256.918 182.393,256.952 182.369,258.509 179.400 C 260.067 176.428,259.380 172.513,256.913 170.311 C 256.521 169.961,251.160 166.802,245.000 163.291 C 238.840 159.780,217.780 147.776,198.200 136.616 C 178.620 125.456,160.575 115.158,158.100 113.731 L 153.600 111.137 153.600 91.169 C 153.600 77.727,153.735 71.200,154.012 71.200 C 154.239 71.200,155.634 71.893,157.112 72.741 M103.640 112.079 C 109.103 122.902,117.891 127.569,132.850 127.592 L 137.900 127.600 138.148 126.359 C 138.285 125.677,138.284 124.417,138.147 123.559 C 137.855 121.731,137.714 121.767,140.898 122.852 C 146.906 124.899,152.145 128.960,157.028 135.356 C 158.730 137.584,158.649 137.579,161.505 135.646 C 169.041 130.545,176.407 129.225,182.743 131.841 L 184.087 132.395 182.791 133.872 C 180.874 136.055,179.807 138.555,180.716 138.736 C 187.960 140.181,195.372 147.671,196.846 155.037 C 197.508 158.345,197.276 158.799,194.913 158.806 C 191.811 158.816,191.810 158.818,191.803 165.083 C 191.797 171.251,191.342 172.844,188.742 175.805 C 181.685 183.842,166.607 176.936,167.718 166.175 C 168.292 160.610,172.256 158.488,177.035 161.185 L 179.135 162.370 179.401 160.794 C 181.472 148.534,163.913 149.112,158.362 161.486 C 149.099 182.130,172.416 201.877,190.542 188.738 C 193.917 186.292,194.005 186.369,192.202 190.168 C 183.542 208.419,159.355 204.511,151.681 183.622 C 149.650 178.094,149.192 174.587,148.798 161.541 C 148.313 145.458,147.903 142.940,145.287 139.960 C 140.088 134.039,129.067 136.143,129.067 143.057 C 129.067 144.683,129.249 145.090,130.486 146.223 L 131.905 147.524 134.209 146.362 C 141.936 142.465,148.469 148.921,145.811 157.827 C 143.891 164.264,136.775 166.300,131.287 161.983 C 130.607 161.448,129.672 161.200,128.333 161.200 C 122.384 161.200,116.828 154.047,116.792 146.342 C 116.784 144.671,116.697 144.546,114.652 143.287 C 102.652 135.892,97.045 122.202,101.478 111.121 C 102.250 109.192,102.163 109.154,103.640 112.079 M185.246 355.771 C 190.517 356.711,194.886 359.232,197.138 362.631 C 198.180 364.205,198.367 364.335,198.588 363.637 C 199.367 361.184,205.847 357.215,210.781 356.169 C 223.915 353.385,234.951 360.168,238.004 372.901 C 241.601 387.909,232.373 401.868,205.569 421.964 C 201.736 424.837,198.400 427.191,198.155 427.194 C 197.699 427.200,183.960 416.981,180.000 413.691 C 172.476 407.439,163.849 397.424,160.799 391.400 C 152.602 375.208,163.452 356.177,181.400 355.268 C 181.840 355.246,183.571 355.472,185.246 355.771 M185.283 368.524 C 185.076 368.786,184.816 369.450,184.704 370.000 C 184.592 370.550,183.920 373.070,183.210 375.600 C 182.500 378.130,181.485 381.795,180.955 383.745 C 180.425 385.695,179.876 387.477,179.736 387.704 C 179.565 387.980,177.002 388.026,171.990 387.841 C 165.792 387.613,164.462 387.661,164.286 388.119 C 163.831 389.307,164.755 389.489,172.635 389.760 C 181.537 390.067,181.172 390.160,181.911 387.400 C 184.946 376.071,185.713 373.356,185.948 373.107 C 186.101 372.946,187.345 376.122,188.713 380.164 C 195.693 400.787,197.988 407.348,198.349 407.709 C 199.218 408.578,199.885 407.450,201.876 401.747 C 203.018 398.476,205.073 392.599,206.442 388.686 C 207.869 384.609,209.082 381.722,209.283 381.923 C 209.475 382.115,210.600 384.147,211.781 386.437 L 213.929 390.600 223.264 390.600 C 231.296 390.600,232.600 390.516,232.600 390.000 C 232.600 389.489,231.327 389.384,223.978 389.292 L 215.355 389.185 212.415 383.575 C 208.348 375.814,209.556 374.309,201.481 397.200 C 200.278 400.610,199.138 403.341,198.947 403.269 C 198.756 403.198,196.577 397.168,194.104 389.869 C 186.417 367.186,186.390 367.120,185.283 368.524 " stroke="none" fill="#fbfbfb" fill-rule="evenodd"></path><path id="path4" d="M192.939 20.184 C 191.872 21.165,191.132 21.975,191.293 21.984 C 191.454 21.993,192.431 21.190,193.465 20.200 C 195.898 17.868,195.469 17.855,192.939 20.184 M189.398 23.202 C 188.375 24.332,188.810 24.437,189.886 23.320 C 190.373 22.814,190.626 22.400,190.448 22.400 C 190.270 22.400,189.797 22.761,189.398 23.202 M186.770 25.500 L 185.800 26.600 187.000 25.600 C 187.660 25.050,188.275 24.555,188.367 24.500 C 188.458 24.445,188.355 24.400,188.136 24.400 C 187.918 24.400,187.303 24.895,186.770 25.500 M173.300 34.412 C 172.805 34.611,172.414 35.005,172.432 35.287 C 172.456 35.689,172.507 35.691,172.665 35.300 C 172.776 35.025,173.111 34.800,173.410 34.800 C 173.708 34.800,174.064 34.620,174.200 34.400 C 174.487 33.936,174.485 33.936,173.300 34.412 M170.600 36.027 C 169.255 36.889,169.439 37.038,170.981 36.336 C 171.542 36.080,172.000 35.720,172.000 35.536 C 172.000 35.118,172.043 35.103,170.600 36.027 M167.600 37.573 C 167.600 37.778,167.195 38.073,166.700 38.228 C 165.636 38.561,163.702 40.000,164.317 40.000 C 164.551 40.000,164.981 39.767,165.271 39.483 C 165.562 39.199,166.385 38.727,167.100 38.435 C 168.332 37.931,168.865 37.200,168.000 37.200 C 167.780 37.200,167.600 37.368,167.600 37.573 M196.385 40.029 L 195.000 41.258 196.500 40.181 C 197.826 39.230,198.257 38.800,197.885 38.800 C 197.822 38.800,197.147 39.353,196.385 40.029 M160.000 41.600 C 158.402 42.475,158.517 42.596,160.340 41.961 C 161.033 41.719,161.600 41.359,161.600 41.161 C 161.600 40.707,161.663 40.689,160.000 41.600 M193.400 42.235 L 192.200 43.266 193.500 42.406 C 194.215 41.933,194.800 41.468,194.800 41.373 C 194.800 41.073,194.631 41.178,193.400 42.235 M157.600 42.824 C 157.600 43.057,157.419 43.135,157.197 42.998 C 156.975 42.861,156.512 43.030,156.168 43.374 C 155.425 44.118,155.500 44.133,157.140 43.561 C 158.325 43.148,158.879 42.400,158.000 42.400 C 157.780 42.400,157.600 42.591,157.600 42.824 M190.600 44.235 L 189.400 45.266 190.700 44.406 C 191.415 43.933,192.000 43.468,192.000 43.373 C 192.000 43.073,191.831 43.178,190.600 44.235 M152.600 45.067 C 151.897 45.630,151.889 45.677,152.533 45.454 C 152.936 45.314,153.431 45.200,153.633 45.200 C 153.835 45.200,154.000 45.020,154.000 44.800 C 154.000 44.233,153.527 44.324,152.600 45.067 M177.681 52.066 C 176.075 52.962,174.835 53.768,174.924 53.858 C 175.100 54.033,179.951 51.385,180.580 50.771 C 181.218 50.148,180.718 50.371,177.681 52.066 M131.200 52.400 C 131.200 52.620,131.470 52.800,131.800 52.800 C 132.130 52.800,132.400 52.620,132.400 52.400 C 132.400 52.180,132.130 52.000,131.800 52.000 C 131.470 52.000,131.200 52.180,131.200 52.400 M23.200 54.000 C 23.200 54.220,23.470 54.400,23.800 54.400 C 24.130 54.400,24.400 54.220,24.400 54.000 C 24.400 53.780,24.130 53.600,23.800 53.600 C 23.470 53.600,23.200 53.780,23.200 54.000 M171.900 55.227 C 171.075 55.663,170.400 56.108,170.400 56.218 C 170.400 56.327,171.120 56.049,172.000 55.600 C 172.880 55.151,173.600 54.697,173.600 54.592 C 173.600 54.330,173.597 54.331,171.900 55.227 M33.800 56.000 C 33.664 56.220,33.923 56.400,34.376 56.400 C 34.829 56.400,35.200 56.220,35.200 56.000 C 35.200 55.780,34.941 55.600,34.624 55.600 C 34.307 55.600,33.936 55.780,33.800 56.000 M116.200 56.000 C 116.064 56.220,116.323 56.400,116.776 56.400 C 117.229 56.400,117.600 56.220,117.600 56.000 C 117.600 55.780,117.341 55.600,117.024 55.600 C 116.707 55.600,116.336 55.780,116.200 56.000 M36.600 56.400 C 36.736 56.620,37.332 56.797,37.924 56.794 C 38.766 56.789,38.869 56.703,38.400 56.400 C 37.610 55.889,36.284 55.889,36.600 56.400 M113.400 56.400 C 113.264 56.620,113.513 56.800,113.953 56.800 C 114.393 56.800,114.864 56.620,115.000 56.400 C 115.136 56.180,114.887 56.000,114.447 56.000 C 114.007 56.000,113.536 56.180,113.400 56.400 M166.313 57.955 C 163.075 59.514,161.601 60.500,164.000 59.502 C 166.065 58.643,170.263 56.436,169.800 56.453 C 169.580 56.461,168.011 57.137,166.313 57.955 M18.670 57.500 C 18.316 58.100,18.440 61.600,18.815 61.600 C 19.027 61.600,19.200 60.610,19.200 59.400 C 19.200 57.308,19.066 56.829,18.670 57.500 M43.881 57.641 C 44.198 57.958,44.532 57.961,45.061 57.654 C 45.709 57.277,45.654 57.223,44.620 57.212 C 43.759 57.203,43.560 57.320,43.881 57.641 M106.800 57.353 C 106.800 57.708,108.418 57.894,108.623 57.562 C 108.746 57.363,108.387 57.200,107.824 57.200 C 107.261 57.200,106.800 57.269,106.800 57.353 M47.600 58.000 C 47.600 58.220,48.140 58.400,48.800 58.400 C 49.460 58.400,50.000 58.220,50.000 58.000 C 50.000 57.780,49.460 57.600,48.800 57.600 C 48.140 57.600,47.600 57.780,47.600 58.000 M103.000 58.000 C 103.136 58.220,103.777 58.400,104.424 58.400 C 105.071 58.400,105.600 58.220,105.600 58.000 C 105.600 57.780,104.959 57.600,104.176 57.600 C 103.329 57.600,102.853 57.762,103.000 58.000 M52.705 58.683 C 53.202 58.779,53.922 58.775,54.305 58.675 C 54.687 58.575,54.280 58.496,53.400 58.501 C 52.520 58.505,52.207 58.587,52.705 58.683 M99.105 58.683 C 99.602 58.779,100.322 58.775,100.705 58.675 C 101.087 58.575,100.680 58.496,99.800 58.501 C 98.920 58.505,98.607 58.587,99.105 58.683 M58.505 59.087 C 59.114 59.179,60.014 59.177,60.505 59.082 C 60.997 58.987,60.500 58.911,59.400 58.914 C 58.300 58.917,57.897 58.995,58.505 59.087 M93.305 59.087 C 93.914 59.179,94.814 59.177,95.305 59.082 C 95.797 58.987,95.300 58.911,94.200 58.914 C 93.100 58.917,92.697 58.995,93.305 59.087 M65.600 59.600 C 65.600 60.118,71.599 60.118,72.400 59.600 C 72.811 59.334,71.837 59.210,69.300 59.206 C 67.096 59.202,65.600 59.362,65.600 59.600 M82.000 59.600 C 83.473 60.072,88.400 60.072,88.400 59.600 C 88.400 59.359,86.927 59.216,84.700 59.240 C 82.232 59.266,81.333 59.386,82.000 59.600 M160.200 60.829 C 159.320 61.252,159.050 61.486,159.600 61.349 C 160.733 61.067,162.812 60.025,162.200 60.046 C 161.980 60.053,161.080 60.406,160.200 60.829 M155.400 62.829 C 154.520 63.252,154.250 63.486,154.800 63.349 C 155.933 63.067,158.012 62.025,157.400 62.046 C 157.180 62.053,156.280 62.406,155.400 62.829 M150.600 64.586 C 149.940 64.888,149.670 65.143,150.000 65.153 C 150.330 65.163,151.050 64.914,151.600 64.600 C 152.873 63.872,152.180 63.862,150.600 64.586 M18.000 68.576 C 18.000 69.993,18.180 71.264,18.400 71.400 C 18.652 71.556,18.800 70.604,18.800 68.824 C 18.800 67.208,18.629 66.000,18.400 66.000 C 18.175 66.000,18.000 67.125,18.000 68.576 M144.475 66.673 C 143.526 67.009,142.821 67.354,142.907 67.440 C 142.993 67.527,144.040 67.251,145.232 66.828 C 146.424 66.405,147.130 66.060,146.800 66.061 C 146.470 66.062,145.424 66.338,144.475 66.673 M138.600 68.615 C 137.016 69.163,137.014 69.166,138.400 68.938 C 139.170 68.812,140.070 68.554,140.400 68.366 C 141.281 67.864,140.430 67.982,138.600 68.615 M132.000 70.400 C 131.196 70.657,131.157 70.723,131.800 70.732 C 132.240 70.738,132.960 70.589,133.400 70.400 C 134.419 69.962,133.368 69.962,132.000 70.400 M124.200 72.209 C 123.066 72.501,122.633 72.727,123.200 72.731 C 123.750 72.735,124.920 72.501,125.800 72.211 C 127.842 71.538,126.816 71.537,124.200 72.209 M34.966 74.143 C 34.840 74.472,34.816 75.160,34.914 75.671 C 35.056 76.416,35.102 76.356,35.146 75.366 L 35.200 74.132 37.683 74.472 C 39.048 74.659,40.353 74.745,40.583 74.664 C 40.812 74.583,40.010 74.388,38.800 74.230 C 37.590 74.072,36.284 73.853,35.898 73.743 C 35.497 73.630,35.098 73.802,34.966 74.143 M113.800 74.218 L 111.400 74.748 113.523 74.533 C 114.690 74.415,116.130 74.172,116.723 73.994 C 118.469 73.467,116.521 73.616,113.800 74.218 M45.700 75.476 C 46.085 75.576,46.715 75.576,47.100 75.476 C 47.485 75.375,47.170 75.293,46.400 75.293 C 45.630 75.293,45.315 75.375,45.700 75.476 M50.000 75.994 C 52.322 76.339,56.249 76.506,55.967 76.248 C 55.875 76.164,54.000 75.999,51.800 75.882 C 48.909 75.727,48.410 75.759,50.000 75.994 M99.600 76.000 L 97.400 76.270 99.400 76.300 C 100.500 76.316,102.300 76.190,103.400 76.018 L 105.400 75.707 103.600 75.719 C 102.610 75.725,100.810 75.852,99.600 76.000 M57.305 76.687 C 57.914 76.779,58.814 76.777,59.305 76.682 C 59.797 76.587,59.300 76.511,58.200 76.514 C 57.100 76.517,56.697 76.595,57.305 76.687 M94.700 76.682 C 95.195 76.778,96.005 76.778,96.500 76.682 C 96.995 76.587,96.590 76.509,95.600 76.509 C 94.610 76.509,94.205 76.587,94.700 76.682 M17.746 80.600 C 17.747 82.800,17.814 83.649,17.895 82.487 C 17.976 81.324,17.976 79.524,17.893 78.487 C 17.811 77.449,17.745 78.400,17.746 80.600 M34.563 83.200 C 34.563 86.830,34.623 88.315,34.698 86.500 C 34.772 84.685,34.772 81.715,34.698 79.900 C 34.623 78.085,34.563 79.570,34.563 83.200 M64.300 77.089 C 65.015 77.178,66.185 77.178,66.900 77.089 C 67.615 77.001,67.030 76.928,65.600 76.928 C 64.170 76.928,63.585 77.001,64.300 77.089 M87.091 77.089 C 87.801 77.177,89.061 77.179,89.891 77.092 C 90.721 77.005,90.140 76.933,88.600 76.931 C 87.060 76.929,86.381 77.000,87.091 77.089 M34.168 98.200 C 34.168 102.600,34.226 104.455,34.298 102.321 C 34.370 100.188,34.370 96.588,34.299 94.321 C 34.227 92.055,34.168 93.800,34.168 98.200 M17.387 114.600 C 17.387 126.920,17.438 132.018,17.500 125.928 C 17.562 119.839,17.562 109.759,17.500 103.528 C 17.438 97.298,17.387 102.280,17.387 114.600 M101.478 111.121 C 97.045 122.202,102.652 135.892,114.652 143.287 L 116.784 144.600 116.862 146.800 C 116.936 148.906,116.946 148.925,117.096 147.243 C 117.258 145.410,117.916 144.575,120.162 143.349 C 120.802 143.000,121.691 142.374,122.138 141.957 C 122.585 141.541,123.178 141.200,123.456 141.200 C 123.733 141.200,124.104 140.965,124.280 140.678 C 124.456 140.392,125.275 139.843,126.100 139.460 C 126.925 139.076,127.600 138.613,127.600 138.430 C 127.600 138.247,128.127 137.879,128.771 137.612 C 129.415 137.345,130.040 136.873,130.159 136.563 C 130.278 136.254,130.570 136.000,130.809 136.000 C 131.233 136.000,137.348 131.887,138.266 130.984 C 138.522 130.732,139.287 130.295,139.966 130.014 C 140.645 129.733,141.200 129.344,141.200 129.150 C 141.200 128.956,141.920 128.486,142.800 128.104 C 143.680 127.723,144.400 127.269,144.400 127.096 C 144.400 126.922,144.860 126.605,145.422 126.391 C 146.990 125.796,148.479 126.785,153.200 131.555 C 155.510 133.889,156.833 135.079,156.140 134.199 C 152.679 129.808,146.560 124.707,145.934 125.692 C 145.619 126.189,145.551 126.107,145.450 125.107 C 145.401 124.626,141.353 122.816,139.045 122.244 C 137.892 121.958,137.891 121.959,138.144 123.538 C 138.283 124.407,138.285 125.677,138.148 126.359 L 137.900 127.600 132.850 127.592 C 117.891 127.569,109.103 122.902,103.640 112.079 C 102.163 109.154,102.250 109.192,101.478 111.121 M34.165 131.400 C 34.166 135.360,34.226 136.926,34.298 134.880 C 34.371 132.834,34.371 129.594,34.298 127.680 C 34.224 125.766,34.165 127.440,34.165 131.400 M175.305 130.687 C 175.914 130.779,176.814 130.777,177.305 130.682 C 177.797 130.587,177.300 130.511,176.200 130.514 C 175.100 130.517,174.697 130.595,175.305 130.687 M168.475 131.873 C 167.526 132.209,166.821 132.554,166.907 132.641 C 167.090 132.823,170.800 131.605,170.800 131.362 C 170.800 131.112,170.345 131.212,168.475 131.873 M181.200 131.442 C 181.200 131.552,181.742 131.831,182.405 132.062 L 183.611 132.482 182.405 133.855 C 181.742 134.610,181.200 135.342,181.200 135.481 C 181.200 135.620,181.811 135.028,182.558 134.167 C 183.306 133.305,183.846 132.483,183.759 132.339 C 183.556 132.004,181.200 131.177,181.200 131.442 M164.700 133.627 C 163.875 134.063,163.200 134.508,163.200 134.618 C 163.200 134.727,163.920 134.449,164.800 134.000 C 165.680 133.551,166.400 133.097,166.400 132.992 C 166.400 132.730,166.397 132.731,164.700 133.627 M161.544 135.623 C 160.650 136.402,160.646 136.423,161.478 136.020 C 161.960 135.787,162.466 135.417,162.601 135.198 C 162.995 134.562,162.563 134.735,161.544 135.623 M135.400 135.873 C 133.175 136.313,132.800 136.444,132.800 136.787 C 132.800 137.003,133.318 136.978,134.036 136.727 C 135.249 136.305,139.421 136.459,141.000 136.985 C 141.500 137.151,141.425 137.037,140.800 136.681 C 139.724 136.068,136.703 135.616,135.400 135.873 M157.779 136.892 C 158.486 137.992,159.495 137.940,160.220 136.768 C 160.365 136.533,160.115 136.571,159.664 136.853 C 158.966 137.289,158.714 137.249,157.960 136.582 L 157.076 135.800 157.779 136.892 M180.388 136.822 C 180.146 137.274,180.007 137.822,180.080 138.039 C 180.152 138.257,180.418 137.887,180.671 137.217 C 181.197 135.825,181.039 135.605,180.388 136.822 M131.170 137.713 C 130.417 138.295,129.027 140.362,129.246 140.574 C 129.331 140.657,130.088 139.931,130.928 138.962 C 132.390 137.275,132.506 136.680,131.170 137.713 M142.000 137.360 C 142.000 137.449,142.620 137.887,143.379 138.334 C 144.137 138.782,145.307 139.906,145.979 140.834 C 146.650 141.761,147.200 142.286,147.200 141.999 C 147.200 141.356,143.096 137.200,142.461 137.200 C 142.207 137.200,142.000 137.272,142.000 137.360 M181.600 139.400 C 183.426 140.103,184.145 140.093,182.600 139.386 C 181.940 139.083,181.130 138.842,180.800 138.848 C 180.470 138.855,180.830 139.103,181.600 139.400 M34.560 145.400 C 34.561 148.700,34.622 149.997,34.698 148.282 C 34.773 146.567,34.772 143.867,34.697 142.282 C 34.621 140.697,34.559 142.100,34.560 145.400 M186.000 141.220 C 187.387 142.161,188.178 142.435,187.200 141.636 C 186.650 141.186,186.020 140.817,185.800 140.815 C 185.580 140.813,185.670 140.996,186.000 141.220 M128.667 141.467 C 128.284 141.849,128.337 144.314,128.733 144.559 C 128.917 144.672,129.067 143.963,129.067 142.982 C 129.067 141.067,129.067 141.067,128.667 141.467 M188.400 142.504 C 188.400 142.598,189.345 143.463,190.500 144.426 C 191.655 145.390,192.347 145.861,192.038 145.474 C 191.418 144.696,188.400 142.232,188.400 142.504 M147.853 145.200 C 147.995 145.970,148.253 148.400,148.427 150.600 L 148.743 154.600 148.611 150.200 C 148.538 147.780,148.280 145.350,148.037 144.800 C 147.640 143.899,147.621 143.938,147.853 145.200 M17.746 148.600 C 17.747 150.800,17.814 151.649,17.895 150.487 C 17.976 149.324,17.976 147.524,17.893 146.487 C 17.811 145.449,17.745 146.400,17.746 148.600 M129.543 145.894 C 129.978 146.707,131.527 147.846,131.772 147.532 C 131.829 147.460,131.244 146.861,130.472 146.203 C 129.284 145.190,129.141 145.142,129.543 145.894 M137.507 145.490 C 138.226 145.579,139.306 145.577,139.907 145.486 C 140.508 145.395,139.920 145.322,138.600 145.324 C 137.280 145.326,136.788 145.401,137.507 145.490 M133.500 146.629 C 132.005 147.440,132.096 147.778,133.600 147.000 C 134.260 146.659,134.800 146.294,134.800 146.190 C 134.800 145.932,134.757 145.947,133.500 146.629 M143.674 147.456 C 144.468 148.366,145.243 149.505,145.396 149.986 C 145.548 150.467,145.760 150.773,145.866 150.667 C 146.217 150.316,144.893 148.220,143.550 147.000 C 142.238 145.808,142.239 145.811,143.674 147.456 M117.232 149.427 C 117.175 150.190,118.410 153.959,118.793 154.196 C 118.998 154.323,118.841 153.475,118.444 152.313 C 117.415 149.300,117.267 148.947,117.232 149.427 M195.078 150.595 C 195.444 151.362,195.814 151.919,195.901 151.832 C 196.084 151.649,194.870 149.200,194.596 149.200 C 194.495 149.200,194.712 149.828,195.078 150.595 M146.128 154.000 C 146.128 155.430,146.201 156.015,146.289 155.300 C 146.378 154.585,146.378 153.415,146.289 152.700 C 146.201 151.985,146.128 152.570,146.128 154.000 M174.833 152.121 C 174.925 152.188,175.540 152.558,176.200 152.945 L 177.400 153.647 176.456 152.824 C 175.936 152.371,175.321 152.000,175.089 152.000 C 174.857 152.000,174.742 152.054,174.833 152.121 M34.946 156.200 C 34.947 158.400,35.014 159.249,35.095 158.087 C 35.176 156.924,35.176 155.124,35.093 154.087 C 35.011 153.049,34.945 154.000,34.946 156.200 M170.905 153.487 C 171.514 153.579,172.414 153.577,172.905 153.482 C 173.397 153.387,172.900 153.311,171.800 153.314 C 170.700 153.317,170.297 153.395,170.905 153.487 M162.270 155.662 L 160.200 157.725 162.400 155.790 C 163.610 154.725,164.675 153.797,164.767 153.727 C 164.858 153.657,164.800 153.600,164.637 153.600 C 164.474 153.600,163.409 154.528,162.270 155.662 M175.462 154.656 C 176.156 155.285,176.916 156.160,177.150 156.600 C 177.384 157.040,177.581 157.199,177.588 156.954 C 177.606 156.294,176.067 154.460,175.069 153.954 C 174.491 153.660,174.623 153.896,175.462 154.656 M178.255 155.000 C 179.180 156.579,179.200 156.603,179.200 156.111 C 179.200 155.879,178.829 155.264,178.376 154.744 L 177.553 153.800 178.255 155.000 M119.757 155.800 C 120.073 156.460,121.015 157.630,121.849 158.400 L 123.366 159.800 121.983 158.196 C 121.222 157.314,120.281 156.144,119.891 155.596 L 119.182 154.600 119.757 155.800 M163.160 157.164 C 162.118 158.244,161.062 159.549,160.811 160.064 C 160.497 160.710,160.633 160.629,161.252 159.800 C 161.746 159.140,162.951 157.835,163.930 156.900 C 164.910 155.965,165.563 155.200,165.382 155.200 C 165.201 155.200,164.201 156.084,163.160 157.164 M196.860 156.900 L 196.800 158.400 194.824 158.400 C 193.737 158.400,192.763 158.535,192.661 158.700 C 192.558 158.865,193.460 158.938,194.665 158.861 C 197.024 158.712,197.367 158.383,197.090 156.534 C 196.947 155.580,196.910 155.639,196.860 156.900 M18.000 160.600 C 18.000 162.067,18.174 163.200,18.400 163.200 C 18.626 163.200,18.800 162.067,18.800 160.600 C 18.800 159.133,18.626 158.000,18.400 158.000 C 18.174 158.000,18.000 159.133,18.000 160.600 M170.900 158.412 C 169.487 158.981,169.847 159.178,171.476 158.728 C 172.867 158.344,174.365 158.421,176.200 158.972 C 176.640 159.104,176.460 158.947,175.800 158.624 C 174.452 157.964,172.253 157.869,170.900 158.412 M145.200 158.703 C 145.200 158.943,144.543 160.008,143.739 161.069 C 142.936 162.131,142.672 162.652,143.152 162.226 C 144.283 161.225,145.762 158.829,145.446 158.512 C 145.311 158.377,145.200 158.463,145.200 158.703 M168.041 160.614 C 167.359 161.392,166.800 162.148,166.800 162.294 C 166.800 162.440,166.936 162.389,167.103 162.180 C 167.270 161.971,167.933 161.215,168.578 160.500 C 169.222 159.785,169.645 159.200,169.516 159.200 C 169.388 159.200,168.724 159.836,168.041 160.614 M191.465 159.500 C 191.365 159.665,191.427 162.050,191.603 164.800 L 191.922 169.800 191.861 164.501 C 191.828 161.586,191.766 159.201,191.724 159.201 C 191.682 159.200,191.565 159.335,191.465 159.500 M123.830 160.048 C 124.074 160.443,126.713 161.298,127.174 161.132 C 127.375 161.059,126.664 160.720,125.594 160.377 C 124.524 160.035,123.730 159.887,123.830 160.048 M171.800 160.198 C 172.818 160.543,176.062 160.685,175.554 160.363 C 175.249 160.170,174.190 160.024,173.200 160.038 C 172.210 160.052,171.580 160.124,171.800 160.198 M128.000 160.956 C 128.000 161.042,128.617 161.185,129.372 161.273 C 130.127 161.361,130.656 161.290,130.548 161.116 C 130.355 160.803,128.000 160.655,128.000 160.956 M169.513 161.500 C 168.907 162.195,167.680 164.393,168.123 163.990 C 168.483 163.662,170.391 160.800,170.250 160.800 C 170.181 160.800,169.849 161.115,169.513 161.500 M35.314 163.400 C 35.317 164.500,35.395 164.903,35.487 164.295 C 35.579 163.686,35.577 162.786,35.482 162.295 C 35.387 161.803,35.311 162.300,35.314 163.400 M131.374 161.958 C 131.523 162.199,132.016 162.595,132.471 162.838 C 133.062 163.154,133.220 163.156,133.026 162.842 C 132.877 162.601,132.384 162.205,131.929 161.962 C 131.338 161.646,131.180 161.644,131.374 161.958 M140.400 163.477 C 139.449 163.892,138.294 164.022,136.800 163.882 C 135.440 163.755,134.905 163.804,135.400 164.010 C 137.115 164.725,142.000 163.993,142.000 163.020 C 142.000 162.758,142.131 162.721,140.400 163.477 M167.720 167.200 C 167.720 168.410,167.795 168.905,167.887 168.300 C 167.978 167.695,167.978 166.705,167.887 166.100 C 167.795 165.495,167.720 165.990,167.720 167.200 M165.709 167.200 C 165.709 168.190,165.787 168.595,165.882 168.100 C 165.978 167.605,165.978 166.795,165.882 166.300 C 165.787 165.805,165.709 166.210,165.709 167.200 M148.924 168.200 C 148.926 169.520,149.001 170.012,149.090 169.293 C 149.179 168.574,149.177 167.494,149.086 166.893 C 148.995 166.292,148.922 166.880,148.924 168.200 M157.901 168.700 C 157.785 169.745,157.817 171.410,157.971 172.400 C 158.193 173.825,158.257 173.428,158.278 170.500 C 158.308 166.360,158.211 165.899,157.901 168.700 M18.657 167.508 C 18.314 168.063,18.458 171.589,18.833 171.821 C 19.040 171.948,19.200 170.991,19.200 169.624 C 19.200 167.308,19.077 166.828,18.657 167.508 M156.134 170.400 C 156.134 172.050,156.205 172.725,156.291 171.900 C 156.378 171.075,156.378 169.725,156.291 168.900 C 156.205 168.075,156.134 168.750,156.134 170.400 M35.709 170.800 C 35.709 171.790,35.787 172.195,35.882 171.700 C 35.978 171.205,35.978 170.395,35.882 169.900 C 35.787 169.405,35.709 169.810,35.709 170.800 M189.615 174.175 C 189.148 174.931,188.098 176.111,187.283 176.797 C 186.467 177.483,186.160 177.870,186.600 177.657 C 187.864 177.044,191.428 172.800,190.679 172.800 C 190.561 172.800,190.083 173.419,189.615 174.175 M191.444 174.560 C 190.877 175.529,189.555 177.084,188.506 178.016 C 187.458 178.948,186.960 179.523,187.400 179.294 C 188.682 178.627,191.502 175.601,192.030 174.328 C 192.337 173.585,192.720 173.237,193.078 173.375 C 193.389 173.494,193.532 173.414,193.397 173.195 C 192.946 172.465,192.482 172.790,191.444 174.560 M171.000 175.145 C 171.880 176.090,172.960 177.053,173.400 177.286 C 173.840 177.518,174.110 177.627,174.000 177.527 C 170.103 173.991,169.420 173.448,171.000 175.145 M195.566 174.681 C 196.841 175.630,201.200 178.096,201.200 177.869 C 201.200 177.699,195.836 174.459,195.000 174.124 C 194.780 174.035,195.035 174.286,195.566 174.681 M168.754 175.536 C 169.199 176.160,169.879 176.925,170.265 177.236 C 170.652 177.546,170.360 177.035,169.617 176.100 C 168.091 174.180,167.525 173.810,168.754 175.536 M19.320 177.200 C 19.320 178.410,19.395 178.905,19.487 178.300 C 19.578 177.695,19.578 176.705,19.487 176.100 C 19.395 175.495,19.320 175.990,19.320 177.200 M36.109 177.200 C 36.109 178.190,36.187 178.595,36.282 178.100 C 36.378 177.605,36.378 176.795,36.282 176.300 C 36.187 175.805,36.109 176.210,36.109 177.200 M158.828 176.492 C 158.782 176.965,160.086 180.048,160.258 179.875 C 160.345 179.788,160.066 178.925,159.637 177.958 C 159.208 176.991,158.844 176.331,158.828 176.492 M201.600 178.179 C 201.600 178.289,202.140 178.659,202.800 179.000 C 203.460 179.341,204.000 179.531,204.000 179.421 C 204.000 179.311,203.460 178.941,202.800 178.600 C 202.140 178.259,201.600 178.069,201.600 178.179 M176.715 178.872 C 177.092 179.021,178.750 179.144,180.400 179.144 C 182.050 179.144,183.708 179.021,184.085 178.872 C 184.462 178.722,182.804 178.600,180.400 178.600 C 177.996 178.600,176.338 178.722,176.715 178.872 M36.528 181.600 C 36.528 183.030,36.601 183.615,36.689 182.900 C 36.778 182.185,36.778 181.015,36.689 180.300 C 36.601 179.585,36.528 180.170,36.528 181.600 M204.400 179.779 C 204.400 179.889,204.940 180.259,205.600 180.600 C 206.260 180.941,206.800 181.131,206.800 181.021 C 206.800 180.911,206.260 180.541,205.600 180.200 C 204.940 179.859,204.400 179.669,204.400 179.779 M175.800 180.504 C 176.284 180.800,178.103 180.994,180.400 180.994 C 182.697 180.994,184.516 180.800,185.000 180.504 C 185.690 180.081,185.608 180.054,184.400 180.307 C 183.630 180.468,181.830 180.600,180.400 180.600 C 178.970 180.600,177.170 180.468,176.400 180.307 C 175.192 180.054,175.110 180.081,175.800 180.504 M160.978 181.475 C 161.317 182.176,161.794 182.872,162.037 183.023 C 162.574 183.355,161.995 182.215,161.010 181.000 C 160.408 180.257,160.406 180.291,160.978 181.475 M208.766 182.277 C 210.049 183.237,214.400 185.696,214.400 185.461 C 214.400 185.288,212.471 184.124,209.200 182.324 C 208.004 181.666,207.941 181.659,208.766 182.277 M19.714 183.800 C 19.717 184.900,19.795 185.303,19.887 184.695 C 19.979 184.086,19.977 183.186,19.882 182.695 C 19.787 182.203,19.711 182.700,19.714 183.800 M36.914 186.200 C 36.917 187.300,36.995 187.703,37.087 187.095 C 37.179 186.486,37.177 185.586,37.082 185.095 C 36.987 184.603,36.911 185.100,36.914 186.200 M161.951 185.938 C 162.621 186.785,163.487 187.730,163.874 188.038 C 164.261 188.347,163.790 187.655,162.826 186.500 C 160.806 184.078,160.138 183.649,161.951 185.938 M191.200 186.034 L 189.400 187.665 191.279 186.202 C 194.333 183.823,195.709 184.711,194.685 188.400 C 194.467 189.189,194.530 189.146,194.986 188.200 C 196.765 184.506,194.387 183.145,191.200 186.034 M214.800 185.779 C 214.800 185.889,215.340 186.259,216.000 186.600 C 216.660 186.941,217.200 187.131,217.200 187.021 C 217.200 186.911,216.660 186.541,216.000 186.200 C 215.340 185.859,214.800 185.669,214.800 185.779 M165.682 187.021 C 166.277 187.673,167.357 188.528,168.082 188.921 C 169.351 189.608,169.363 189.608,168.409 188.917 C 167.865 188.523,166.785 187.668,166.009 187.018 L 164.600 185.836 165.682 187.021 M217.600 187.379 C 217.600 187.489,218.140 187.859,218.800 188.200 C 219.460 188.541,220.000 188.731,220.000 188.621 C 220.000 188.511,219.460 188.141,218.800 187.800 C 218.140 187.459,217.600 187.269,217.600 187.379 M20.000 189.776 C 20.000 190.533,20.180 191.264,20.400 191.400 C 20.642 191.549,20.800 191.004,20.800 190.024 C 20.800 189.131,20.620 188.400,20.400 188.400 C 20.180 188.400,20.000 189.019,20.000 189.776 M165.273 189.026 C 165.643 189.452,166.543 190.141,167.273 190.557 C 168.839 191.450,168.426 191.007,166.200 189.404 C 165.269 188.734,164.882 188.576,165.273 189.026 M221.899 189.853 C 222.951 190.726,226.800 192.932,226.800 192.661 C 226.800 192.559,225.945 191.979,224.900 191.372 C 223.855 190.765,222.550 190.006,222.000 189.686 L 221.000 189.105 221.899 189.853 M183.800 190.429 C 182.920 190.852,182.650 191.086,183.200 190.949 C 184.333 190.667,186.412 189.625,185.800 189.646 C 185.580 189.653,184.680 190.006,183.800 190.429 M193.281 191.409 C 192.802 192.394,192.494 193.200,192.597 193.200 C 192.868 193.200,194.484 189.951,194.303 189.770 C 194.219 189.686,193.759 190.424,193.281 191.409 M155.164 190.733 C 155.380 191.136,155.871 191.721,156.255 192.033 C 156.687 192.384,156.590 192.104,156.001 191.300 C 154.951 189.865,154.557 189.598,155.164 190.733 M170.800 190.333 C 171.130 190.536,171.850 190.824,172.400 190.971 C 173.095 191.157,173.217 191.125,172.800 190.867 C 172.470 190.664,171.750 190.376,171.200 190.229 C 170.505 190.043,170.383 190.075,170.800 190.333 M191.400 191.200 C 191.059 191.860,190.869 192.400,190.979 192.400 C 191.089 192.400,191.459 191.860,191.800 191.200 C 192.141 190.540,192.331 190.000,192.221 190.000 C 192.111 190.000,191.741 190.540,191.400 191.200 M185.200 191.800 C 184.650 192.114,184.380 192.372,184.600 192.372 C 184.820 192.372,185.450 192.114,186.000 191.800 C 186.550 191.486,186.820 191.228,186.600 191.228 C 186.380 191.228,185.750 191.486,185.200 191.800 M176.700 191.882 C 177.195 191.978,178.005 191.978,178.500 191.882 C 178.995 191.787,178.590 191.709,177.600 191.709 C 176.610 191.709,176.205 191.787,176.700 191.882 M158.600 194.800 C 159.683 195.900,160.660 196.800,160.770 196.800 C 160.880 196.800,160.083 195.900,159.000 194.800 C 157.917 193.700,156.940 192.800,156.830 192.800 C 156.720 192.800,157.517 193.700,158.600 194.800 M188.449 195.234 C 187.267 196.563,185.332 198.196,184.149 198.863 C 181.616 200.293,181.272 200.788,183.657 199.571 C 185.444 198.659,188.782 195.711,190.062 193.912 C 191.284 192.197,190.801 192.593,188.449 195.234 M176.291 193.489 C 177.001 193.577,178.261 193.579,179.091 193.492 C 179.921 193.405,179.340 193.333,177.800 193.331 C 176.260 193.329,175.581 193.400,176.291 193.489 M228.000 193.379 C 228.000 193.489,228.540 193.859,229.200 194.200 C 229.860 194.541,230.400 194.731,230.400 194.621 C 230.400 194.511,229.860 194.141,229.200 193.800 C 228.540 193.459,228.000 193.269,228.000 193.379 M190.975 195.068 C 190.359 195.876,190.059 196.411,190.309 196.256 C 190.821 195.940,192.553 193.600,192.275 193.600 C 192.176 193.600,191.591 194.261,190.975 195.068 M20.901 195.400 C 20.905 196.280,20.987 196.593,21.083 196.095 C 21.179 195.598,21.175 194.878,21.075 194.495 C 20.975 194.113,20.896 194.520,20.901 195.400 M37.693 195.200 C 37.693 195.970,37.775 196.285,37.876 195.900 C 37.976 195.515,37.976 194.885,37.876 194.500 C 37.775 194.115,37.693 194.430,37.693 195.200 M38.277 201.000 C 38.398 202.760,38.565 204.275,38.649 204.367 C 38.919 204.664,38.750 201.450,38.399 199.600 C 38.142 198.247,38.112 198.594,38.277 201.000 M185.709 199.921 C 184.559 200.707,183.691 201.424,183.781 201.514 C 183.976 201.710,187.455 199.358,187.803 198.795 C 188.128 198.269,188.115 198.276,185.709 199.921 M21.293 200.400 C 21.293 201.170,21.375 201.485,21.476 201.100 C 21.576 200.715,21.576 200.085,21.476 199.700 C 21.375 199.315,21.293 199.630,21.293 200.400 M164.800 199.431 C 164.800 199.701,166.878 200.456,167.076 200.257 C 167.167 200.167,166.692 199.901,166.020 199.667 C 165.349 199.433,164.800 199.327,164.800 199.431 M178.959 201.045 C 178.716 201.145,177.096 201.392,175.359 201.594 L 172.200 201.960 175.413 201.799 C 178.032 201.668,182.086 200.835,180.000 200.857 C 179.670 200.860,179.201 200.945,178.959 201.045 M177.800 203.085 C 176.592 203.376,176.261 203.861,177.061 204.168 C 177.454 204.319,177.630 204.298,177.452 204.121 C 177.274 203.945,177.819 203.589,178.664 203.331 C 180.137 202.881,179.456 202.687,177.800 203.085 M21.600 205.224 C 21.600 205.937,21.767 206.344,22.000 206.200 C 22.220 206.064,22.400 205.513,22.400 204.976 C 22.400 204.439,22.220 204.000,22.000 204.000 C 21.780 204.000,21.600 204.551,21.600 205.224 M38.893 206.000 C 38.893 206.770,38.975 207.085,39.076 206.700 C 39.176 206.315,39.176 205.685,39.076 205.300 C 38.975 204.915,38.893 205.230,38.893 206.000 M178.800 204.979 C 178.800 205.089,179.340 205.459,180.000 205.800 C 180.660 206.141,181.200 206.331,181.200 206.221 C 181.200 206.111,180.660 205.741,180.000 205.400 C 179.340 205.059,178.800 204.869,178.800 204.979 M181.600 206.579 C 181.600 206.689,182.140 207.059,182.800 207.400 C 183.460 207.741,184.000 207.931,184.000 207.821 C 184.000 207.711,183.460 207.341,182.800 207.000 C 182.140 206.659,181.600 206.469,181.600 206.579 M22.298 208.900 C 22.195 209.175,22.253 209.760,22.427 210.200 C 22.685 210.851,22.749 210.759,22.772 209.700 C 22.801 208.348,22.620 208.042,22.298 208.900 M188.000 210.179 C 188.000 210.289,188.540 210.659,189.200 211.000 C 189.860 211.341,190.400 211.531,190.400 211.421 C 190.400 211.311,189.860 210.941,189.200 210.600 C 188.540 210.259,188.000 210.069,188.000 210.179 M191.400 212.211 C 191.840 212.569,192.740 213.126,193.400 213.450 C 194.522 214.001,194.548 213.997,193.800 213.389 C 193.360 213.031,192.460 212.474,191.800 212.150 C 190.678 211.599,190.652 211.603,191.400 212.211 M22.893 213.600 C 22.893 214.370,22.975 214.685,23.076 214.300 C 23.176 213.915,23.176 213.285,23.076 212.900 C 22.975 212.515,22.893 212.830,22.893 213.600 M40.101 215.400 C 40.105 216.280,40.187 216.593,40.283 216.095 C 40.379 215.598,40.375 214.878,40.275 214.495 C 40.175 214.113,40.096 214.520,40.101 215.400 M195.200 214.420 C 196.672 215.419,197.413 215.657,196.456 214.823 C 195.936 214.370,195.306 214.003,195.056 214.006 C 194.805 214.009,194.870 214.196,195.200 214.420 M23.293 217.600 C 23.293 218.370,23.375 218.685,23.476 218.300 C 23.576 217.915,23.576 217.285,23.476 216.900 C 23.375 216.515,23.293 216.830,23.293 217.600 M40.493 218.400 C 40.493 219.170,40.575 219.485,40.676 219.100 C 40.776 218.715,40.776 218.085,40.676 217.700 C 40.575 217.315,40.493 217.630,40.493 218.400 M23.600 221.400 C 23.600 221.950,23.780 222.400,24.000 222.400 C 24.220 222.400,24.400 221.950,24.400 221.400 C 24.400 220.850,24.220 220.400,24.000 220.400 C 23.780 220.400,23.600 220.850,23.600 221.400 M24.000 225.000 C 24.000 225.550,24.180 226.000,24.400 226.000 C 24.620 226.000,24.800 225.550,24.800 225.000 C 24.800 224.450,24.620 224.000,24.400 224.000 C 24.180 224.000,24.000 224.450,24.000 225.000 M283.131 227.148 C 284.523 228.497,285.749 229.600,285.855 229.600 C 286.284 229.600,285.478 228.777,283.102 226.790 L 280.600 224.697 283.131 227.148 M41.872 228.200 C 41.999 229.300,42.169 230.275,42.251 230.367 C 42.532 230.682,42.320 228.199,41.980 227.200 C 41.751 226.526,41.716 226.851,41.872 228.200 M287.808 232.100 C 288.667 233.145,289.434 234.000,289.512 234.000 C 289.798 234.000,288.061 231.778,287.166 231.000 C 286.660 230.560,286.949 231.055,287.808 232.100 M25.600 234.800 C 25.600 235.240,25.780 235.600,26.000 235.600 C 26.220 235.600,26.400 235.240,26.400 234.800 C 26.400 234.360,26.220 234.000,26.000 234.000 C 25.780 234.000,25.600 234.360,25.600 234.800 M290.349 235.400 C 290.565 235.840,291.034 236.560,291.393 237.000 L 292.044 237.800 291.651 237.000 C 291.435 236.560,290.966 235.840,290.607 235.400 L 289.956 234.600 290.349 235.400 M292.268 238.706 C 292.394 239.205,292.655 239.710,292.848 239.830 C 293.396 240.168,293.262 239.436,292.620 238.576 C 292.060 237.827,292.048 237.832,292.268 238.706 M293.646 241.400 C 293.653 241.620,294.006 242.520,294.429 243.400 C 294.852 244.280,295.086 244.550,294.949 244.000 C 294.667 242.867,293.625 240.788,293.646 241.400 M27.200 243.600 C 27.200 244.347,27.307 244.453,27.680 244.080 C 28.053 243.707,28.053 243.493,27.680 243.120 C 27.307 242.747,27.200 242.853,27.200 243.600 M246.800 243.779 C 246.800 243.889,247.340 244.259,248.000 244.600 C 248.660 244.941,249.200 245.131,249.200 245.021 C 249.200 244.911,248.660 244.541,248.000 244.200 C 247.340 243.859,246.800 243.669,246.800 243.779 M27.600 246.400 C 27.600 246.840,27.780 247.200,28.000 247.200 C 28.220 247.200,28.400 246.840,28.400 246.400 C 28.400 245.960,28.220 245.600,28.000 245.600 C 27.780 245.600,27.600 245.960,27.600 246.400 M250.400 245.779 C 250.400 245.889,250.940 246.259,251.600 246.600 C 252.260 246.941,252.800 247.131,252.800 247.021 C 252.800 246.911,252.260 246.541,251.600 246.200 C 250.940 245.859,250.400 245.669,250.400 245.779 M45.462 248.200 C 45.596 249.080,45.772 249.875,45.853 249.967 C 46.156 250.310,45.929 248.168,45.581 247.400 C 45.329 246.842,45.293 247.085,45.462 248.200 M295.643 247.000 C 295.638 247.220,295.892 248.480,296.206 249.800 C 296.761 252.127,296.771 252.141,296.557 250.247 C 296.357 248.486,295.662 246.018,295.643 247.000 M253.800 247.810 C 255.015 248.795,256.155 249.374,255.823 248.837 C 255.672 248.594,254.976 248.117,254.275 247.778 C 253.091 247.206,253.057 247.208,253.800 247.810 M257.397 250.401 C 259.293 252.618,259.320 252.642,258.886 251.800 C 258.659 251.360,257.962 250.551,257.337 250.001 L 256.200 249.003 257.397 250.401 M238.800 252.033 L 237.800 252.848 239.100 252.214 L 240.400 251.579 240.400 261.766 C 240.400 271.887,240.570 273.195,241.735 272.021 C 242.090 271.664,242.034 271.616,241.500 271.819 C 240.844 272.069,240.800 271.423,240.800 261.643 C 240.800 250.426,240.796 250.406,238.800 252.033 M236.300 253.429 C 234.805 254.240,234.896 254.578,236.400 253.800 C 237.060 253.459,237.600 253.094,237.600 252.990 C 237.600 252.732,237.557 252.747,236.300 253.429 M29.200 254.000 C 29.200 254.440,29.380 254.800,29.600 254.800 C 29.820 254.800,30.000 254.440,30.000 254.000 C 30.000 253.560,29.820 253.200,29.600 253.200 C 29.380 253.200,29.200 253.560,29.200 254.000 M232.697 255.566 C 231.053 256.619,230.825 256.991,232.275 256.254 C 232.976 255.897,233.661 255.424,233.798 255.203 C 234.119 254.684,234.023 254.715,232.697 255.566 M260.109 256.400 C 260.109 257.390,260.187 257.795,260.282 257.300 C 260.378 256.805,260.378 255.995,260.282 255.500 C 260.187 255.005,260.109 255.410,260.109 256.400 M29.600 256.353 C 29.600 256.793,29.780 257.264,30.000 257.400 C 30.220 257.536,30.400 257.287,30.400 256.847 C 30.400 256.407,30.220 255.936,30.000 255.800 C 29.780 255.664,29.600 255.913,29.600 256.353 M297.334 258.800 C 297.334 260.450,297.405 261.125,297.491 260.300 C 297.578 259.475,297.578 258.125,297.491 257.300 C 297.405 256.475,297.334 257.150,297.334 258.800 M47.268 256.800 C 47.288 257.839,47.918 259.546,47.932 258.600 C 47.938 258.160,47.789 257.440,47.600 257.000 C 47.389 256.510,47.261 256.432,47.268 256.800 M229.500 257.429 C 228.005 258.240,228.096 258.578,229.600 257.800 C 230.260 257.459,230.800 257.094,230.800 256.990 C 230.800 256.732,230.757 256.747,229.500 257.429 M226.296 259.350 C 224.139 260.676,223.921 261.039,225.873 260.055 C 226.793 259.591,227.659 259.029,227.796 258.806 C 228.142 258.247,228.014 258.293,226.296 259.350 M220.100 263.026 C 219.165 263.587,218.400 264.140,218.400 264.255 C 218.400 264.471,221.099 262.938,221.780 262.336 C 222.467 261.728,221.827 261.991,220.100 263.026 M256.162 263.262 L 255.400 264.124 256.500 263.416 C 257.634 262.686,257.849 262.400,257.262 262.400 C 257.076 262.400,256.581 262.788,256.162 263.262 M31.200 263.400 C 31.200 263.730,31.380 264.000,31.600 264.000 C 31.820 264.000,32.000 263.730,32.000 263.400 C 32.000 263.070,31.820 262.800,31.600 262.800 C 31.380 262.800,31.200 263.070,31.200 263.400 M296.455 265.700 C 295.614 269.439,295.567 269.844,296.143 268.380 C 296.734 266.881,297.390 263.600,297.099 263.600 C 297.004 263.600,296.715 264.545,296.455 265.700 M253.900 264.629 C 252.405 265.440,252.496 265.778,254.000 265.000 C 254.660 264.659,255.200 264.294,255.200 264.190 C 255.200 263.932,255.157 263.947,253.900 264.629 M216.700 265.029 C 215.205 265.840,215.296 266.178,216.800 265.400 C 217.460 265.059,218.000 264.694,218.000 264.590 C 218.000 264.332,217.957 264.347,216.700 265.029 M49.268 265.200 C 49.288 266.239,49.918 267.946,49.932 267.000 C 49.938 266.560,49.789 265.840,49.600 265.400 C 49.389 264.910,49.261 264.832,49.268 265.200 M250.200 266.800 C 249.540 267.237,249.180 267.592,249.400 267.588 C 249.801 267.582,251.976 266.023,251.600 266.012 C 251.490 266.008,250.860 266.363,250.200 266.800 M210.900 268.446 C 209.537 269.319,209.095 269.906,210.300 269.243 C 211.218 268.739,212.656 267.627,212.400 267.619 C 212.290 267.616,211.615 267.988,210.900 268.446 M247.096 268.550 C 245.175 269.731,244.638 270.289,246.200 269.481 C 247.454 268.833,249.145 267.626,248.800 267.625 C 248.690 267.625,247.923 268.041,247.096 268.550 M207.700 270.396 L 206.400 271.188 206.400 301.394 C 206.400 318.007,206.546 331.600,206.724 331.600 C 206.901 331.600,207.396 331.320,207.824 330.978 C 208.569 330.381,208.564 330.373,207.700 330.792 L 206.800 331.228 206.800 301.224 L 206.800 271.221 208.000 270.600 C 208.660 270.259,209.200 269.894,209.200 269.790 C 209.200 269.501,209.101 269.541,207.700 270.396 M33.200 271.776 C 33.200 272.093,33.380 272.464,33.600 272.600 C 33.820 272.736,34.000 272.477,34.000 272.024 C 34.000 271.571,33.820 271.200,33.600 271.200 C 33.380 271.200,33.200 271.459,33.200 271.776 M293.271 274.509 C 292.347 276.319,291.877 277.440,292.228 277.000 C 293.053 275.964,295.298 271.565,295.102 271.369 C 295.019 271.286,294.195 272.699,293.271 274.509 M51.444 273.600 C 51.580 274.370,51.854 275.270,52.051 275.600 C 52.477 276.310,52.068 274.237,51.539 273.000 C 51.308 272.460,51.277 272.656,51.444 273.600 M34.800 277.800 C 34.800 278.130,34.980 278.400,35.200 278.400 C 35.420 278.400,35.600 278.130,35.600 277.800 C 35.600 277.470,35.420 277.200,35.200 277.200 C 34.980 277.200,34.800 277.470,34.800 277.800 M35.378 279.235 C 35.231 279.474,35.310 279.870,35.555 280.115 C 35.882 280.442,36.000 280.326,36.000 279.680 C 36.000 278.714,35.792 278.565,35.378 279.235 M286.607 283.321 C 284.126 285.862,283.656 286.468,285.087 285.280 C 286.811 283.849,290.799 279.551,290.337 279.621 C 290.262 279.632,288.583 281.297,286.607 283.321 M280.420 288.431 C 277.752 290.384,277.385 290.762,279.130 289.762 C 280.459 289.001,283.178 286.831,282.800 286.834 C 282.690 286.835,281.619 287.553,280.420 288.431 M273.900 292.424 C 272.415 293.315,271.200 294.145,271.200 294.268 C 271.200 294.391,271.605 294.231,272.100 293.912 C 272.595 293.593,273.855 292.835,274.900 292.228 C 276.509 291.293,277.141 290.793,276.700 290.802 C 276.645 290.803,275.385 291.533,273.900 292.424 M269.097 295.166 C 267.498 296.191,267.203 296.606,268.600 295.866 C 270.276 294.977,271.071 294.408,270.600 294.435 C 270.380 294.448,269.704 294.777,269.097 295.166 M265.900 297.029 C 264.405 297.840,264.496 298.178,266.000 297.400 C 266.660 297.059,267.200 296.694,267.200 296.590 C 267.200 296.332,267.157 296.347,265.900 297.029 M262.900 298.796 C 262.185 299.232,261.600 299.675,261.600 299.781 C 261.600 299.886,262.230 299.601,263.000 299.147 C 263.770 298.693,264.400 298.249,264.400 298.160 C 264.400 297.905,264.274 297.958,262.900 298.796 M259.300 300.846 C 258.585 301.304,258.000 301.756,258.000 301.850 C 258.000 302.027,259.757 301.131,260.800 300.421 C 261.956 299.634,260.587 300.022,259.300 300.846 M249.700 306.396 C 248.985 306.832,248.400 307.275,248.400 307.381 C 248.400 307.486,249.030 307.201,249.800 306.747 C 250.570 306.293,251.200 305.849,251.200 305.760 C 251.200 305.505,251.074 305.558,249.700 306.396 M246.297 308.366 C 244.698 309.391,244.403 309.806,245.800 309.066 C 247.476 308.177,248.271 307.608,247.800 307.635 C 247.580 307.648,246.904 307.977,246.297 308.366 M64.028 309.400 C 64.028 309.620,64.286 310.250,64.600 310.800 C 64.914 311.350,65.172 311.620,65.172 311.400 C 65.172 311.180,64.914 310.550,64.600 310.000 C 64.286 309.450,64.028 309.180,64.028 309.400 M243.100 310.229 C 241.605 311.040,241.696 311.378,243.200 310.600 C 243.860 310.259,244.400 309.894,244.400 309.790 C 244.400 309.532,244.357 309.547,243.100 310.229 M240.300 311.829 C 238.805 312.640,238.896 312.978,240.400 312.200 C 241.060 311.859,241.600 311.494,241.600 311.390 C 241.600 311.132,241.557 311.147,240.300 311.829 M65.600 312.949 C 65.600 313.381,67.189 316.400,67.416 316.400 C 67.526 316.400,67.230 315.635,66.759 314.700 C 65.832 312.861,65.600 312.511,65.600 312.949 M236.900 313.826 C 235.012 314.958,234.577 315.549,236.300 314.641 C 237.509 314.003,239.116 312.831,238.800 312.817 C 238.690 312.812,237.835 313.266,236.900 313.826 M233.200 316.036 C 232.536 316.579,232.469 316.715,233.000 316.440 C 234.305 315.766,235.028 315.212,234.600 315.215 C 234.380 315.217,233.750 315.586,233.200 316.036 M67.600 316.953 C 67.600 317.382,68.790 319.600,69.021 319.600 C 69.131 319.600,68.923 319.015,68.559 318.300 C 67.817 316.840,67.600 316.536,67.600 316.953 M227.100 319.429 C 225.605 320.240,225.696 320.578,227.200 319.800 C 227.860 319.459,228.400 319.094,228.400 318.990 C 228.400 318.732,228.357 318.747,227.100 319.429 M50.013 320.300 C 50.020 320.465,50.314 320.960,50.667 321.400 C 51.230 322.103,51.277 322.111,51.054 321.467 C 50.914 321.064,50.800 320.569,50.800 320.367 C 50.800 320.165,50.620 320.000,50.400 320.000 C 50.180 320.000,50.006 320.135,50.013 320.300 M224.100 321.196 C 222.760 322.013,222.253 322.729,223.500 322.043 C 224.429 321.533,225.852 320.428,225.600 320.414 C 225.490 320.408,224.815 320.760,224.100 321.196 M220.300 323.429 C 218.805 324.240,218.896 324.578,220.400 323.800 C 221.060 323.459,221.600 323.094,221.600 322.990 C 221.600 322.732,221.557 322.747,220.300 323.429 M71.324 324.200 C 71.662 324.860,72.238 325.760,72.604 326.200 C 72.970 326.640,72.865 326.280,72.370 325.400 C 71.280 323.458,70.464 322.522,71.324 324.200 M217.500 325.029 C 216.005 325.840,216.096 326.178,217.600 325.400 C 218.260 325.059,218.800 324.694,218.800 324.590 C 218.800 324.332,218.757 324.347,217.500 325.029 M73.800 328.400 C 74.141 329.060,74.511 329.600,74.621 329.600 C 74.731 329.600,74.541 329.060,74.200 328.400 C 73.859 327.740,73.489 327.200,73.379 327.200 C 73.269 327.200,73.459 327.740,73.800 328.400 M54.311 328.774 C 54.682 329.420,55.040 329.893,55.107 329.826 C 55.324 329.609,54.283 327.600,53.954 327.600 C 53.780 327.600,53.940 328.128,54.311 328.774 M210.900 328.846 C 209.095 330.002,209.263 330.268,211.100 329.163 C 212.960 328.045,213.018 327.998,212.567 328.007 C 212.365 328.010,211.615 328.388,210.900 328.846 M78.386 335.380 C 79.059 336.358,79.801 337.277,80.034 337.421 C 80.268 337.565,79.799 336.765,78.992 335.642 C 77.190 333.134,76.693 332.919,78.386 335.380 M81.191 339.188 C 81.657 339.841,82.242 340.502,82.491 340.656 C 82.741 340.811,82.441 340.276,81.825 339.468 C 80.488 337.715,79.984 337.492,81.191 339.188 M60.344 339.259 C 60.527 339.754,60.889 340.200,61.148 340.249 C 61.408 340.299,61.436 340.249,61.210 340.137 C 60.985 340.025,60.800 339.689,60.800 339.390 C 60.800 339.092,60.622 338.737,60.405 338.603 C 60.155 338.449,60.132 338.688,60.344 339.259 M64.962 346.342 C 65.809 347.295,66.000 347.382,66.000 346.814 C 66.000 346.602,65.595 346.216,65.100 345.956 C 64.205 345.486,64.204 345.488,64.962 346.342 M94.415 355.786 C 95.773 357.429,97.175 359.004,97.529 359.286 C 97.883 359.569,96.855 358.225,95.244 356.300 C 93.632 354.375,92.231 352.800,92.129 352.800 C 92.028 352.800,93.056 354.144,94.415 355.786 M70.800 353.914 C 70.800 354.113,71.186 354.619,71.658 355.038 C 72.510 355.795,72.513 355.794,72.056 354.922 C 71.546 353.950,70.800 353.351,70.800 353.914 M99.817 362.200 C 102.414 365.436,102.403 365.423,102.384 364.980 C 102.376 364.771,101.361 363.520,100.130 362.200 L 97.890 359.800 99.817 362.200 M76.795 361.591 C 77.028 362.026,77.617 362.595,78.105 362.856 C 78.818 363.238,78.758 363.084,77.797 362.065 C 76.409 360.595,76.212 360.501,76.795 361.591 M78.800 363.947 C 78.800 364.117,79.250 364.647,79.800 365.125 C 80.350 365.603,80.800 365.882,80.800 365.743 C 80.800 365.605,80.350 365.075,79.800 364.565 C 79.250 364.055,78.800 363.777,78.800 363.947 M81.247 367.220 C 81.938 368.261,82.918 368.774,82.593 367.925 C 82.478 367.627,81.989 367.136,81.505 366.834 C 80.646 366.297,80.640 366.306,81.247 367.220 M106.000 369.400 C 106.746 370.170,107.447 370.800,107.557 370.800 C 107.667 370.800,107.146 370.170,106.400 369.400 C 105.654 368.630,104.953 368.000,104.843 368.000 C 104.733 368.000,105.254 368.630,106.000 369.400 M108.800 372.600 C 109.546 373.370,110.247 374.000,110.357 374.000 C 110.467 374.000,109.946 373.370,109.200 372.600 C 108.454 371.830,107.753 371.200,107.643 371.200 C 107.533 371.200,108.054 371.830,108.800 372.600 M86.324 373.033 C 86.801 373.952,87.930 375.003,88.176 374.757 C 88.263 374.671,87.784 374.060,87.112 373.400 C 86.240 372.543,86.015 372.438,86.324 373.033 M112.200 376.400 C 113.059 377.280,113.852 378.000,113.962 378.000 C 114.072 378.000,113.459 377.280,112.600 376.400 C 111.741 375.520,110.948 374.800,110.838 374.800 C 110.728 374.800,111.341 375.520,112.200 376.400 M88.800 376.138 C 88.800 376.200,89.365 376.779,90.055 377.425 C 91.305 378.595,91.307 378.595,90.631 377.534 C 90.079 376.666,88.800 375.691,88.800 376.138 M116.615 381.212 C 117.927 382.649,119.082 383.767,119.181 383.698 C 119.281 383.628,118.208 382.452,116.797 381.085 L 114.231 378.600 116.615 381.212 M92.315 380.180 C 92.818 380.821,93.617 381.617,94.091 381.948 L 94.952 382.552 94.199 381.553 C 93.784 381.004,92.985 380.208,92.423 379.785 L 91.400 379.015 92.315 380.180 M95.810 383.963 C 97.087 385.520,98.400 386.787,98.400 386.463 C 98.400 386.298,97.640 385.451,96.710 384.581 C 95.781 383.712,95.376 383.433,95.810 383.963 M130.600 395.600 C 135.656 400.660,139.883 404.800,139.993 404.800 C 140.103 404.800,136.056 400.660,131.000 395.600 C 125.944 390.540,121.717 386.400,121.607 386.400 C 121.497 386.400,125.544 390.540,130.600 395.600 M99.606 388.283 C 99.613 388.677,104.000 392.997,104.000 392.611 C 104.000 392.457,103.010 391.348,101.800 390.148 C 100.590 388.948,99.603 388.108,99.606 388.283 M107.834 397.300 C 110.362 399.972,112.800 402.214,112.800 401.868 C 112.800 401.576,105.999 394.800,105.705 394.800 C 105.575 394.800,106.532 395.925,107.834 397.300 M140.433 405.320 C 140.525 405.387,141.770 406.506,143.200 407.807 L 145.800 410.173 143.413 407.686 C 142.099 406.319,140.854 405.200,140.646 405.200 C 140.437 405.200,140.342 405.254,140.433 405.320 M146.434 410.700 C 146.452 410.865,147.217 411.622,148.134 412.382 L 149.800 413.763 148.219 412.082 C 146.593 410.352,146.376 410.184,146.434 410.700 M125.200 414.576 C 127.401 416.944,129.885 419.277,130.714 419.756 C 131.423 420.166,125.353 414.096,124.178 413.220 C 123.750 412.901,124.210 413.512,125.200 414.576 M150.725 414.482 C 151.373 415.296,158.400 421.329,158.400 421.070 C 158.400 420.967,156.555 419.295,154.300 417.353 C 152.045 415.411,150.436 414.119,150.725 414.482 M133.207 421.917 C 133.214 422.239,135.941 424.927,136.700 425.361 C 137.669 425.915,137.179 425.300,135.200 423.477 C 134.100 422.464,133.203 421.762,133.207 421.917 M138.941 427.237 C 139.263 427.697,139.948 428.355,140.463 428.700 C 141.082 429.114,140.932 428.830,140.022 427.863 C 138.477 426.224,138.063 425.984,138.941 427.237 M165.763 427.141 C 166.086 427.663,170.800 431.331,170.800 431.060 C 170.800 430.957,169.606 429.934,168.146 428.787 C 166.686 427.640,165.614 426.899,165.763 427.141 M143.800 431.600 C 144.432 432.260,145.094 432.800,145.271 432.800 C 145.448 432.800,145.028 432.260,144.337 431.600 C 143.646 430.940,142.984 430.400,142.866 430.400 C 142.747 430.400,143.168 430.940,143.800 431.600 M172.944 432.709 C 173.260 433.221,175.600 434.953,175.600 434.675 C 175.600 434.576,174.939 433.991,174.132 433.375 C 173.324 432.759,172.789 432.459,172.944 432.709 M147.179 434.578 C 148.320 435.792,148.574 435.873,148.025 434.847 C 147.804 434.433,147.306 433.973,146.921 433.825 C 146.398 433.624,146.463 433.816,147.179 434.578 M149.860 436.611 C 149.989 436.947,150.478 437.422,150.947 437.665 C 151.732 438.073,151.722 438.024,150.830 437.054 C 149.715 435.842,149.532 435.758,149.860 436.611 M177.600 436.146 C 177.600 436.256,178.140 436.730,178.800 437.200 C 179.460 437.670,180.000 437.964,180.000 437.854 C 180.000 437.744,179.460 437.270,178.800 436.800 C 178.140 436.330,177.600 436.036,177.600 436.146 M180.400 438.146 C 180.400 438.256,180.940 438.730,181.600 439.200 C 182.260 439.670,182.800 439.964,182.800 439.854 C 182.800 439.744,182.260 439.270,181.600 438.800 C 180.940 438.330,180.400 438.036,180.400 438.146 M152.400 438.754 C 152.400 438.949,152.873 439.418,153.451 439.796 L 154.501 440.485 153.751 439.455 C 152.991 438.413,152.400 438.106,152.400 438.754 M183.200 440.182 C 183.200 440.285,184.235 441.066,185.500 441.915 C 188.301 443.798,188.800 444.095,188.800 443.882 C 188.800 443.792,187.540 442.880,186.000 441.855 C 184.460 440.831,183.200 440.078,183.200 440.182 M158.400 443.564 C 158.950 444.014,159.580 444.383,159.800 444.385 C 160.228 444.388,159.505 443.834,158.200 443.160 C 157.669 442.885,157.736 443.021,158.400 443.564 M189.401 444.402 C 189.669 444.836,192.000 446.134,192.000 445.850 C 192.000 445.756,191.359 445.301,190.576 444.839 C 189.793 444.377,189.264 444.180,189.401 444.402 M160.811 445.477 C 161.355 445.849,161.890 446.254,162.000 446.377 C 163.022 447.517,165.623 449.190,165.228 448.453 C 164.977 447.984,164.598 447.600,164.386 447.600 C 164.174 447.600,163.682 447.285,163.293 446.900 C 162.442 446.057,160.546 444.800,160.125 444.800 C 159.958 444.800,160.267 445.105,160.811 445.477 M195.400 448.207 C 195.840 448.566,196.560 449.035,197.000 449.251 L 197.800 449.644 197.000 448.993 C 196.560 448.634,195.840 448.165,195.400 447.949 L 194.600 447.556 195.400 448.207 M171.451 453.389 C 171.567 453.691,171.909 454.033,172.211 454.149 C 172.557 454.282,172.682 454.157,172.549 453.811 C 172.433 453.509,172.091 453.167,171.789 453.051 C 171.443 452.918,171.318 453.043,171.451 453.389 M184.600 462.078 C 185.040 462.327,185.532 462.727,185.694 462.966 C 185.896 463.265,185.990 463.249,185.994 462.914 C 185.997 462.647,185.652 462.242,185.226 462.014 C 184.174 461.451,183.597 461.509,184.600 462.078 M187.144 463.613 C 187.664 464.046,188.294 464.388,188.544 464.373 C 188.795 464.358,188.595 464.151,188.100 463.912 C 187.605 463.673,187.200 463.325,187.200 463.139 C 187.200 462.952,186.975 462.806,186.700 462.813 C 186.425 462.821,186.625 463.181,187.144 463.613 M194.800 467.792 C 194.800 467.874,195.340 468.211,196.000 468.540 C 196.660 468.869,197.200 468.990,197.200 468.808 C 197.200 468.627,196.660 468.290,196.000 468.060 C 195.340 467.830,194.800 467.709,194.800 467.792 " stroke="none" fill="#32c428" fill-rule="evenodd"></path></g></svg>