<svg id="svg" version="1.1" xmlns="http://www.w3.org/2000/svg" xmlns:xlink="http://www.w3.org/1999/xlink" width="400" height="139.64757709251103" viewBox="0, 0, 400,139.64757709251103"><g id="svgg"><path id="path0" d="M56.564 4.971 C 56.375 5.125,56.053 5.495,55.847 5.794 C 55.642 6.093,55.404 6.294,55.318 6.241 C 55.232 6.187,54.877 6.449,54.530 6.822 C 54.182 7.195,53.775 7.500,53.625 7.500 C 53.475 7.500,53.242 7.657,53.107 7.850 C 52.836 8.237,51.667 9.082,51.667 8.891 C 51.667 8.824,51.557 8.915,51.422 9.093 C 51.287 9.271,51.175 9.364,51.172 9.299 C 51.169 9.235,50.979 9.370,50.749 9.600 C 50.519 9.830,50.252 9.970,50.157 9.911 C 50.061 9.851,49.799 10.002,49.574 10.244 C 49.349 10.487,49.091 10.639,48.999 10.583 C 48.908 10.526,48.833 10.563,48.833 10.665 C 48.833 10.874,47.820 11.345,47.627 11.225 C 47.557 11.182,47.500 11.231,47.500 11.333 C 47.500 11.436,47.424 11.473,47.332 11.416 C 47.240 11.359,47.119 11.429,47.065 11.572 C 47.010 11.715,46.898 11.790,46.816 11.739 C 46.734 11.688,46.667 11.731,46.667 11.833 C 46.667 11.936,46.592 11.973,46.500 11.917 C 46.408 11.860,46.333 11.898,46.333 12.000 C 46.333 12.102,46.258 12.140,46.167 12.083 C 46.075 12.027,46.000 12.066,46.000 12.171 C 46.000 12.275,45.906 12.328,45.792 12.288 C 45.677 12.247,45.396 12.342,45.167 12.498 C 44.531 12.931,42.871 13.649,42.761 13.539 C 42.707 13.485,42.364 13.609,41.999 13.814 C 41.634 14.019,41.259 14.141,41.167 14.084 C 41.075 14.027,41.000 14.064,41.000 14.167 C 41.000 14.269,40.925 14.307,40.833 14.250 C 40.742 14.193,40.667 14.234,40.667 14.341 C 40.667 14.448,40.554 14.492,40.417 14.440 C 40.279 14.387,40.167 14.424,40.167 14.523 C 40.167 14.622,40.054 14.659,39.917 14.606 C 39.779 14.554,39.667 14.589,39.667 14.686 C 39.667 14.782,39.573 14.829,39.458 14.790 C 39.344 14.751,38.737 14.892,38.110 15.104 C 37.483 15.317,36.921 15.480,36.860 15.468 C 36.800 15.456,36.525 15.539,36.250 15.653 C 35.975 15.767,35.507 15.873,35.209 15.888 C 34.912 15.904,34.668 15.973,34.667 16.042 C 34.667 16.110,34.587 16.167,34.490 16.167 C 34.393 16.167,34.367 16.080,34.433 15.974 C 34.511 15.847,34.478 15.827,34.333 15.917 C 34.213 15.991,33.958 16.075,33.766 16.103 C 33.574 16.132,33.088 16.235,32.686 16.333 C 32.285 16.431,31.917 16.472,31.868 16.424 C 31.820 16.376,31.699 16.404,31.599 16.486 C 30.945 17.026,21.252 17.443,17.167 17.108 C 14.605 16.897,13.759 16.807,13.636 16.731 C 13.562 16.685,13.135 16.617,12.687 16.579 C 12.239 16.541,11.545 16.427,11.145 16.326 C 10.744 16.224,10.098 16.128,9.709 16.112 C 9.319 16.096,9.000 16.018,9.000 15.939 C 9.000 15.859,8.852 15.833,8.671 15.880 C 8.360 15.962,7.210 15.776,6.667 15.557 C 5.644 15.144,5.547 15.282,5.423 17.333 C 5.375 18.112,5.290 19.462,5.233 20.333 C 4.999 23.889,5.117 44.130,5.393 47.885 C 5.540 49.884,5.647 51.572,5.632 51.635 C 5.617 51.698,5.655 52.050,5.717 52.417 C 5.780 52.783,5.871 53.712,5.919 54.481 C 5.968 55.250,6.044 55.937,6.088 56.008 C 6.132 56.079,6.207 56.988,6.255 58.027 C 6.303 59.066,6.377 60.142,6.421 60.417 C 6.465 60.692,6.532 61.233,6.571 61.620 C 6.610 62.007,6.682 62.391,6.733 62.472 C 6.783 62.554,6.871 63.062,6.927 63.602 C 7.049 64.776,7.108 65.163,7.329 66.227 C 7.421 66.672,7.456 67.104,7.405 67.185 C 7.355 67.267,7.370 67.425,7.439 67.537 C 7.509 67.649,7.559 68.005,7.551 68.329 C 7.543 68.652,7.602 68.998,7.683 69.098 C 7.763 69.197,7.859 69.572,7.895 69.931 C 7.932 70.290,8.001 70.696,8.049 70.833 C 8.263 71.442,8.507 72.715,8.426 72.797 C 8.376 72.846,8.410 72.975,8.501 73.085 C 8.592 73.194,8.711 73.688,8.766 74.183 C 8.892 75.317,8.929 75.524,9.058 75.833 C 9.116 75.971,9.182 76.271,9.206 76.500 C 9.230 76.729,9.301 76.955,9.362 77.002 C 9.424 77.049,9.499 77.312,9.529 77.585 C 9.559 77.859,9.639 78.125,9.708 78.176 C 9.776 78.227,9.865 78.602,9.906 79.009 C 9.946 79.417,10.133 80.190,10.321 80.728 C 10.509 81.266,10.625 81.766,10.580 81.839 C 10.535 81.912,10.571 81.997,10.661 82.027 C 10.750 82.058,10.844 82.271,10.870 82.500 C 10.896 82.729,10.977 82.961,11.050 83.015 C 11.123 83.069,11.189 83.294,11.197 83.515 C 11.204 83.736,11.317 84.163,11.449 84.465 C 11.581 84.766,11.699 85.160,11.713 85.340 C 11.727 85.520,11.782 85.667,11.835 85.667 C 11.953 85.667,12.325 86.663,12.436 87.277 C 12.480 87.520,12.590 87.857,12.680 88.026 C 12.771 88.195,12.786 88.334,12.714 88.336 C 12.642 88.337,12.670 88.394,12.775 88.461 C 12.880 88.528,12.993 88.733,13.025 88.917 C 13.057 89.100,13.178 89.350,13.293 89.472 C 13.409 89.594,13.464 89.756,13.417 89.833 C 13.370 89.909,13.406 89.997,13.498 90.027 C 13.589 90.058,13.681 90.290,13.702 90.542 C 13.722 90.794,13.793 91.000,13.858 91.000 C 13.989 91.000,14.252 91.675,14.200 91.875 C 14.182 91.944,14.233 92.000,14.313 92.000 C 14.481 92.000,14.936 93.010,14.866 93.229 C 14.840 93.309,14.947 93.516,15.102 93.688 C 15.258 93.859,15.333 94.000,15.269 94.000 C 15.206 94.000,15.307 94.164,15.494 94.365 C 15.807 94.702,15.858 94.817,15.819 95.106 C 15.811 95.165,15.899 95.271,16.015 95.343 C 16.131 95.414,16.251 95.640,16.282 95.845 C 16.313 96.050,16.469 96.324,16.628 96.454 C 16.804 96.599,16.820 96.643,16.667 96.567 C 16.529 96.498,16.622 96.652,16.872 96.908 C 17.123 97.164,17.287 97.440,17.238 97.520 C 17.188 97.601,17.239 97.667,17.351 97.667 C 17.464 97.667,17.510 97.712,17.454 97.768 C 17.399 97.823,17.499 98.025,17.677 98.216 C 17.855 98.407,18.000 98.659,18.000 98.776 C 18.000 98.893,18.152 99.070,18.338 99.169 C 18.524 99.269,18.629 99.427,18.571 99.521 C 18.513 99.614,18.697 99.883,18.979 100.117 C 19.262 100.351,19.453 100.608,19.403 100.688 C 19.354 100.768,19.395 100.833,19.495 100.833 C 19.595 100.833,19.723 100.954,19.780 101.101 C 19.836 101.248,20.129 101.638,20.430 101.966 C 20.732 102.295,21.077 102.754,21.197 102.986 C 21.318 103.218,21.663 103.626,21.964 103.893 C 22.265 104.159,22.474 104.415,22.428 104.461 C 22.296 104.593,22.668 105.185,22.823 105.090 C 22.899 105.042,23.055 105.115,23.168 105.252 C 23.281 105.388,23.313 105.500,23.239 105.500 C 23.164 105.500,23.249 105.610,23.426 105.745 C 23.604 105.879,23.682 105.992,23.598 105.995 C 23.515 105.998,23.721 106.235,24.056 106.521 C 24.392 106.808,24.667 107.116,24.667 107.206 C 24.667 107.295,24.858 107.519,25.092 107.703 C 25.326 107.887,25.487 108.068,25.450 108.106 C 25.413 108.143,25.780 108.586,26.265 109.091 C 26.750 109.597,27.193 110.154,27.249 110.330 C 27.305 110.506,27.604 110.807,27.915 110.999 C 28.225 111.190,28.502 111.511,28.531 111.711 C 28.560 111.911,28.744 112.155,28.941 112.252 C 29.451 112.506,29.841 112.853,29.761 112.982 C 29.723 113.043,30.024 113.381,30.430 113.734 C 30.835 114.086,31.167 114.478,31.167 114.604 C 31.167 114.730,31.266 114.833,31.388 114.833 C 31.629 114.833,32.382 115.563,32.263 115.682 C 32.223 115.722,32.983 116.541,33.952 117.502 C 34.921 118.464,35.652 119.138,35.575 119.000 C 35.456 118.785,35.475 118.782,35.716 118.977 C 35.870 119.102,35.963 119.258,35.923 119.322 C 35.883 119.387,35.997 119.566,36.175 119.719 C 36.354 119.872,36.500 119.947,36.500 119.886 C 36.500 119.825,36.685 119.949,36.912 120.162 C 37.138 120.374,37.276 120.624,37.219 120.717 C 37.160 120.812,37.198 120.833,37.308 120.766 C 37.422 120.695,37.500 120.753,37.500 120.907 C 37.500 121.050,37.556 121.149,37.625 121.128 C 37.694 121.106,37.952 121.275,38.199 121.503 C 38.447 121.730,38.997 122.217,39.422 122.583 C 39.847 122.950,40.559 123.598,41.004 124.024 C 41.449 124.449,41.845 124.766,41.885 124.727 C 41.924 124.687,42.188 124.920,42.473 125.244 C 42.757 125.568,43.066 125.833,43.160 125.833 C 43.254 125.833,43.424 125.983,43.539 126.167 C 43.653 126.350,43.840 126.500,43.953 126.500 C 44.066 126.500,44.281 126.687,44.431 126.915 C 44.581 127.144,44.765 127.292,44.841 127.245 C 44.917 127.198,45.040 127.261,45.115 127.384 C 45.189 127.507,45.386 127.659,45.552 127.720 C 45.727 127.784,45.804 127.912,45.735 128.025 C 45.663 128.141,45.688 128.173,45.797 128.106 C 45.898 128.044,46.057 128.126,46.151 128.288 C 46.246 128.451,46.325 128.525,46.328 128.454 C 46.331 128.384,46.520 128.448,46.749 128.598 C 46.977 128.747,47.115 128.948,47.056 129.044 C 46.996 129.141,47.028 129.169,47.130 129.106 C 47.229 129.045,47.419 129.149,47.551 129.338 C 47.683 129.526,47.894 129.659,48.021 129.632 C 48.147 129.605,48.229 129.683,48.204 129.804 C 48.179 129.925,48.222 129.985,48.301 129.937 C 48.379 129.889,48.665 130.052,48.937 130.299 C 49.208 130.547,49.634 130.842,49.882 130.955 C 50.130 131.067,50.333 131.236,50.333 131.330 C 50.333 131.423,50.391 131.481,50.462 131.458 C 50.532 131.435,50.768 131.583,50.987 131.786 C 51.205 131.989,51.447 132.116,51.525 132.068 C 51.603 132.020,51.667 132.072,51.667 132.185 C 51.667 132.297,51.715 132.341,51.773 132.282 C 51.832 132.224,52.105 132.366,52.380 132.597 C 52.656 132.829,53.241 133.201,53.681 133.424 C 54.121 133.647,54.558 133.962,54.652 134.123 C 54.746 134.285,54.827 134.342,54.831 134.250 C 54.835 134.158,54.897 134.175,54.968 134.287 C 55.039 134.400,55.278 134.519,55.498 134.553 C 55.719 134.586,55.928 134.701,55.964 134.808 C 55.999 134.915,56.091 134.963,56.167 134.916 C 56.244 134.869,56.408 134.925,56.532 135.040 C 57.121 135.587,57.167 135.404,57.158 132.542 L 57.150 129.750 54.866 128.302 C 42.128 120.225,24.227 101.375,19.124 90.667 C 13.845 79.590,10.777 63.478,9.983 42.667 C 9.790 37.618,9.855 21.589,10.069 21.375 C 10.127 21.317,11.129 21.398,12.296 21.554 C 24.483 23.188,35.883 21.874,45.917 17.680 C 49.187 16.313,53.830 13.679,56.292 11.796 L 57.167 11.126 57.167 7.990 C 57.167 4.716,57.127 4.515,56.564 4.971 M41.862 36.516 C 41.753 36.690,41.557 36.833,41.427 36.833 C 41.297 36.833,41.091 36.930,40.970 37.048 C 40.644 37.366,37.993 39.167,37.851 39.167 C 37.784 39.167,37.574 39.312,37.383 39.489 C 37.026 39.822,34.931 41.242,34.203 41.644 C 32.839 42.398,35.040 46.332,36.865 46.403 C 37.276 46.419,37.833 46.588,38.167 46.798 C 40.113 48.024,42.167 46.800,42.167 44.414 C 42.167 42.400,40.408 41.375,38.649 42.363 L 38.002 42.727 37.584 42.334 C 36.300 41.127,37.778 38.986,39.743 39.207 C 42.340 39.500,42.990 40.935,42.997 46.385 C 43.002 50.859,43.570 53.233,45.133 55.307 C 47.967 59.069,53.009 59.044,55.181 55.258 C 55.812 54.158,55.808 53.851,55.171 54.388 C 49.514 59.147,41.894 51.195,46.422 45.257 C 48.246 42.866,51.831 43.385,51.833 46.042 C 51.833 46.951,51.841 46.947,50.888 46.486 C 48.153 45.162,47.516 49.349,50.184 51.115 C 52.751 52.813,55.521 50.786,55.281 47.385 C 55.172 45.845,55.280 45.667,56.322 45.667 C 56.962 45.667,56.995 45.278,56.474 43.885 C 55.893 42.333,53.443 40.167,52.268 40.167 C 51.785 40.167,52.011 39.317,52.695 38.565 C 53.013 38.215,53.012 38.212,52.466 37.982 C 50.959 37.346,48.602 37.868,46.509 39.300 L 45.767 39.807 45.092 38.942 C 43.704 37.164,42.175 36.015,41.862 36.516 M47.838 44.875 C 45.101 46.527,44.969 51.239,47.591 53.656 C 49.873 55.759,52.562 55.787,55.022 53.732 C 56.959 52.113,56.750 54.574,54.763 56.784 C 53.921 57.720,52.708 58.436,51.689 58.599 L 50.981 58.712 51.699 59.125 C 52.094 59.353,52.979 59.856,53.667 60.244 C 54.354 60.633,55.455 61.260,56.113 61.638 L 57.310 62.326 59.363 61.139 C 60.493 60.486,62.654 59.241,64.167 58.373 C 65.679 57.504,66.971 56.745,67.037 56.685 C 67.137 56.594,65.500 55.621,58.022 51.331 C 57.781 51.193,57.138 50.823,56.594 50.510 C 55.674 49.980,55.592 49.961,55.427 50.238 C 53.957 52.708,50.806 52.952,48.865 50.746 C 46.967 48.590,47.817 45.500,50.252 45.702 C 51.318 45.790,51.486 45.471,50.758 44.742 C 50.136 44.121,49.002 44.172,47.838 44.875 M75.833 63.075 C 75.146 63.473,73.113 64.651,71.316 65.691 C 69.519 66.732,67.883 67.696,67.681 67.833 C 67.287 68.101,67.444 68.203,72.415 70.934 C 75.126 72.422,75.860 74.129,74.414 75.575 C 73.887 76.102,69.870 78.500,69.515 78.500 C 69.391 78.500,69.333 77.576,69.333 75.583 C 69.333 73.979,69.290 72.667,69.237 72.667 C 69.184 72.667,68.266 73.181,67.195 73.809 C 65.474 74.819,64.367 75.473,60.628 77.685 L 59.673 78.250 59.670 86.875 C 59.668 91.619,59.698 95.500,59.736 95.500 C 59.797 95.500,61.751 94.377,64.500 92.761 C 65.004 92.465,66.504 91.597,67.833 90.832 C 82.734 82.261,82.950 82.113,84.451 79.480 C 87.538 74.066,85.304 67.701,78.781 63.320 C 77.046 62.155,77.373 62.182,75.833 63.075 " stroke="none" fill="#0e730d" fill-rule="evenodd"></path><path id="path1" d="M44.340 26.292 L 44.346 32.083 45.798 32.892 C 57.122 39.198,74.266 49.155,74.536 49.583 C 75.052 50.400,74.875 51.706,74.152 52.417 C 73.673 52.888,71.054 54.481,67.612 56.394 C 66.635 56.937,62.275 59.451,56.542 62.776 C 55.648 63.294,54.054 64.205,53.000 64.800 C 50.344 66.299,49.774 66.676,49.940 66.824 C 50.206 67.062,59.514 72.333,59.668 72.333 C 59.752 72.333,60.854 71.724,62.118 70.978 C 63.382 70.233,65.317 69.116,66.417 68.497 C 67.517 67.877,69.317 66.849,70.417 66.212 C 71.517 65.576,73.392 64.490,74.583 63.800 C 79.459 60.978,80.624 60.271,81.471 59.621 C 87.098 55.304,87.329 47.458,81.973 42.596 C 80.948 41.665,80.214 41.195,75.833 38.666 C 74.688 38.004,73.262 37.180,72.667 36.833 C 72.071 36.487,70.683 35.683,69.583 35.047 C 68.483 34.411,66.083 33.022,64.250 31.961 C 50.095 23.765,44.437 20.500,44.389 20.500 C 44.358 20.500,44.336 23.106,44.340 26.292 M50.958 102.670 C 46.758 103.731,44.456 108.625,46.302 112.570 C 47.582 115.305,50.202 118.044,54.964 121.627 C 57.425 123.478,56.896 123.477,59.365 121.641 C 65.836 116.828,68.833 112.951,68.833 109.390 C 68.833 105.933,66.827 103.329,63.636 102.644 C 61.608 102.210,58.365 103.284,57.523 104.670 L 57.225 105.159 56.737 104.493 C 55.715 103.096,52.851 102.193,50.958 102.670 M55.137 109.845 C 57.227 115.963,57.382 116.373,57.511 116.138 C 57.578 116.016,58.140 114.454,58.760 112.667 C 60.279 108.286,60.163 108.381,61.308 110.589 L 62.083 112.083 64.583 112.167 C 66.657 112.236,67.083 112.293,67.083 112.500 C 67.083 112.712,66.676 112.750,64.417 112.750 L 61.750 112.750 61.083 111.459 C 60.318 109.977,60.268 109.945,60.036 110.792 C 59.786 111.699,57.863 117.134,57.650 117.532 C 57.344 118.103,57.167 117.711,55.399 112.538 L 53.706 107.583 53.343 108.833 C 53.143 109.521,52.913 110.308,52.832 110.583 C 52.752 110.858,52.603 111.402,52.503 111.792 L 52.320 112.500 50.702 112.499 C 46.766 112.495,45.801 111.874,49.611 111.796 L 51.889 111.750 52.574 109.250 C 53.399 106.241,53.444 106.121,53.708 106.206 C 53.823 106.244,54.466 107.881,55.137 109.845 " stroke="none" fill="#e20404" fill-rule="evenodd"></path><path id="path2" d="M57.132 7.875 L 57.182 11.250 58.382 12.110 C 70.041 20.464,85.093 23.786,101.667 21.664 C 103.192 21.469,104.143 21.413,104.244 21.513 C 104.482 21.747,104.442 41.324,104.195 45.667 C 102.829 69.666,98.625 86.857,91.702 96.750 C 86.495 104.190,77.311 114.249,69.833 120.701 C 66.298 123.752,59.396 128.761,57.685 129.518 L 57.181 129.742 57.132 132.621 C 57.105 134.205,57.141 135.500,57.212 135.500 C 57.451 135.500,60.076 134.126,60.597 133.728 C 60.882 133.511,61.161 133.333,61.218 133.333 C 61.275 133.333,61.972 132.902,62.767 132.375 C 63.562 131.848,64.496 131.229,64.842 131.000 C 65.954 130.263,66.858 129.597,67.498 129.042 C 67.842 128.744,68.197 128.500,68.286 128.500 C 68.375 128.500,68.591 128.340,68.766 128.145 C 68.940 127.950,69.319 127.631,69.608 127.437 C 72.028 125.805,80.046 118.352,83.891 114.161 C 84.519 113.477,85.277 112.654,85.575 112.333 C 86.345 111.504,91.006 106.033,91.411 105.482 C 92.280 104.301,94.416 101.584,94.692 101.308 C 94.861 101.139,95.000 100.930,95.000 100.845 C 95.000 100.760,95.096 100.591,95.214 100.470 C 96.734 98.909,99.994 92.664,101.725 88.000 C 103.326 83.689,106.178 73.243,106.164 71.743 C 106.162 71.564,106.420 69.954,106.736 68.167 C 107.053 66.379,107.397 64.167,107.501 63.250 C 107.605 62.333,107.871 60.172,108.091 58.448 C 108.312 56.723,108.569 53.836,108.663 52.031 C 108.757 50.226,108.872 48.375,108.919 47.917 C 109.493 42.338,109.480 25.131,108.897 16.875 C 108.773 15.121,108.870 15.194,107.167 15.574 C 95.730 18.127,82.478 17.537,73.247 14.065 C 72.420 13.754,71.677 13.500,71.595 13.500 C 71.410 13.500,68.673 12.287,67.667 11.758 C 65.119 10.421,63.390 9.410,62.800 8.914 C 62.529 8.686,62.205 8.500,62.079 8.500 C 61.953 8.500,61.790 8.402,61.717 8.283 C 61.643 8.164,61.321 7.888,61.000 7.670 C 60.395 7.260,58.615 5.772,57.760 4.963 C 57.491 4.709,57.228 4.500,57.177 4.500 C 57.125 4.500,57.105 6.018,57.132 7.875 M85.881 50.917 C 85.882 51.375,85.915 51.543,85.953 51.289 C 85.991 51.036,85.990 50.661,85.951 50.456 C 85.911 50.251,85.880 50.458,85.881 50.917 M47.674 67.811 C 45.988 68.790,45.325 69.273,45.007 69.752 L 44.583 70.391 44.500 81.651 L 44.417 92.912 42.083 94.247 L 39.750 95.583 39.706 101.310 C 39.665 106.714,39.679 107.031,39.955 106.925 C 40.116 106.863,41.298 106.207,42.582 105.466 C 48.750 101.909,51.675 100.225,52.667 99.662 C 53.262 99.324,53.919 98.800,54.125 98.499 L 54.500 97.951 54.500 86.684 L 54.501 75.417 57.089 73.936 C 59.337 72.651,59.639 72.430,59.381 72.260 C 59.217 72.152,57.003 70.878,54.460 69.429 C 51.918 67.980,49.878 66.729,49.929 66.647 C 50.069 66.421,50.061 66.425,47.674 67.811 M51.042 111.948 C 51.202 111.990,51.465 111.990,51.625 111.948 C 51.785 111.906,51.654 111.872,51.333 111.872 C 51.012 111.872,50.881 111.906,51.042 111.948 M62.146 112.213 C 62.218 112.284,63.358 112.322,64.680 112.296 L 67.083 112.249 64.549 112.166 C 63.156 112.121,62.074 112.142,62.146 112.213 M48.794 112.451 C 49.001 112.491,49.301 112.490,49.460 112.448 C 49.620 112.406,49.450 112.374,49.083 112.375 C 48.717 112.377,48.586 112.411,48.794 112.451 M49.333 116.917 C 49.644 117.237,49.936 117.500,49.982 117.500 C 50.028 117.500,49.811 117.237,49.500 116.917 C 49.189 116.596,48.897 116.333,48.851 116.333 C 48.805 116.333,49.022 116.596,49.333 116.917 " stroke="none" fill="#fbcb04" fill-rule="evenodd"></path><path id="path3" d="M55.583 12.410 C 44.264 20.516,29.060 23.792,12.583 21.677 C 11.300 21.512,10.219 21.405,10.181 21.438 C 9.699 21.865,9.858 40.870,10.419 49.750 C 11.510 67.052,14.787 81.871,19.659 91.545 C 25.200 102.548,45.184 122.977,56.623 129.333 C 57.480 129.809,57.237 129.914,60.923 127.475 C 70.956 120.837,83.862 107.954,91.702 96.750 C 98.625 86.857,102.829 69.666,104.195 45.667 C 104.442 41.324,104.482 21.747,104.244 21.513 C 104.143 21.413,103.192 21.469,101.667 21.664 C 85.202 23.772,70.031 20.458,58.598 12.255 C 57.043 11.140,57.382 11.122,55.583 12.410 M50.215 23.807 C 53.351 25.625,58.429 28.562,61.500 30.333 C 64.571 32.104,68.396 34.317,70.000 35.250 C 71.604 36.183,74.674 37.952,76.823 39.182 C 81.764 42.009,83.413 43.471,84.740 46.202 C 87.506 51.892,85.369 57.642,79.183 61.157 C 77.017 62.389,77.006 62.133,79.282 63.573 C 85.012 67.198,87.362 73.697,84.830 78.917 C 83.693 81.261,82.266 82.598,78.727 84.639 C 77.633 85.269,74.603 87.023,71.994 88.535 C 67.431 91.180,64.778 92.714,61.286 94.727 C 60.389 95.244,59.620 95.667,59.577 95.667 C 59.535 95.667,59.500 91.746,59.500 86.955 L 59.500 78.244 61.375 77.146 C 62.406 76.542,64.596 75.250,66.242 74.274 C 67.888 73.298,69.294 72.500,69.367 72.500 C 69.440 72.500,69.500 73.851,69.500 75.501 L 69.500 78.503 70.458 77.967 C 74.500 75.706,75.084 75.169,74.960 73.829 C 74.830 72.437,74.636 72.280,69.473 69.360 C 68.313 68.704,67.279 68.167,67.177 68.167 C 67.075 68.167,64.762 69.466,62.037 71.053 C 59.313 72.641,56.503 74.272,55.794 74.678 L 54.504 75.417 54.502 86.684 L 54.500 97.951 54.125 98.499 C 53.919 98.800,53.262 99.324,52.667 99.662 C 51.675 100.225,48.750 101.909,42.582 105.466 C 41.298 106.207,40.116 106.863,39.955 106.925 C 39.679 107.031,39.665 106.714,39.706 101.310 L 39.750 95.583 42.083 94.247 L 44.417 92.912 44.500 81.652 L 44.583 70.392 45.017 69.738 C 45.387 69.178,46.298 68.601,51.307 65.750 C 56.457 62.819,57.128 62.391,56.873 62.201 C 56.714 62.082,55.292 61.257,53.715 60.367 L 50.846 58.750 52.119 58.361 C 53.244 58.017,53.514 57.850,54.447 56.917 C 56.542 54.822,57.066 52.070,55.030 53.858 C 50.456 57.874,43.530 52.464,46.076 46.865 C 47.192 44.411,50.199 43.290,51.082 44.998 C 51.417 45.646,51.411 46.065,51.069 45.934 C 48.114 44.800,46.731 48.617,49.221 51.034 C 51.068 52.825,54.103 52.382,55.417 50.129 C 55.604 49.809,55.041 49.521,61.500 53.248 C 66.680 56.236,67.147 56.500,67.269 56.500 C 67.516 56.500,73.615 52.922,74.045 52.524 C 74.977 51.663,75.054 50.058,74.202 49.260 C 73.954 49.027,71.866 47.767,69.564 46.460 C 67.262 45.153,60.645 41.383,54.858 38.083 L 44.338 32.083 44.336 26.292 C 44.334 23.106,44.374 20.500,44.423 20.500 C 44.473 20.500,47.079 21.988,50.215 23.807 M122.333 40.667 L 122.333 52.000 126.750 52.000 L 131.167 52.000 131.167 48.667 L 131.167 45.333 133.500 45.333 C 134.945 45.333,135.833 45.397,135.833 45.500 C 135.833 45.697,138.013 48.891,138.203 48.972 C 138.275 49.003,138.333 49.123,138.333 49.240 C 138.333 49.357,138.595 49.782,138.915 50.185 C 139.235 50.587,139.500 50.992,139.504 51.083 C 139.542 51.958,139.800 52.000,145.152 52.000 C 147.910 52.000,150.167 51.967,150.167 51.927 C 150.167 51.887,149.815 51.343,149.385 50.719 C 148.955 50.094,148.319 49.157,147.970 48.636 C 147.622 48.115,147.257 47.639,147.158 47.578 C 147.060 47.517,146.909 47.306,146.823 47.109 C 146.737 46.911,146.369 46.337,146.004 45.833 C 145.164 44.671,145.168 44.637,146.159 44.285 C 147.287 43.884,147.922 43.305,148.550 42.103 L 149.083 41.083 149.083 37.167 L 149.083 33.250 148.535 32.123 C 147.205 29.385,146.922 29.333,133.298 29.333 L 122.333 29.333 122.333 40.667 M154.250 29.675 C 151.770 30.493,151.248 31.652,151.254 36.333 C 151.259 39.994,151.480 40.937,152.555 41.876 C 153.813 42.975,154.226 43.045,162.750 43.598 C 170.063 44.072,169.755 44.002,169.738 45.189 C 169.720 46.353,169.834 46.328,164.464 46.331 C 159.036 46.334,159.333 46.415,159.333 44.928 L 159.333 44.167 155.062 44.167 L 150.790 44.167 150.867 46.375 C 150.983 49.681,151.686 50.951,153.786 51.653 C 155.398 52.192,174.102 52.192,175.714 51.653 C 178.119 50.849,178.579 49.794,178.582 45.080 L 178.583 41.576 178.000 40.419 C 177.090 38.613,176.103 38.169,172.552 37.970 C 160.157 37.273,160.119 37.267,160.200 36.015 L 160.250 35.250 164.750 35.205 C 169.757 35.156,169.667 35.136,169.667 36.282 L 169.667 36.833 173.940 36.833 L 178.212 36.833 178.116 34.875 C 177.960 31.713,177.423 30.663,175.500 29.766 C 174.355 29.232,155.835 29.153,154.250 29.675 M180.503 37.958 C 180.506 48.375,180.619 49.107,182.460 50.621 C 184.037 51.918,183.961 51.909,193.917 51.964 L 202.750 52.012 204.114 51.588 C 206.103 50.968,206.923 50.105,207.602 47.917 C 207.887 46.996,207.912 46.222,207.914 38.167 L 207.917 29.417 203.458 29.372 L 199.000 29.328 199.000 36.632 C 199.000 42.674,198.959 43.992,198.764 44.260 C 198.516 44.599,191.999 44.860,190.552 44.588 C 189.279 44.350,189.333 44.708,189.333 36.583 L 189.333 29.333 184.917 29.333 L 180.500 29.333 180.503 37.958 M210.111 29.444 C 210.050 29.506,210.000 34.606,210.000 40.778 L 210.000 52.000 220.708 51.998 C 229.895 51.996,231.547 51.959,232.333 51.736 C 232.838 51.594,233.483 51.417,233.768 51.345 C 235.594 50.878,237.519 48.372,238.001 45.830 C 238.230 44.621,238.214 36.572,237.980 35.467 C 237.315 32.324,235.345 30.343,232.131 29.585 C 231.031 29.326,210.362 29.194,210.111 29.444 M29.978 32.444 C 31.342 35.251,33.808 36.624,37.792 36.792 L 39.833 36.878 39.833 36.034 L 39.833 35.190 40.372 35.345 C 42.003 35.812,44.583 37.804,45.524 39.322 L 45.776 39.728 46.350 39.289 C 48.294 37.807,51.557 37.190,52.769 38.077 C 53.075 38.300,53.074 38.317,52.729 38.695 C 52.362 39.098,51.932 39.835,52.028 39.897 C 52.059 39.917,52.659 40.212,53.362 40.552 C 56.017 41.839,58.146 45.833,56.177 45.833 C 55.332 45.833,55.328 45.843,55.286 47.869 C 55.255 49.338,55.194 49.673,54.860 50.210 C 53.684 52.102,50.675 52.194,49.183 50.384 C 47.380 48.196,48.898 45.140,51.116 46.493 C 52.025 47.047,52.113 45.556,51.233 44.510 C 49.193 42.086,45.250 45.155,45.250 49.167 C 45.250 54.669,50.649 57.559,55.037 54.406 C 55.798 53.859,55.853 53.843,55.743 54.198 C 54.467 58.333,49.307 59.494,45.992 56.393 C 43.721 54.269,42.843 51.221,42.836 45.430 C 42.832 42.197,42.624 41.124,41.850 40.350 C 40.462 38.962,38.263 39.044,37.466 40.513 C 36.861 41.630,37.555 42.749,38.558 42.273 C 40.862 41.180,42.754 42.718,42.159 45.201 C 41.689 47.157,39.939 47.913,38.191 46.915 C 37.792 46.687,37.241 46.500,36.967 46.500 C 35.377 46.500,33.667 44.255,33.667 42.169 C 33.667 41.791,33.509 41.600,32.840 41.171 C 29.668 39.136,28.260 35.720,29.179 32.292 C 29.396 31.480,29.521 31.503,29.978 32.444 M140.000 36.000 C 140.391 36.391,140.491 38.609,140.133 38.967 C 139.988 39.112,138.737 39.167,135.550 39.167 L 131.167 39.167 131.167 37.417 L 131.167 35.667 135.417 35.667 C 139.444 35.667,139.684 35.684,140.000 36.000 M228.719 37.069 C 229.322 37.628,229.364 37.911,229.303 41.072 L 229.250 43.863 228.782 44.265 L 228.315 44.667 223.657 44.667 L 219.000 44.667 219.000 40.667 L 219.000 36.667 223.642 36.667 L 228.285 36.667 228.719 37.069 M122.333 72.083 L 122.333 83.333 126.750 83.333 L 131.167 83.333 131.167 80.510 L 131.167 77.687 138.125 77.623 C 146.892 77.542,147.395 77.407,148.598 74.802 L 149.083 73.750 149.135 69.537 C 149.202 64.172,148.935 63.151,147.104 61.754 C 145.949 60.873,145.538 60.846,133.458 60.839 L 122.333 60.833 122.333 72.083 M150.833 72.083 L 150.833 83.333 163.083 83.333 L 175.333 83.333 175.333 80.083 L 175.333 76.833 167.500 76.833 L 159.667 76.833 159.667 75.750 L 159.667 74.667 166.750 74.667 L 173.833 74.667 173.833 71.917 L 173.833 69.167 166.750 69.167 L 159.667 69.167 159.667 68.250 L 159.667 67.333 167.417 67.333 L 175.167 67.333 175.167 64.083 L 175.167 60.833 163.000 60.833 L 150.833 60.833 150.833 72.083 M176.000 64.667 L 176.000 68.500 180.333 68.500 L 184.667 68.500 184.667 75.917 L 184.667 83.333 189.083 83.333 L 193.500 83.333 193.500 75.917 L 193.500 68.500 197.833 68.500 L 202.167 68.500 202.167 64.667 L 202.167 60.833 189.083 60.833 L 176.000 60.833 176.000 64.667 M205.567 64.789 C 204.501 66.968,202.915 70.212,202.044 72.000 C 200.039 76.113,196.642 83.044,196.550 83.208 C 196.512 83.277,198.647 83.333,201.295 83.333 L 206.110 83.333 206.755 81.917 L 207.400 80.500 212.325 80.503 L 217.250 80.506 217.854 81.878 L 218.459 83.250 223.396 83.294 C 229.062 83.345,228.682 83.484,227.770 81.691 C 227.460 81.082,226.365 78.858,225.338 76.750 C 223.623 73.232,221.715 69.335,218.728 63.250 L 217.583 60.917 212.544 60.873 L 207.506 60.828 205.567 64.789 M229.333 72.083 L 229.333 83.333 245.490 83.333 C 258.233 83.333,261.675 83.289,261.782 83.125 C 261.856 83.010,262.151 82.392,262.436 81.750 L 262.956 80.583 267.915 80.583 L 272.874 80.583 273.479 81.955 L 274.083 83.327 279.042 83.330 C 282.851 83.333,284.000 83.286,284.000 83.129 C 284.000 82.943,281.817 78.370,280.956 76.750 C 280.432 75.765,280.344 75.587,278.328 71.417 C 277.309 69.308,275.726 66.065,274.811 64.208 L 273.147 60.833 268.115 60.845 L 263.083 60.856 262.463 62.136 C 259.616 68.012,254.363 78.769,253.780 79.917 C 253.593 80.283,253.390 80.696,253.329 80.833 C 253.267 80.971,253.036 81.443,252.816 81.882 L 252.417 82.680 252.372 79.257 L 252.327 75.833 245.330 75.833 L 238.333 75.833 238.333 68.333 L 238.333 60.833 233.833 60.833 L 229.333 60.833 229.333 72.083 M294.500 72.084 L 294.500 83.346 306.542 83.298 C 319.792 83.245,319.047 83.304,320.278 82.215 C 322.374 80.362,321.963 72.194,319.772 72.164 C 319.161 72.156,319.140 71.858,319.710 71.311 C 321.592 69.504,321.517 63.861,319.585 61.930 C 318.566 60.910,318.845 60.932,306.125 60.875 L 294.500 60.823 294.500 72.084 M323.535 69.974 L 323.583 79.115 324.239 80.406 C 325.673 83.231,325.760 83.250,337.417 83.250 L 346.750 83.250 347.716 82.776 C 348.908 82.190,349.695 81.398,350.292 80.182 L 350.750 79.250 350.801 70.042 L 350.851 60.833 346.426 60.833 L 342.000 60.833 342.000 68.133 C 342.000 73.589,341.949 75.484,341.800 75.633 C 341.412 76.022,332.718 75.907,332.506 75.511 C 332.395 75.303,332.333 72.640,332.333 68.011 L 332.333 60.833 327.910 60.833 L 323.487 60.833 323.535 69.974 M353.167 72.083 L 353.167 83.333 357.333 83.333 L 361.500 83.333 361.501 78.542 C 361.502 73.926,361.512 73.766,361.793 74.193 C 362.356 75.050,364.955 78.422,365.226 78.647 C 365.377 78.772,365.502 78.959,365.505 79.062 C 365.508 79.165,365.732 79.494,366.003 79.792 L 366.495 80.333 368.908 80.333 C 371.201 80.333,371.331 80.316,371.512 79.978 C 371.683 79.657,373.306 77.484,374.668 75.750 C 374.956 75.383,375.429 74.761,375.721 74.367 L 376.250 73.651 376.294 78.492 L 376.338 83.333 380.419 83.333 L 384.500 83.333 384.500 72.080 L 384.500 60.827 380.715 60.872 L 376.929 60.917 376.460 61.583 C 376.201 61.950,375.749 62.565,375.453 62.951 C 375.158 63.336,374.362 64.424,373.683 65.367 C 373.005 66.311,372.301 67.249,372.118 67.452 C 371.936 67.655,371.704 67.963,371.602 68.137 C 371.500 68.311,370.967 69.034,370.417 69.745 C 369.867 70.456,369.336 71.178,369.236 71.349 C 369.000 71.757,368.776 71.516,366.484 68.371 C 365.530 67.063,364.510 65.675,364.216 65.288 C 363.922 64.900,363.424 64.208,363.109 63.750 C 362.793 63.292,362.340 62.707,362.101 62.450 C 361.862 62.193,361.667 61.916,361.667 61.833 C 361.667 61.751,361.489 61.492,361.273 61.259 L 360.878 60.833 357.023 60.833 L 353.167 60.833 353.167 72.083 M387.000 72.083 L 387.000 83.333 391.500 83.333 L 396.000 83.333 396.000 72.083 L 396.000 60.833 391.500 60.833 L 387.000 60.833 387.000 72.083 M311.903 67.268 C 312.320 67.428,312.272 69.098,311.844 69.327 C 311.648 69.433,309.957 69.500,307.511 69.500 L 303.500 69.500 303.500 68.333 L 303.500 67.167 307.570 67.167 C 309.808 67.167,311.758 67.212,311.903 67.268 M140.006 67.673 C 140.305 67.972,140.340 68.188,140.298 69.460 C 140.233 71.413,140.461 71.328,135.292 71.331 L 131.167 71.333 131.167 69.333 L 131.167 67.333 135.417 67.333 C 139.471 67.333,139.682 67.349,140.006 67.673 M268.572 70.333 C 269.447 72.302,270.191 74.057,270.286 74.375 C 270.365 74.643,270.178 74.667,267.936 74.667 C 266.596 74.667,265.499 74.610,265.499 74.542 C 265.497 74.379,266.538 71.921,267.265 70.372 C 267.578 69.706,267.839 69.031,267.846 68.872 C 267.857 68.648,267.877 68.640,267.938 68.833 C 267.982 68.971,268.267 69.646,268.572 70.333 M213.071 70.616 C 213.418 71.423,213.950 72.646,214.253 73.333 L 214.803 74.583 212.378 74.630 C 209.466 74.685,209.652 74.841,210.483 73.037 C 210.859 72.221,211.167 71.495,211.167 71.424 C 211.167 71.154,212.229 69.019,212.331 69.082 C 212.391 69.119,212.724 69.809,213.071 70.616 M312.500 74.663 C 312.826 74.869,312.842 76.505,312.521 76.891 C 312.319 77.135,311.782 77.167,307.896 77.167 L 303.500 77.167 303.500 75.833 L 303.500 74.500 307.875 74.503 C 310.341 74.504,312.359 74.574,312.500 74.663 M122.333 101.074 L 122.333 110.500 124.250 110.500 L 126.167 110.500 126.167 107.348 L 126.167 104.197 133.292 104.134 C 141.081 104.066,141.092 104.065,142.033 103.062 C 143.530 101.467,143.661 94.656,142.228 92.939 C 141.178 91.681,141.819 91.756,131.544 91.699 L 122.333 91.649 122.333 101.074 M145.333 101.083 L 145.333 110.500 147.250 110.500 L 149.167 110.500 149.167 107.083 L 149.167 103.667 153.052 103.667 L 156.938 103.667 157.357 104.125 C 157.588 104.377,158.288 105.258,158.914 106.083 C 159.539 106.908,160.151 107.643,160.275 107.717 C 160.399 107.790,160.500 107.932,160.500 108.031 C 160.500 108.131,160.781 108.531,161.125 108.921 C 161.469 109.311,161.885 109.825,162.049 110.065 C 162.347 110.498,162.361 110.500,164.597 110.500 L 166.845 110.500 166.646 110.125 C 166.536 109.919,166.198 109.450,165.893 109.083 C 164.811 107.781,164.164 106.979,162.261 104.583 L 161.335 103.417 161.876 103.374 C 165.184 103.116,166.000 101.943,166.000 97.443 C 166.000 91.564,166.226 91.670,153.792 91.668 L 145.333 91.667 145.333 101.083 M171.917 91.816 C 169.091 92.319,168.750 93.316,168.750 101.083 C 168.750 110.823,168.246 110.377,179.342 110.458 C 191.073 110.544,190.667 110.882,190.667 101.052 C 190.667 93.801,190.533 93.265,188.417 92.040 C 187.885 91.731,173.490 91.537,171.917 91.816 M191.254 92.037 C 191.317 92.246,191.562 92.754,191.800 93.167 C 192.038 93.579,192.471 94.367,192.764 94.917 C 193.056 95.467,193.529 96.329,193.814 96.833 C 194.099 97.337,194.639 98.313,195.013 99.000 C 195.387 99.688,195.901 100.625,196.156 101.083 C 197.760 103.966,198.445 105.208,198.960 106.167 C 199.280 106.763,199.645 107.368,199.771 107.513 C 199.897 107.658,200.000 107.891,200.000 108.032 C 200.000 108.173,200.140 108.467,200.310 108.686 C 200.481 108.904,200.783 109.402,200.980 109.792 L 201.340 110.500 203.128 110.498 L 204.917 110.496 205.542 109.487 C 205.885 108.931,206.167 108.394,206.167 108.293 C 206.167 108.192,206.273 107.991,206.402 107.846 C 206.532 107.702,206.912 107.058,207.248 106.417 C 207.584 105.775,208.197 104.650,208.610 103.917 C 209.450 102.426,210.207 101.047,211.103 99.375 C 211.435 98.756,211.848 98.051,212.020 97.808 C 212.192 97.564,212.333 97.270,212.333 97.154 C 212.333 97.038,212.437 96.825,212.564 96.680 C 212.691 96.535,213.113 95.817,213.503 95.083 C 213.892 94.350,214.426 93.352,214.689 92.865 C 215.355 91.632,215.398 91.667,213.178 91.667 L 211.190 91.667 210.530 92.875 C 210.168 93.540,209.476 94.833,208.993 95.750 C 208.510 96.667,207.826 97.960,207.474 98.625 C 207.122 99.290,206.545 100.378,206.192 101.043 C 205.839 101.709,205.223 102.853,204.823 103.585 C 204.423 104.317,203.918 105.279,203.701 105.723 C 203.484 106.166,203.285 106.504,203.260 106.473 C 203.234 106.442,202.837 105.704,202.379 104.833 C 201.920 103.962,201.264 102.725,200.921 102.083 C 200.577 101.442,199.845 100.054,199.292 99.000 C 198.740 97.946,198.227 97.005,198.152 96.909 C 198.077 96.813,197.748 96.213,197.421 95.576 C 197.094 94.938,196.509 93.817,196.122 93.083 L 195.417 91.750 193.279 91.703 L 191.141 91.657 191.254 92.037 M216.833 101.083 L 216.833 110.500 218.833 110.500 L 220.833 110.500 220.833 101.083 L 220.833 91.667 218.833 91.667 L 216.833 91.667 216.833 101.083 M224.000 101.083 L 224.000 110.500 225.832 110.500 L 227.663 110.500 227.707 103.548 L 227.750 96.595 228.421 97.256 C 228.790 97.619,229.942 98.704,230.981 99.667 C 232.021 100.629,233.182 101.717,233.563 102.083 C 234.362 102.853,237.677 105.937,240.607 108.636 L 242.631 110.500 244.149 110.500 L 245.667 110.500 245.667 101.083 L 245.667 91.667 243.835 91.667 L 242.004 91.667 241.960 98.485 L 241.917 105.302 240.568 104.026 C 239.827 103.324,238.368 101.962,237.328 101.000 C 235.536 99.343,233.526 97.461,232.167 96.167 C 231.830 95.846,230.938 95.021,230.185 94.333 C 229.432 93.646,228.490 92.765,228.093 92.375 L 227.370 91.667 225.685 91.667 L 224.000 91.667 224.000 101.083 M251.250 91.784 C 249.565 92.043,248.933 93.397,248.933 96.750 C 248.933 101.611,248.823 101.549,258.917 102.338 C 266.779 102.952,266.219 102.758,266.308 104.898 C 266.425 107.724,266.509 107.692,259.019 107.631 L 253.137 107.583 252.735 107.116 C 252.417 106.745,252.333 106.459,252.333 105.741 L 252.333 104.833 250.500 104.833 L 248.667 104.833 248.667 106.387 C 248.667 108.361,249.174 109.545,250.250 110.083 C 251.174 110.546,266.421 110.692,267.930 110.253 C 269.668 109.748,270.256 108.188,270.132 104.411 C 269.980 99.826,269.589 99.639,259.114 99.161 C 253.003 98.882,252.666 98.758,252.667 96.782 C 252.669 94.467,252.700 94.458,259.973 94.531 L 265.196 94.583 265.598 95.051 C 265.892 95.393,266.000 95.717,266.000 96.259 L 266.000 97.000 267.853 97.000 L 269.706 97.000 269.639 95.458 C 269.560 93.650,269.123 92.652,268.167 92.092 C 267.604 91.762,253.112 91.499,251.250 91.784 M273.000 101.083 L 273.000 110.500 274.917 110.500 L 276.833 110.500 276.833 101.083 L 276.833 91.667 274.917 91.667 L 273.000 91.667 273.000 101.083 M288.167 101.083 L 288.167 110.500 290.083 110.500 L 292.000 110.500 292.000 107.083 L 292.000 103.667 295.958 103.676 L 299.917 103.686 300.750 104.780 C 301.566 105.852,302.325 106.811,303.052 107.690 C 303.253 107.932,303.828 108.663,304.330 109.315 L 305.243 110.500 307.455 110.500 C 308.671 110.500,309.667 110.456,309.667 110.403 C 309.667 110.312,307.053 106.928,306.500 106.303 C 306.362 106.147,305.950 105.637,305.583 105.169 C 305.217 104.701,304.748 104.116,304.541 103.868 L 304.165 103.417 305.042 103.318 C 308.099 102.974,308.702 102.147,308.800 98.167 C 308.890 94.503,308.729 93.650,307.763 92.684 C 306.762 91.683,306.818 91.688,296.792 91.677 L 288.167 91.667 288.167 101.083 M312.000 101.083 L 312.000 110.500 313.917 110.500 L 315.833 110.500 315.833 101.083 L 315.833 91.667 313.917 91.667 L 312.000 91.667 312.000 101.083 M327.705 91.875 C 327.528 92.092,326.772 93.450,325.979 94.973 C 325.724 95.463,325.447 95.950,325.362 96.057 C 325.278 96.163,324.924 96.775,324.577 97.417 C 323.933 98.605,323.799 98.846,322.408 101.333 C 321.973 102.112,321.309 103.301,320.933 103.974 C 320.557 104.648,319.929 105.773,319.538 106.474 C 319.146 107.176,318.712 107.975,318.573 108.250 C 318.434 108.525,318.105 109.087,317.840 109.500 C 317.576 109.912,317.354 110.306,317.346 110.375 C 317.339 110.444,318.252 110.499,319.375 110.498 L 321.417 110.496 321.792 109.917 C 321.998 109.599,322.167 109.258,322.167 109.161 C 322.167 109.064,322.420 108.588,322.730 108.104 C 323.039 107.620,323.344 107.061,323.408 106.862 L 323.522 106.500 329.720 106.500 L 335.917 106.501 336.282 107.125 C 336.484 107.469,336.837 108.147,337.068 108.633 C 337.300 109.119,337.646 109.738,337.839 110.008 L 338.189 110.500 340.261 110.500 C 341.401 110.500,342.333 110.464,342.333 110.420 C 342.333 110.287,341.315 108.446,340.981 107.974 C 340.808 107.731,340.667 107.448,340.667 107.346 C 340.667 107.243,340.484 106.880,340.260 106.538 C 340.036 106.196,339.630 105.504,339.356 105.000 C 338.530 103.476,337.519 101.650,336.818 100.417 C 336.453 99.775,336.036 98.987,335.892 98.667 C 335.747 98.346,335.497 97.896,335.336 97.667 C 335.174 97.438,334.820 96.837,334.549 96.333 C 334.277 95.829,333.587 94.573,333.016 93.542 L 331.976 91.667 329.925 91.667 C 328.486 91.667,327.824 91.729,327.705 91.875 M342.535 99.542 C 342.609 111.141,341.986 110.505,353.260 110.493 C 361.600 110.483,362.121 110.369,363.129 108.333 L 363.583 107.417 363.631 99.542 L 363.679 91.667 361.756 91.667 L 359.833 91.667 359.833 98.683 C 359.833 108.230,360.527 107.378,352.819 107.301 C 345.672 107.229,346.333 108.118,346.333 98.589 L 346.333 91.667 344.409 91.667 L 342.485 91.667 342.535 99.542 M161.231 94.660 C 161.943 94.930,162.167 95.622,162.167 97.550 C 162.167 100.826,162.535 100.667,154.975 100.667 L 149.167 100.667 149.167 97.583 L 149.167 94.500 154.989 94.500 C 158.293 94.500,160.993 94.569,161.231 94.660 M304.570 94.987 C 304.989 95.381,305.000 95.446,305.000 97.540 C 305.000 100.869,305.466 100.667,297.808 100.667 L 292.000 100.667 292.000 97.577 L 292.000 94.488 298.070 94.536 L 304.140 94.583 304.570 94.987 M138.645 95.016 C 139.220 95.551,139.333 96.038,139.333 97.969 C 139.333 101.382,139.491 101.311,131.875 101.324 L 126.167 101.333 126.167 98.000 L 126.167 94.667 132.219 94.667 C 138.133 94.667,138.279 94.675,138.645 95.016 M185.822 95.161 C 186.783 95.651,186.833 95.946,186.833 101.114 C 186.833 107.867,187.451 107.334,179.630 107.333 C 172.029 107.332,172.607 107.797,172.529 101.628 C 172.462 96.277,172.558 95.671,173.551 95.180 C 174.601 94.660,184.808 94.644,185.822 95.161 M330.692 96.583 C 331.083 97.317,331.685 98.442,332.030 99.083 C 332.375 99.725,332.882 100.700,333.156 101.250 C 333.430 101.800,333.815 102.494,334.010 102.792 L 334.366 103.333 329.846 103.333 L 325.327 103.333 325.670 102.625 C 325.858 102.235,326.098 101.767,326.202 101.583 C 326.307 101.400,326.728 100.612,327.138 99.833 C 329.555 95.238,329.708 94.974,329.864 95.132 C 329.928 95.197,330.301 95.850,330.692 96.583 M55.040 103.145 C 55.748 103.484,56.355 103.921,56.682 104.328 L 57.201 104.973 57.710 104.392 C 60.246 101.504,65.893 102.145,67.886 105.546 C 70.053 109.244,68.643 113.564,63.791 118.087 C 62.229 119.543,57.510 123.167,57.176 123.167 C 57.054 123.167,55.963 122.420,54.751 121.507 C 48.314 116.659,45.625 113.144,45.639 109.597 C 45.659 104.486,50.662 101.052,55.040 103.145 M53.422 106.361 C 53.379 106.483,53.075 107.558,52.747 108.750 C 52.419 109.942,52.077 111.149,51.987 111.433 L 51.824 111.949 49.636 111.933 C 46.495 111.910,46.521 112.254,49.673 112.417 C 52.470 112.562,52.187 112.765,52.936 110.074 C 53.267 108.887,53.587 107.862,53.649 107.795 C 53.710 107.728,54.342 109.378,55.054 111.462 C 57.055 117.324,57.186 117.667,57.416 117.667 C 57.620 117.667,57.925 116.881,59.601 112.043 C 60.374 109.810,60.248 109.854,61.139 111.504 L 61.861 112.842 64.458 112.796 C 68.109 112.731,68.264 112.362,64.668 112.296 L 62.145 112.250 61.307 110.667 C 60.847 109.796,60.438 109.051,60.399 109.011 C 60.217 108.826,59.927 109.496,58.816 112.670 C 58.159 114.547,57.566 116.145,57.498 116.220 C 57.361 116.374,57.069 115.594,55.200 110.095 C 54.000 106.564,53.627 105.779,53.422 106.361 " stroke="none" fill="#fbfbfb" fill-rule="evenodd"></path><path id="path4" d="M55.801 5.625 C 55.483 5.995,55.290 6.333,55.395 6.333 C 55.440 6.333,55.638 6.108,55.833 5.833 C 56.222 5.288,56.202 5.159,55.801 5.625 M48.208 10.931 C 47.910 11.061,47.667 11.201,47.667 11.242 C 47.667 11.365,48.660 10.979,48.760 10.817 C 48.871 10.637,48.887 10.634,48.208 10.931 M50.792 15.262 C 50.169 15.600,50.207 15.741,50.833 15.417 C 51.108 15.274,51.333 15.123,51.333 15.079 C 51.333 14.972,51.315 14.978,50.792 15.262 M5.375 17.250 C 5.377 17.617,5.411 17.747,5.451 17.540 C 5.491 17.332,5.490 17.032,5.448 16.873 C 5.406 16.714,5.374 16.883,5.375 17.250 M16.794 17.118 C 17.001 17.158,17.301 17.156,17.460 17.115 C 17.620 17.073,17.450 17.040,17.083 17.042 C 16.717 17.044,16.586 17.078,16.794 17.118 M26.875 17.115 C 27.035 17.157,27.298 17.157,27.458 17.115 C 27.619 17.073,27.488 17.039,27.167 17.039 C 26.846 17.039,26.715 17.073,26.875 17.115 M19.375 17.286 C 19.627 17.324,20.040 17.324,20.292 17.286 C 20.544 17.248,20.337 17.217,19.833 17.217 C 19.329 17.217,19.123 17.248,19.375 17.286 M24.208 17.286 C 24.460 17.324,24.873 17.324,25.125 17.286 C 25.377 17.248,25.171 17.217,24.667 17.217 C 24.162 17.217,23.956 17.248,24.208 17.286 M5.214 19.750 C 5.216 20.208,5.248 20.376,5.286 20.123 C 5.325 19.869,5.324 19.494,5.284 19.289 C 5.244 19.084,5.213 19.292,5.214 19.750 M10.039 21.833 C 10.039 22.154,10.073 22.285,10.115 22.125 C 10.157 21.965,10.157 21.702,10.115 21.542 C 10.073 21.381,10.039 21.512,10.039 21.833 M19.128 22.287 C 19.428 22.325,19.878 22.324,20.128 22.286 C 20.378 22.248,20.133 22.217,19.583 22.218 C 19.033 22.219,18.828 22.250,19.128 22.287 M24.461 22.287 C 24.761 22.325,25.211 22.324,25.461 22.286 C 25.712 22.248,25.467 22.217,24.917 22.218 C 24.367 22.219,24.162 22.250,24.461 22.287 M9.890 26.583 C 9.891 27.317,9.920 27.596,9.956 27.204 C 9.991 26.812,9.990 26.212,9.954 25.871 C 9.919 25.529,9.890 25.850,9.890 26.583 M5.066 29.583 C 5.066 30.867,5.092 31.370,5.124 30.701 C 5.156 30.032,5.155 28.982,5.123 28.368 C 5.091 27.753,5.065 28.300,5.066 29.583 M29.179 32.292 C 28.260 35.720,29.668 39.136,32.840 41.171 C 33.570 41.640,33.669 41.772,33.689 42.309 L 33.711 42.917 33.814 42.368 C 33.870 42.067,34.073 41.729,34.265 41.618 C 35.041 41.169,37.059 39.791,37.383 39.489 C 37.574 39.312,37.784 39.167,37.851 39.167 C 37.993 39.167,40.644 37.366,40.970 37.048 C 41.091 36.930,41.297 36.833,41.427 36.833 C 41.557 36.833,41.753 36.690,41.862 36.516 C 42.044 36.224,42.095 36.219,42.488 36.450 C 42.900 36.692,42.904 36.691,42.583 36.415 C 42.213 36.098,41.041 35.536,40.309 35.326 L 39.833 35.190 39.833 36.074 L 39.833 36.958 38.447 36.909 C 34.067 36.752,31.383 35.337,29.978 32.444 C 29.521 31.503,29.396 31.480,29.179 32.292 M5.066 36.667 C 5.066 37.996,5.092 38.540,5.124 37.875 C 5.155 37.210,5.155 36.123,5.124 35.458 C 5.092 34.794,5.066 35.337,5.066 36.667 M43.500 37.250 C 43.811 37.571,44.103 37.833,44.149 37.833 C 44.195 37.833,43.978 37.571,43.667 37.250 C 43.356 36.929,43.064 36.667,43.018 36.667 C 42.972 36.667,43.189 36.929,43.500 37.250 M44.906 38.721 C 45.163 39.058,45.407 39.333,45.448 39.333 C 45.564 39.333,44.842 38.358,44.629 38.227 C 44.525 38.162,44.650 38.385,44.906 38.721 M9.889 39.500 C 9.889 40.188,9.919 40.469,9.955 40.125 C 9.991 39.781,9.991 39.219,9.955 38.875 C 9.919 38.531,9.889 38.813,9.889 39.500 M38.228 39.486 C 37.644 39.843,37.167 40.445,37.167 40.826 C 37.167 40.965,37.304 40.823,37.471 40.510 C 38.185 39.179,39.935 38.979,41.583 40.039 L 42.083 40.361 41.607 39.951 C 40.681 39.156,39.122 38.941,38.228 39.486 M55.083 41.833 C 55.441 42.200,55.772 42.500,55.818 42.500 C 55.863 42.500,55.608 42.200,55.250 41.833 C 54.892 41.467,54.562 41.167,54.516 41.167 C 54.470 41.167,54.725 41.467,55.083 41.833 M37.177 41.679 C 37.155 42.223,37.950 42.750,38.416 42.500 C 38.645 42.378,38.803 42.247,38.766 42.210 C 38.729 42.174,38.548 42.238,38.363 42.353 C 37.979 42.594,37.569 42.358,37.325 41.756 C 37.228 41.517,37.185 41.494,37.177 41.679 M39.708 41.948 C 39.869 41.990,40.131 41.990,40.292 41.948 C 40.452 41.906,40.321 41.872,40.000 41.872 C 39.679 41.872,39.548 41.906,39.708 41.948 M42.901 45.750 C 42.901 47.217,42.927 47.794,42.957 47.034 C 42.988 46.273,42.988 45.073,42.957 44.367 C 42.926 43.661,42.901 44.283,42.901 45.750 M10.050 44.500 C 10.050 45.004,10.081 45.210,10.119 44.958 C 10.158 44.706,10.158 44.294,10.119 44.042 C 10.081 43.790,10.050 43.996,10.050 44.500 M49.208 44.282 C 49.369 44.323,49.631 44.323,49.792 44.282 C 49.952 44.240,49.821 44.205,49.500 44.205 C 49.179 44.205,49.048 44.240,49.208 44.282 M5.217 46.333 C 5.217 46.837,5.248 47.044,5.286 46.792 C 5.324 46.540,5.324 46.127,5.286 45.875 C 5.248 45.623,5.217 45.829,5.217 46.333 M48.793 46.042 C 48.577 46.248,48.517 46.333,48.658 46.232 C 48.800 46.130,49.067 45.963,49.250 45.862 C 49.433 45.760,49.494 45.675,49.384 45.672 C 49.275 45.669,49.009 45.835,48.793 46.042 M55.960 45.785 C 56.168 45.824,56.468 45.823,56.627 45.781 C 56.786 45.739,56.617 45.707,56.250 45.709 C 55.883 45.711,55.753 45.745,55.960 45.785 M41.408 46.514 C 41.347 46.613,41.061 46.837,40.773 47.013 C 40.486 47.188,40.343 47.332,40.456 47.333 C 40.669 47.333,41.839 46.347,41.635 46.338 C 41.571 46.336,41.470 46.414,41.408 46.514 M10.217 47.833 C 10.217 48.337,10.248 48.544,10.286 48.292 C 10.324 48.040,10.324 47.627,10.286 47.375 C 10.248 47.123,10.217 47.329,10.217 47.833 M48.375 48.250 C 48.377 48.617,48.411 48.747,48.451 48.540 C 48.491 48.332,48.490 48.032,48.448 47.873 C 48.406 47.714,48.374 47.883,48.375 48.250 M5.381 48.917 C 5.382 49.375,5.415 49.543,5.453 49.289 C 5.491 49.036,5.490 48.661,5.451 48.456 C 5.411 48.251,5.380 48.458,5.381 48.917 M45.053 49.167 C 45.053 49.762,45.084 50.006,45.121 49.708 C 45.158 49.410,45.158 48.923,45.121 48.625 C 45.084 48.327,45.053 48.571,45.053 49.167 M45.545 49.167 C 45.545 49.579,45.578 49.748,45.618 49.542 C 45.657 49.335,45.657 48.998,45.618 48.792 C 45.578 48.585,45.545 48.754,45.545 49.167 M10.381 50.417 C 10.382 50.875,10.415 51.043,10.453 50.789 C 10.491 50.536,10.490 50.161,10.451 49.956 C 10.411 49.751,10.380 49.958,10.381 50.417 M5.542 51.083 C 5.544 51.450,5.578 51.580,5.618 51.373 C 5.658 51.166,5.656 50.866,5.615 50.706 C 5.573 50.547,5.540 50.717,5.542 51.083 M5.709 53.083 C 5.711 53.450,5.745 53.580,5.785 53.373 C 5.824 53.166,5.823 52.866,5.781 52.706 C 5.739 52.547,5.707 52.717,5.709 53.083 M47.000 53.219 C 47.000 53.248,47.244 53.491,47.542 53.760 L 48.083 54.250 47.594 53.708 C 47.138 53.203,47.000 53.090,47.000 53.219 M47.083 54.000 C 47.441 54.367,47.772 54.667,47.818 54.667 C 47.863 54.667,47.608 54.367,47.250 54.000 C 46.892 53.633,46.562 53.333,46.516 53.333 C 46.470 53.333,46.725 53.633,47.083 54.000 M54.409 57.042 L 53.750 57.750 54.458 57.091 C 55.117 56.478,55.243 56.333,55.117 56.333 C 55.090 56.333,54.771 56.652,54.409 57.042 M80.833 64.719 C 80.833 64.748,81.077 64.991,81.375 65.260 L 81.917 65.750 81.427 65.208 C 80.971 64.703,80.833 64.590,80.833 64.719 M69.293 74.541 C 69.373 78.262,69.435 78.622,69.468 75.542 C 69.486 73.869,69.444 72.500,69.375 72.500 C 69.306 72.500,69.270 73.418,69.293 74.541 M85.728 74.583 C 85.728 75.500,85.756 75.854,85.790 75.369 C 85.824 74.885,85.823 74.135,85.789 73.703 C 85.755 73.270,85.727 73.667,85.728 74.583 M59.538 86.875 C 59.517 91.710,59.556 95.667,59.625 95.667 C 59.739 95.667,59.737 89.083,59.621 81.167 C 59.596 79.471,59.559 82.040,59.538 86.875 M82.577 81.875 L 81.750 82.750 82.625 81.923 C 83.106 81.468,83.500 81.074,83.500 81.048 C 83.500 80.924,83.346 81.062,82.577 81.875 M14.333 92.064 C 14.333 92.243,14.829 93.167,14.925 93.167 C 14.971 93.167,14.885 92.923,14.733 92.625 C 14.424 92.017,14.333 91.890,14.333 92.064 M65.292 92.262 C 64.669 92.600,64.707 92.741,65.333 92.417 C 65.608 92.274,65.833 92.123,65.833 92.079 C 65.833 91.972,65.815 91.978,65.292 92.262 M20.083 92.667 C 20.226 92.942,20.379 93.167,20.425 93.167 C 20.471 93.167,20.392 92.942,20.250 92.667 C 20.108 92.392,19.954 92.167,19.908 92.167 C 19.862 92.167,19.941 92.392,20.083 92.667 M21.834 103.917 C 22.063 104.192,22.269 104.448,22.292 104.486 C 22.315 104.524,22.370 104.519,22.415 104.474 C 22.460 104.429,22.254 104.173,21.957 103.905 L 21.418 103.417 21.834 103.917 M32.167 108.385 C 32.167 108.414,32.410 108.658,32.708 108.927 L 33.250 109.417 32.760 108.875 C 32.304 108.370,32.167 108.257,32.167 108.385 M26.654 109.722 C 27.079 110.189,27.170 110.247,27.161 110.042 C 27.159 109.973,26.952 109.773,26.703 109.597 L 26.250 109.277 26.654 109.722 M34.000 110.379 C 34.000 110.404,34.581 110.986,35.292 111.671 L 36.583 112.917 35.338 111.625 C 34.180 110.425,34.000 110.257,34.000 110.379 M27.667 110.883 C 27.667 110.914,27.854 111.103,28.083 111.302 C 28.313 111.501,28.500 111.599,28.500 111.518 C 28.500 111.438,28.313 111.249,28.083 111.099 C 27.854 110.949,27.667 110.851,27.667 110.883 M30.681 114.103 C 30.902 114.389,31.117 114.593,31.158 114.556 C 31.199 114.520,31.018 114.286,30.755 114.037 L 30.279 113.583 30.681 114.103 M31.347 114.875 C 31.385 114.898,31.642 115.104,31.917 115.333 L 32.417 115.750 32.013 115.292 C 31.790 115.040,31.534 114.833,31.443 114.833 C 31.352 114.833,31.309 114.852,31.347 114.875 M39.917 116.333 C 40.461 116.883,40.944 117.333,40.990 117.333 C 41.035 117.333,40.628 116.883,40.083 116.333 C 39.539 115.783,39.056 115.333,39.010 115.333 C 38.965 115.333,39.372 115.783,39.917 116.333 M42.000 118.219 C 42.000 118.248,42.244 118.491,42.542 118.760 L 43.083 119.250 42.594 118.708 C 42.138 118.203,42.000 118.090,42.000 118.219 M36.929 120.349 C 37.197 120.679,37.450 120.920,37.491 120.885 C 37.533 120.851,37.313 120.581,37.004 120.286 L 36.441 119.750 36.929 120.349 M38.500 121.886 C 38.500 121.927,38.775 122.170,39.112 122.427 C 39.448 122.684,39.671 122.809,39.607 122.705 C 39.475 122.491,38.500 121.770,38.500 121.886 M40.073 123.316 C 40.135 123.416,40.340 123.581,40.529 123.682 C 40.776 123.814,40.842 123.815,40.761 123.684 C 40.699 123.584,40.493 123.419,40.304 123.318 C 40.057 123.186,39.992 123.185,40.073 123.316 M41.833 124.719 C 41.833 124.748,42.077 124.991,42.375 125.260 L 42.917 125.750 42.427 125.208 C 41.971 124.703,41.833 124.590,41.833 124.719 " stroke="none" fill="#31c427" fill-rule="evenodd"></path></g></svg>