<svg id="svg" version="1.1" xmlns="http://www.w3.org/2000/svg" xmlns:xlink="http://www.w3.org/1999/xlink" width="400" height="139.64757709251103" viewBox="0, 0, 400,139.64757709251103"><g id="svgg"><path id="path0" d="M55.583 12.410 C 44.264 20.516,29.060 23.792,12.583 21.677 C 11.300 21.512,10.219 21.405,10.181 21.438 C 9.513 22.029,10.017 47.919,10.840 55.333 C 12.732 72.377,15.206 82.584,19.576 91.362 C 25.082 102.423,45.078 122.918,56.623 129.333 C 57.480 129.809,57.237 129.914,60.923 127.475 C 70.956 120.837,83.862 107.954,91.702 96.750 C 98.625 86.857,102.829 69.666,104.195 45.667 C 104.442 41.324,104.482 21.747,104.244 21.513 C 104.143 21.413,103.192 21.469,101.667 21.664 C 85.202 23.772,70.031 20.458,58.598 12.255 C 57.043 11.140,57.382 11.122,55.583 12.410 M50.215 23.807 C 53.351 25.625,58.429 28.562,61.500 30.333 C 64.571 32.104,68.396 34.317,70.000 35.250 C 71.604 36.183,74.674 37.952,76.823 39.182 C 81.764 42.009,83.413 43.471,84.740 46.202 C 87.506 51.892,85.369 57.642,79.183 61.157 C 77.017 62.389,77.006 62.133,79.282 63.573 C 85.012 67.198,87.362 73.697,84.830 78.917 C 83.698 81.251,82.131 82.701,78.500 84.777 C 77.537 85.327,74.612 87.016,72.000 88.531 C 67.447 91.170,64.826 92.686,61.286 94.727 C 60.389 95.244,59.620 95.667,59.577 95.667 C 59.535 95.667,59.500 91.746,59.500 86.955 L 59.500 78.244 61.375 77.149 C 62.406 76.547,64.595 75.255,66.239 74.277 C 67.884 73.300,69.290 72.500,69.364 72.500 C 69.439 72.500,69.500 73.851,69.500 75.501 L 69.500 78.503 70.458 77.967 C 74.513 75.699,75.084 75.171,74.958 73.813 C 74.856 72.715,74.380 72.163,72.714 71.212 C 68.100 68.578,67.352 68.167,67.180 68.167 C 67.076 68.167,64.762 69.466,62.037 71.053 C 59.313 72.641,56.503 74.272,55.794 74.678 L 54.504 75.417 54.502 86.684 L 54.500 97.951 54.125 98.499 C 53.919 98.800,53.262 99.324,52.667 99.662 C 51.675 100.225,48.750 101.909,42.582 105.466 C 41.298 106.207,40.116 106.863,39.955 106.925 C 39.679 107.031,39.665 106.714,39.706 101.310 L 39.750 95.583 42.083 94.247 L 44.417 92.912 44.500 81.652 L 44.583 70.392 45.017 69.738 C 45.387 69.178,46.298 68.601,51.307 65.750 C 56.457 62.819,57.128 62.391,56.873 62.201 C 56.714 62.082,55.290 61.257,53.710 60.367 C 50.893 58.782,50.847 58.747,51.377 58.605 C 52.905 58.196,53.460 57.889,54.459 56.897 C 56.505 54.866,57.096 52.132,55.132 53.783 C 50.358 57.797,43.491 52.551,46.076 46.865 C 47.192 44.411,50.199 43.290,51.082 44.998 C 51.417 45.646,51.411 46.065,51.069 45.934 C 48.114 44.800,46.731 48.617,49.221 51.034 C 51.068 52.825,54.103 52.382,55.417 50.129 C 55.604 49.809,55.041 49.521,61.500 53.248 C 66.680 56.236,67.147 56.500,67.269 56.500 C 67.516 56.500,73.615 52.922,74.045 52.524 C 74.977 51.663,75.054 50.058,74.202 49.260 C 73.954 49.027,71.866 47.767,69.564 46.460 C 67.262 45.153,60.645 41.383,54.858 38.083 L 44.338 32.083 44.336 26.292 C 44.334 23.106,44.374 20.500,44.423 20.500 C 44.473 20.500,47.079 21.988,50.215 23.807 M29.978 32.444 C 31.342 35.251,33.808 36.624,37.792 36.792 L 39.833 36.878 39.851 36.481 C 39.861 36.262,39.855 35.881,39.839 35.633 C 39.754 34.322,44.221 37.221,45.524 39.322 L 45.776 39.728 46.350 39.289 C 48.294 37.807,51.557 37.190,52.769 38.077 C 53.075 38.300,53.074 38.317,52.729 38.695 C 52.362 39.098,51.932 39.835,52.028 39.897 C 52.059 39.917,52.659 40.212,53.362 40.552 C 56.017 41.839,58.146 45.833,56.177 45.833 C 55.332 45.833,55.328 45.843,55.286 47.869 C 55.255 49.338,55.194 49.673,54.860 50.210 C 53.694 52.086,50.663 52.179,49.183 50.384 C 47.380 48.196,48.898 45.140,51.116 46.493 C 52.025 47.047,52.113 45.556,51.233 44.510 C 49.193 42.086,45.250 45.155,45.250 49.167 C 45.250 54.669,50.649 57.559,55.037 54.406 C 55.798 53.859,55.853 53.843,55.743 54.198 C 54.467 58.333,49.307 59.494,45.992 56.393 C 43.729 54.276,42.845 51.202,42.835 45.417 C 42.829 41.534,42.481 40.424,41.058 39.749 C 39.195 38.865,37.267 39.641,37.267 41.275 C 37.267 42.201,37.816 42.625,38.558 42.273 C 40.862 41.180,42.754 42.718,42.159 45.201 C 41.689 47.157,39.939 47.913,38.191 46.915 C 37.792 46.687,37.241 46.500,36.967 46.500 C 35.377 46.500,33.667 44.255,33.667 42.169 C 33.667 41.792,33.510 41.601,32.856 41.181 C 29.679 39.142,28.240 35.666,29.176 32.292 C 29.401 31.481,29.521 31.504,29.978 32.444 M55.040 103.145 C 55.748 103.484,56.355 103.921,56.682 104.328 L 57.201 104.973 57.710 104.392 C 60.246 101.504,65.893 102.145,67.886 105.546 C 70.053 109.244,68.643 113.564,63.791 118.087 C 62.229 119.543,57.510 123.167,57.176 123.167 C 57.054 123.167,55.963 122.420,54.751 121.507 C 48.314 116.659,45.625 113.144,45.639 109.597 C 45.659 104.486,50.662 101.052,55.040 103.145 M53.422 106.361 C 53.379 106.483,53.075 107.558,52.747 108.750 C 52.419 109.942,52.077 111.149,51.987 111.433 L 51.824 111.949 49.636 111.933 C 46.495 111.910,46.521 112.254,49.673 112.417 C 52.470 112.562,52.187 112.765,52.936 110.074 C 53.267 108.887,53.587 107.862,53.649 107.795 C 53.710 107.728,54.342 109.378,55.054 111.462 C 57.055 117.324,57.186 117.667,57.416 117.667 C 57.620 117.667,57.925 116.881,59.601 112.043 C 60.374 109.810,60.248 109.854,61.139 111.504 L 61.861 112.842 64.458 112.796 C 68.109 112.731,68.264 112.362,64.668 112.296 L 62.145 112.250 61.307 110.667 C 60.847 109.796,60.438 109.051,60.399 109.011 C 60.217 108.826,59.927 109.496,58.816 112.670 C 58.159 114.547,57.566 116.145,57.498 116.220 C 57.361 116.374,57.069 115.594,55.200 110.095 C 54.000 106.564,53.627 105.779,53.422 106.361 " stroke="none" fill="#fbfbfb" fill-rule="evenodd"></path><path id="path1" d="M44.340 26.292 L 44.346 32.083 45.798 32.892 C 57.122 39.198,74.266 49.155,74.536 49.583 C 75.051 50.399,74.875 51.704,74.152 52.421 C 73.839 52.731,70.846 54.552,67.500 56.467 C 64.154 58.382,60.685 60.373,59.792 60.891 C 58.898 61.409,57.435 62.257,56.542 62.776 C 55.648 63.294,54.054 64.205,53.000 64.800 C 50.344 66.299,49.774 66.676,49.940 66.824 C 50.204 67.060,59.514 72.333,59.665 72.333 C 59.748 72.333,61.151 71.555,62.783 70.603 C 64.415 69.652,67.550 67.839,69.750 66.575 C 77.749 61.980,80.601 60.288,81.471 59.621 C 87.097 55.305,87.329 47.458,81.973 42.596 C 80.948 41.665,80.214 41.195,75.833 38.666 C 74.688 38.004,73.262 37.180,72.667 36.833 C 72.071 36.487,70.683 35.683,69.583 35.047 C 68.483 34.411,66.083 33.022,64.250 31.961 C 50.095 23.765,44.437 20.500,44.389 20.500 C 44.358 20.500,44.336 23.106,44.340 26.292 M50.958 102.670 C 46.758 103.731,44.456 108.625,46.302 112.570 C 47.582 115.305,50.202 118.044,54.964 121.627 C 57.425 123.478,56.896 123.477,59.365 121.641 C 65.836 116.828,68.833 112.951,68.833 109.390 C 68.833 105.933,66.827 103.329,63.636 102.644 C 61.608 102.210,58.365 103.284,57.523 104.670 L 57.225 105.159 56.737 104.493 C 55.715 103.096,52.851 102.193,50.958 102.670 M55.137 109.845 C 57.227 115.963,57.382 116.373,57.511 116.138 C 57.578 116.016,58.140 114.454,58.760 112.667 C 60.279 108.286,60.163 108.381,61.308 110.589 L 62.083 112.083 64.583 112.167 C 66.657 112.236,67.083 112.293,67.083 112.500 C 67.083 112.712,66.676 112.750,64.417 112.750 L 61.750 112.750 61.083 111.459 C 60.318 109.977,60.268 109.945,60.036 110.792 C 59.786 111.699,57.863 117.134,57.650 117.532 C 57.344 118.103,57.167 117.711,55.399 112.538 L 53.706 107.583 53.343 108.833 C 53.143 109.521,52.913 110.308,52.832 110.583 C 52.752 110.858,52.603 111.402,52.503 111.792 L 52.320 112.500 50.702 112.499 C 46.766 112.495,45.801 111.874,49.611 111.796 L 51.889 111.750 52.574 109.250 C 53.399 106.241,53.444 106.121,53.708 106.206 C 53.823 106.244,54.466 107.881,55.137 109.845 " stroke="none" fill="#e20404" fill-rule="evenodd"></path><path id="path2" d="M57.132 7.875 L 57.182 11.250 58.382 12.110 C 70.041 20.464,85.093 23.786,101.667 21.664 C 103.192 21.469,104.143 21.413,104.244 21.513 C 104.482 21.747,104.442 41.324,104.195 45.667 C 102.829 69.666,98.625 86.857,91.702 96.750 C 86.495 104.190,77.311 114.249,69.833 120.701 C 66.298 123.752,59.396 128.761,57.685 129.518 L 57.181 129.742 57.132 132.621 C 57.105 134.205,57.141 135.500,57.212 135.500 C 57.451 135.500,60.076 134.126,60.597 133.728 C 60.882 133.511,61.161 133.333,61.218 133.333 C 61.275 133.333,61.972 132.902,62.767 132.375 C 63.562 131.848,64.496 131.229,64.842 131.000 C 65.954 130.263,66.858 129.597,67.498 129.042 C 67.842 128.744,68.197 128.500,68.286 128.500 C 68.375 128.500,68.591 128.340,68.766 128.145 C 68.940 127.950,69.319 127.631,69.608 127.437 C 72.028 125.805,80.044 118.354,83.892 114.161 C 84.519 113.477,85.240 112.692,85.493 112.417 C 86.144 111.707,91.016 105.992,91.417 105.467 C 93.072 103.296,94.437 101.563,94.692 101.308 C 94.861 101.139,95.000 100.930,95.000 100.845 C 95.000 100.760,95.096 100.591,95.214 100.470 C 96.734 98.909,99.994 92.664,101.725 88.000 C 103.326 83.689,106.178 73.243,106.164 71.743 C 106.162 71.564,106.420 69.954,106.736 68.167 C 107.053 66.379,107.397 64.167,107.501 63.250 C 107.605 62.333,107.871 60.172,108.091 58.448 C 108.312 56.723,108.569 53.836,108.663 52.031 C 108.757 50.226,108.872 48.375,108.919 47.917 C 109.490 42.369,109.477 25.018,108.897 16.875 C 108.773 15.121,108.870 15.194,107.167 15.574 C 95.730 18.127,82.478 17.537,73.247 14.065 C 72.420 13.754,71.677 13.500,71.595 13.500 C 71.410 13.500,68.673 12.287,67.667 11.758 C 65.119 10.421,63.390 9.410,62.800 8.914 C 62.529 8.686,62.205 8.500,62.079 8.500 C 61.953 8.500,61.790 8.402,61.717 8.283 C 61.643 8.164,61.321 7.888,61.000 7.670 C 60.395 7.260,58.615 5.772,57.760 4.963 C 57.491 4.709,57.228 4.500,57.177 4.500 C 57.125 4.500,57.105 6.018,57.132 7.875 M85.881 50.917 C 85.882 51.375,85.915 51.543,85.953 51.289 C 85.991 51.036,85.990 50.661,85.951 50.456 C 85.911 50.251,85.880 50.458,85.881 50.917 M47.674 67.811 C 45.988 68.790,45.325 69.273,45.007 69.752 L 44.583 70.391 44.500 81.651 L 44.417 92.912 42.083 94.247 L 39.750 95.583 39.706 101.310 C 39.665 106.714,39.679 107.031,39.955 106.925 C 40.116 106.863,41.298 106.207,42.582 105.466 C 48.750 101.909,51.675 100.225,52.667 99.662 C 53.262 99.324,53.919 98.800,54.125 98.499 L 54.500 97.951 54.500 86.684 L 54.501 75.417 57.089 73.936 C 59.337 72.651,59.639 72.430,59.381 72.260 C 59.217 72.152,57.003 70.878,54.460 69.429 C 51.918 67.980,49.878 66.729,49.929 66.647 C 50.069 66.421,50.061 66.425,47.674 67.811 M51.042 111.948 C 51.202 111.990,51.465 111.990,51.625 111.948 C 51.785 111.906,51.654 111.872,51.333 111.872 C 51.012 111.872,50.881 111.906,51.042 111.948 M62.146 112.213 C 62.218 112.284,63.358 112.322,64.680 112.296 L 67.083 112.249 64.549 112.166 C 63.156 112.121,62.074 112.142,62.146 112.213 M48.794 112.451 C 49.001 112.491,49.301 112.490,49.460 112.448 C 49.620 112.406,49.450 112.374,49.083 112.375 C 48.717 112.377,48.586 112.411,48.794 112.451 M49.333 116.917 C 49.644 117.237,49.936 117.500,49.982 117.500 C 50.028 117.500,49.811 117.237,49.500 116.917 C 49.189 116.596,48.897 116.333,48.851 116.333 C 48.805 116.333,49.022 116.596,49.333 116.917 " stroke="none" fill="#fbcb04" fill-rule="evenodd"></path><path id="path3" d="M122.333 40.667 L 122.333 52.000 126.750 52.000 L 131.167 52.000 131.167 48.667 L 131.167 45.333 133.500 45.333 C 134.945 45.333,135.833 45.397,135.833 45.500 C 135.833 45.697,138.013 48.891,138.203 48.972 C 138.275 49.003,138.333 49.123,138.333 49.240 C 138.333 49.357,138.595 49.782,138.915 50.185 C 139.235 50.587,139.500 50.992,139.504 51.083 C 139.542 51.958,139.800 52.000,145.152 52.000 C 147.910 52.000,150.167 51.967,150.167 51.927 C 150.167 51.887,149.815 51.343,149.385 50.719 C 148.955 50.094,148.319 49.157,147.970 48.636 C 147.622 48.115,147.257 47.639,147.158 47.578 C 147.060 47.517,146.909 47.306,146.823 47.109 C 146.737 46.911,146.369 46.337,146.004 45.833 C 145.164 44.671,145.168 44.637,146.159 44.285 C 147.287 43.884,147.922 43.305,148.550 42.103 L 149.083 41.083 149.083 37.167 L 149.083 33.250 148.535 32.123 C 147.205 29.385,146.922 29.333,133.298 29.333 L 122.333 29.333 122.333 40.667 M154.250 29.675 C 151.770 30.493,151.248 31.652,151.254 36.333 C 151.259 39.994,151.480 40.937,152.555 41.876 C 153.813 42.975,154.226 43.045,162.750 43.598 C 170.063 44.072,169.755 44.002,169.738 45.189 C 169.720 46.353,169.834 46.328,164.464 46.331 C 159.036 46.334,159.333 46.415,159.333 44.928 L 159.333 44.167 155.062 44.167 L 150.790 44.167 150.867 46.375 C 150.983 49.681,151.686 50.951,153.786 51.653 C 155.398 52.192,174.102 52.192,175.714 51.653 C 178.119 50.849,178.579 49.794,178.582 45.080 L 178.583 41.576 178.000 40.419 C 177.090 38.613,176.103 38.169,172.552 37.970 C 160.157 37.273,160.119 37.267,160.200 36.015 L 160.250 35.250 164.750 35.205 C 169.757 35.156,169.667 35.136,169.667 36.282 L 169.667 36.833 173.940 36.833 L 178.212 36.833 178.116 34.875 C 177.960 31.713,177.423 30.663,175.500 29.766 C 174.355 29.232,155.835 29.153,154.250 29.675 M180.503 37.958 C 180.506 48.375,180.619 49.107,182.460 50.621 C 184.037 51.918,183.961 51.909,193.917 51.964 L 202.750 52.012 204.114 51.588 C 206.103 50.968,206.923 50.105,207.602 47.917 C 207.887 46.996,207.912 46.222,207.914 38.167 L 207.917 29.417 203.458 29.372 L 199.000 29.328 199.000 36.632 C 199.000 42.674,198.959 43.992,198.764 44.260 C 198.516 44.599,191.999 44.860,190.552 44.588 C 189.279 44.350,189.333 44.708,189.333 36.583 L 189.333 29.333 184.917 29.333 L 180.500 29.333 180.503 37.958 M210.111 29.444 C 210.050 29.506,210.000 34.606,210.000 40.778 L 210.000 52.000 220.708 51.998 C 229.895 51.996,231.547 51.959,232.333 51.736 C 232.838 51.594,233.483 51.417,233.768 51.345 C 235.594 50.878,237.519 48.372,238.001 45.830 C 238.230 44.621,238.214 36.572,237.980 35.467 C 237.315 32.324,235.345 30.343,232.131 29.585 C 231.031 29.326,210.362 29.194,210.111 29.444 M140.000 36.000 C 140.391 36.391,140.491 38.609,140.133 38.967 C 139.988 39.112,138.737 39.167,135.550 39.167 L 131.167 39.167 131.167 37.417 L 131.167 35.667 135.417 35.667 C 139.444 35.667,139.684 35.684,140.000 36.000 M228.719 37.069 C 229.322 37.628,229.364 37.911,229.303 41.072 L 229.250 43.863 228.782 44.265 L 228.315 44.667 223.657 44.667 L 219.000 44.667 219.000 40.667 L 219.000 36.667 223.642 36.667 L 228.285 36.667 228.719 37.069 M122.333 72.083 L 122.333 83.333 126.750 83.333 L 131.167 83.333 131.167 80.510 L 131.167 77.687 138.125 77.623 C 146.892 77.542,147.395 77.407,148.598 74.802 L 149.083 73.750 149.135 69.537 C 149.202 64.172,148.935 63.151,147.104 61.754 C 145.949 60.873,145.538 60.846,133.458 60.839 L 122.333 60.833 122.333 72.083 M150.833 72.083 L 150.833 83.333 163.083 83.333 L 175.333 83.333 175.333 80.083 L 175.333 76.833 167.500 76.833 L 159.667 76.833 159.667 75.750 L 159.667 74.667 166.750 74.667 L 173.833 74.667 173.833 71.917 L 173.833 69.167 166.750 69.167 L 159.667 69.167 159.667 68.250 L 159.667 67.333 167.417 67.333 L 175.167 67.333 175.167 64.083 L 175.167 60.833 163.000 60.833 L 150.833 60.833 150.833 72.083 M176.000 64.667 L 176.000 68.500 180.333 68.500 L 184.667 68.500 184.667 75.917 L 184.667 83.333 189.083 83.333 L 193.500 83.333 193.500 75.917 L 193.500 68.500 197.833 68.500 L 202.167 68.500 202.167 64.667 L 202.167 60.833 189.083 60.833 L 176.000 60.833 176.000 64.667 M205.567 64.789 C 204.501 66.968,202.915 70.212,202.044 72.000 C 200.039 76.113,196.642 83.044,196.550 83.208 C 196.512 83.277,198.647 83.333,201.295 83.333 L 206.110 83.333 206.755 81.917 L 207.400 80.500 212.325 80.503 L 217.250 80.506 217.854 81.878 L 218.459 83.250 223.396 83.294 C 229.062 83.345,228.682 83.484,227.770 81.691 C 227.460 81.082,226.365 78.858,225.338 76.750 C 223.623 73.232,221.715 69.335,218.728 63.250 L 217.583 60.917 212.544 60.873 L 207.506 60.828 205.567 64.789 M229.333 72.083 L 229.333 83.333 245.490 83.333 C 258.233 83.333,261.675 83.289,261.782 83.125 C 261.856 83.010,262.151 82.392,262.436 81.750 L 262.956 80.583 267.915 80.583 L 272.874 80.583 273.479 81.955 L 274.083 83.327 279.042 83.330 C 282.851 83.333,284.000 83.286,284.000 83.129 C 284.000 82.943,281.817 78.370,280.956 76.750 C 280.432 75.765,280.344 75.587,278.328 71.417 C 277.309 69.308,275.726 66.065,274.811 64.208 L 273.147 60.833 268.115 60.845 L 263.083 60.856 262.463 62.136 C 259.616 68.012,254.363 78.769,253.780 79.917 C 253.593 80.283,253.390 80.696,253.329 80.833 C 253.267 80.971,253.036 81.443,252.816 81.882 L 252.417 82.680 252.372 79.257 L 252.327 75.833 245.330 75.833 L 238.333 75.833 238.333 68.333 L 238.333 60.833 233.833 60.833 L 229.333 60.833 229.333 72.083 M294.500 72.084 L 294.500 83.346 306.542 83.298 C 319.792 83.245,319.047 83.304,320.278 82.215 C 322.374 80.362,321.963 72.194,319.772 72.164 C 319.161 72.156,319.140 71.858,319.710 71.311 C 321.592 69.504,321.517 63.861,319.585 61.930 C 318.566 60.910,318.845 60.932,306.125 60.875 L 294.500 60.823 294.500 72.084 M323.535 69.974 L 323.583 79.115 324.239 80.406 C 325.673 83.231,325.760 83.250,337.417 83.250 L 346.750 83.250 347.716 82.776 C 348.908 82.190,349.695 81.398,350.292 80.182 L 350.750 79.250 350.801 70.042 L 350.851 60.833 346.426 60.833 L 342.000 60.833 342.000 68.133 C 342.000 73.589,341.949 75.484,341.800 75.633 C 341.412 76.022,332.718 75.907,332.506 75.511 C 332.395 75.303,332.333 72.640,332.333 68.011 L 332.333 60.833 327.910 60.833 L 323.487 60.833 323.535 69.974 M353.167 72.083 L 353.167 83.333 357.333 83.333 L 361.500 83.333 361.501 78.542 C 361.502 73.926,361.512 73.766,361.793 74.193 C 362.356 75.050,364.955 78.422,365.226 78.647 C 365.377 78.772,365.502 78.959,365.505 79.062 C 365.508 79.165,365.732 79.494,366.003 79.792 L 366.495 80.333 368.908 80.333 C 371.201 80.333,371.331 80.316,371.512 79.978 C 371.683 79.657,373.306 77.484,374.668 75.750 C 374.956 75.383,375.429 74.761,375.721 74.367 L 376.250 73.651 376.294 78.492 L 376.338 83.333 380.419 83.333 L 384.500 83.333 384.500 72.080 L 384.500 60.827 380.715 60.872 L 376.929 60.917 376.460 61.583 C 376.201 61.950,375.749 62.565,375.453 62.951 C 375.158 63.336,374.362 64.424,373.683 65.367 C 373.005 66.311,372.301 67.249,372.118 67.452 C 371.936 67.655,371.704 67.963,371.602 68.137 C 371.500 68.311,370.967 69.034,370.417 69.745 C 369.867 70.456,369.336 71.178,369.236 71.349 C 369.000 71.757,368.776 71.516,366.484 68.371 C 365.530 67.063,364.510 65.675,364.216 65.288 C 363.922 64.900,363.424 64.208,363.109 63.750 C 362.793 63.292,362.340 62.707,362.101 62.450 C 361.862 62.193,361.667 61.916,361.667 61.833 C 361.667 61.751,361.489 61.492,361.273 61.259 L 360.878 60.833 357.023 60.833 L 353.167 60.833 353.167 72.083 M387.000 72.083 L 387.000 83.333 391.500 83.333 L 396.000 83.333 396.000 72.083 L 396.000 60.833 391.500 60.833 L 387.000 60.833 387.000 72.083 M75.417 63.307 C 74.500 63.841,72.342 65.091,70.621 66.084 C 67.263 68.023,67.244 68.044,68.316 68.611 C 68.706 68.817,69.367 69.177,69.784 69.410 C 70.889 70.027,70.361 70.262,75.750 66.756 C 76.483 66.279,77.664 65.520,78.373 65.069 C 79.888 64.106,79.888 64.139,78.404 63.135 C 76.997 62.183,77.386 62.160,75.417 63.307 M311.903 67.268 C 312.320 67.428,312.272 69.098,311.844 69.327 C 311.648 69.433,309.957 69.500,307.511 69.500 L 303.500 69.500 303.500 68.333 L 303.500 67.167 307.570 67.167 C 309.808 67.167,311.758 67.212,311.903 67.268 M140.006 67.673 C 140.305 67.972,140.340 68.188,140.298 69.460 C 140.233 71.413,140.461 71.328,135.292 71.331 L 131.167 71.333 131.167 69.333 L 131.167 67.333 135.417 67.333 C 139.471 67.333,139.682 67.349,140.006 67.673 M268.572 70.333 C 269.447 72.302,270.191 74.057,270.286 74.375 C 270.365 74.643,270.178 74.667,267.936 74.667 C 266.596 74.667,265.499 74.610,265.499 74.542 C 265.497 74.379,266.538 71.921,267.265 70.372 C 267.578 69.706,267.839 69.031,267.846 68.872 C 267.857 68.648,267.877 68.640,267.938 68.833 C 267.982 68.971,268.267 69.646,268.572 70.333 M213.071 70.616 C 213.418 71.423,213.950 72.646,214.253 73.333 L 214.803 74.583 212.378 74.630 C 209.466 74.685,209.652 74.841,210.483 73.037 C 210.859 72.221,211.167 71.495,211.167 71.424 C 211.167 71.154,212.229 69.019,212.331 69.082 C 212.391 69.119,212.724 69.809,213.071 70.616 M312.500 74.663 C 312.826 74.869,312.842 76.505,312.521 76.891 C 312.319 77.135,311.782 77.167,307.896 77.167 L 303.500 77.167 303.500 75.833 L 303.500 74.500 307.875 74.503 C 310.341 74.504,312.359 74.574,312.500 74.663 M122.333 101.074 L 122.333 110.500 124.250 110.500 L 126.167 110.500 126.167 107.348 L 126.167 104.197 133.292 104.134 C 141.081 104.066,141.092 104.065,142.033 103.062 C 143.530 101.467,143.661 94.656,142.228 92.939 C 141.178 91.681,141.819 91.756,131.544 91.699 L 122.333 91.649 122.333 101.074 M145.333 101.083 L 145.333 110.500 147.250 110.500 L 149.167 110.500 149.167 107.083 L 149.167 103.667 153.052 103.667 L 156.938 103.667 157.357 104.125 C 157.588 104.377,158.288 105.258,158.914 106.083 C 159.539 106.908,160.151 107.643,160.275 107.717 C 160.399 107.790,160.500 107.932,160.500 108.031 C 160.500 108.131,160.781 108.531,161.125 108.921 C 161.469 109.311,161.885 109.825,162.049 110.065 C 162.347 110.498,162.361 110.500,164.597 110.500 L 166.845 110.500 166.646 110.125 C 166.536 109.919,166.198 109.450,165.893 109.083 C 164.811 107.781,164.164 106.979,162.261 104.583 L 161.335 103.417 161.876 103.374 C 165.184 103.116,166.000 101.943,166.000 97.443 C 166.000 91.564,166.226 91.670,153.792 91.668 L 145.333 91.667 145.333 101.083 M171.917 91.816 C 169.091 92.319,168.750 93.316,168.750 101.083 C 168.750 110.823,168.246 110.377,179.342 110.458 C 191.073 110.544,190.667 110.882,190.667 101.052 C 190.667 93.801,190.533 93.265,188.417 92.040 C 187.885 91.731,173.490 91.537,171.917 91.816 M191.254 92.037 C 191.317 92.246,191.562 92.754,191.800 93.167 C 192.038 93.579,192.471 94.367,192.764 94.917 C 193.056 95.467,193.529 96.329,193.814 96.833 C 194.099 97.337,194.639 98.313,195.013 99.000 C 195.387 99.688,195.901 100.625,196.156 101.083 C 197.760 103.966,198.445 105.208,198.960 106.167 C 199.280 106.763,199.645 107.368,199.771 107.513 C 199.897 107.658,200.000 107.891,200.000 108.032 C 200.000 108.173,200.140 108.467,200.310 108.686 C 200.481 108.904,200.783 109.402,200.980 109.792 L 201.340 110.500 203.128 110.498 L 204.917 110.496 205.542 109.487 C 205.885 108.931,206.167 108.394,206.167 108.293 C 206.167 108.192,206.273 107.991,206.402 107.846 C 206.532 107.702,206.912 107.058,207.248 106.417 C 207.584 105.775,208.197 104.650,208.610 103.917 C 209.450 102.426,210.207 101.047,211.103 99.375 C 211.435 98.756,211.848 98.051,212.020 97.808 C 212.192 97.564,212.333 97.270,212.333 97.154 C 212.333 97.038,212.437 96.825,212.564 96.680 C 212.691 96.535,213.113 95.817,213.503 95.083 C 213.892 94.350,214.426 93.352,214.689 92.865 C 215.355 91.632,215.398 91.667,213.178 91.667 L 211.190 91.667 210.530 92.875 C 210.168 93.540,209.476 94.833,208.993 95.750 C 208.510 96.667,207.826 97.960,207.474 98.625 C 207.122 99.290,206.545 100.378,206.192 101.043 C 205.839 101.709,205.223 102.853,204.823 103.585 C 204.423 104.317,203.918 105.279,203.701 105.723 C 203.484 106.166,203.285 106.504,203.260 106.473 C 203.234 106.442,202.837 105.704,202.379 104.833 C 201.920 103.962,201.264 102.725,200.921 102.083 C 200.577 101.442,199.845 100.054,199.292 99.000 C 198.740 97.946,198.227 97.005,198.152 96.909 C 198.077 96.813,197.748 96.213,197.421 95.576 C 197.094 94.938,196.509 93.817,196.122 93.083 L 195.417 91.750 193.279 91.703 L 191.141 91.657 191.254 92.037 M216.833 101.083 L 216.833 110.500 218.833 110.500 L 220.833 110.500 220.833 101.083 L 220.833 91.667 218.833 91.667 L 216.833 91.667 216.833 101.083 M224.000 101.083 L 224.000 110.500 225.832 110.500 L 227.663 110.500 227.707 103.548 L 227.750 96.595 228.421 97.256 C 228.790 97.619,229.942 98.704,230.981 99.667 C 232.021 100.629,233.182 101.717,233.563 102.083 C 234.362 102.853,237.677 105.937,240.607 108.636 L 242.631 110.500 244.149 110.500 L 245.667 110.500 245.667 101.083 L 245.667 91.667 243.835 91.667 L 242.004 91.667 241.960 98.485 L 241.917 105.302 240.568 104.026 C 239.827 103.324,238.368 101.962,237.328 101.000 C 235.536 99.343,233.526 97.461,232.167 96.167 C 231.830 95.846,230.938 95.021,230.185 94.333 C 229.432 93.646,228.490 92.765,228.093 92.375 L 227.370 91.667 225.685 91.667 L 224.000 91.667 224.000 101.083 M251.250 91.784 C 249.565 92.043,248.933 93.397,248.933 96.750 C 248.933 101.611,248.823 101.549,258.917 102.338 C 266.779 102.952,266.219 102.758,266.308 104.898 C 266.425 107.724,266.509 107.692,259.019 107.631 L 253.137 107.583 252.735 107.116 C 252.417 106.745,252.333 106.459,252.333 105.741 L 252.333 104.833 250.500 104.833 L 248.667 104.833 248.667 106.387 C 248.667 108.361,249.174 109.545,250.250 110.083 C 251.174 110.546,266.421 110.692,267.930 110.253 C 269.668 109.748,270.256 108.188,270.132 104.411 C 269.980 99.826,269.589 99.639,259.114 99.161 C 253.003 98.882,252.666 98.758,252.667 96.782 C 252.669 94.467,252.700 94.458,259.973 94.531 L 265.196 94.583 265.598 95.051 C 265.892 95.393,266.000 95.717,266.000 96.259 L 266.000 97.000 267.853 97.000 L 269.706 97.000 269.639 95.458 C 269.560 93.650,269.123 92.652,268.167 92.092 C 267.604 91.762,253.112 91.499,251.250 91.784 M273.000 101.083 L 273.000 110.500 274.917 110.500 L 276.833 110.500 276.833 101.083 L 276.833 91.667 274.917 91.667 L 273.000 91.667 273.000 101.083 M288.167 101.083 L 288.167 110.500 290.083 110.500 L 292.000 110.500 292.000 107.083 L 292.000 103.667 295.958 103.676 L 299.917 103.686 300.750 104.780 C 301.566 105.852,302.325 106.811,303.052 107.690 C 303.253 107.932,303.828 108.663,304.330 109.315 L 305.243 110.500 307.455 110.500 C 308.671 110.500,309.667 110.456,309.667 110.403 C 309.667 110.312,307.053 106.928,306.500 106.303 C 306.362 106.147,305.950 105.637,305.583 105.169 C 305.217 104.701,304.748 104.116,304.541 103.868 L 304.165 103.417 305.042 103.318 C 308.099 102.974,308.702 102.147,308.800 98.167 C 308.890 94.503,308.729 93.650,307.763 92.684 C 306.762 91.683,306.818 91.688,296.792 91.677 L 288.167 91.667 288.167 101.083 M312.000 101.083 L 312.000 110.500 313.917 110.500 L 315.833 110.500 315.833 101.083 L 315.833 91.667 313.917 91.667 L 312.000 91.667 312.000 101.083 M327.705 91.875 C 327.528 92.092,326.772 93.450,325.979 94.973 C 325.724 95.463,325.447 95.950,325.362 96.057 C 325.278 96.163,324.924 96.775,324.577 97.417 C 323.933 98.605,323.799 98.846,322.408 101.333 C 321.973 102.112,321.309 103.301,320.933 103.974 C 320.557 104.648,319.929 105.773,319.538 106.474 C 319.146 107.176,318.712 107.975,318.573 108.250 C 318.434 108.525,318.105 109.087,317.840 109.500 C 317.576 109.912,317.354 110.306,317.346 110.375 C 317.339 110.444,318.252 110.499,319.375 110.498 L 321.417 110.496 321.792 109.917 C 321.998 109.599,322.167 109.258,322.167 109.161 C 322.167 109.064,322.420 108.588,322.730 108.104 C 323.039 107.620,323.344 107.061,323.408 106.862 L 323.522 106.500 329.720 106.500 L 335.917 106.501 336.282 107.125 C 336.484 107.469,336.837 108.147,337.068 108.633 C 337.300 109.119,337.646 109.738,337.839 110.008 L 338.189 110.500 340.261 110.500 C 341.401 110.500,342.333 110.464,342.333 110.420 C 342.333 110.287,341.315 108.446,340.981 107.974 C 340.808 107.731,340.667 107.448,340.667 107.346 C 340.667 107.243,340.484 106.880,340.260 106.538 C 340.036 106.196,339.630 105.504,339.356 105.000 C 338.530 103.476,337.519 101.650,336.818 100.417 C 336.453 99.775,336.036 98.987,335.892 98.667 C 335.747 98.346,335.497 97.896,335.336 97.667 C 335.174 97.438,334.820 96.837,334.549 96.333 C 334.277 95.829,333.587 94.573,333.016 93.542 L 331.976 91.667 329.925 91.667 C 328.486 91.667,327.824 91.729,327.705 91.875 M342.535 99.542 C 342.609 111.141,341.986 110.505,353.260 110.493 C 361.600 110.483,362.121 110.369,363.129 108.333 L 363.583 107.417 363.631 99.542 L 363.679 91.667 361.756 91.667 L 359.833 91.667 359.833 98.683 C 359.833 108.230,360.527 107.378,352.819 107.301 C 345.672 107.229,346.333 108.118,346.333 98.589 L 346.333 91.667 344.409 91.667 L 342.485 91.667 342.535 99.542 M161.231 94.660 C 161.943 94.930,162.167 95.622,162.167 97.550 C 162.167 100.826,162.535 100.667,154.975 100.667 L 149.167 100.667 149.167 97.583 L 149.167 94.500 154.989 94.500 C 158.293 94.500,160.993 94.569,161.231 94.660 M304.570 94.987 C 304.989 95.381,305.000 95.446,305.000 97.540 C 305.000 100.869,305.466 100.667,297.808 100.667 L 292.000 100.667 292.000 97.577 L 292.000 94.488 298.070 94.536 L 304.140 94.583 304.570 94.987 M138.645 95.016 C 139.220 95.551,139.333 96.038,139.333 97.969 C 139.333 101.382,139.491 101.311,131.875 101.324 L 126.167 101.333 126.167 98.000 L 126.167 94.667 132.219 94.667 C 138.133 94.667,138.279 94.675,138.645 95.016 M185.822 95.161 C 186.783 95.651,186.833 95.946,186.833 101.114 C 186.833 107.867,187.451 107.334,179.630 107.333 C 172.029 107.332,172.607 107.797,172.529 101.628 C 172.462 96.277,172.558 95.671,173.551 95.180 C 174.601 94.660,184.808 94.644,185.822 95.161 M330.692 96.583 C 331.083 97.317,331.685 98.442,332.030 99.083 C 332.375 99.725,332.882 100.700,333.156 101.250 C 333.430 101.800,333.815 102.494,334.010 102.792 L 334.366 103.333 329.846 103.333 L 325.327 103.333 325.670 102.625 C 325.858 102.235,326.098 101.767,326.202 101.583 C 326.307 101.400,326.728 100.612,327.138 99.833 C 329.555 95.238,329.708 94.974,329.864 95.132 C 329.928 95.197,330.301 95.850,330.692 96.583 " stroke="none" fill="#040404" fill-rule="evenodd"></path><path id="path4" d="M56.065 5.427 C 53.099 8.196,47.562 11.605,43.250 13.319 C 42.907 13.455,41.933 13.799,40.333 14.349 C 37.457 15.339,33.487 16.217,29.000 16.857 C 25.934 17.295,16.977 17.153,13.500 16.612 C 8.395 15.819,7.772 15.715,6.713 15.490 C 6.143 15.368,5.638 15.307,5.591 15.353 C 5.248 15.697,5.083 21.416,5.083 33.000 C 5.083 45.886,5.118 46.879,5.836 54.583 C 6.430 60.951,6.499 61.562,6.916 64.250 C 7.144 65.717,7.443 67.667,7.581 68.583 C 8.055 71.742,9.536 78.322,10.525 81.667 C 11.175 83.863,11.333 84.359,12.039 86.417 C 13.272 90.011,15.417 94.709,16.770 96.778 C 17.080 97.252,17.333 97.690,17.333 97.752 C 17.333 98.029,19.208 100.535,23.250 105.659 C 24.056 106.681,27.329 110.531,27.932 111.167 C 28.236 111.487,29.032 112.346,29.701 113.075 C 34.150 117.923,41.493 124.787,45.399 127.750 C 45.762 128.025,46.326 128.454,46.654 128.704 C 50.501 131.637,56.265 135.333,56.991 135.333 C 57.107 135.333,57.167 134.389,57.167 132.542 L 57.166 129.750 54.125 127.724 C 44.087 121.037,32.787 110.013,23.685 98.027 C 16.940 89.145,12.824 75.318,10.753 54.583 C 9.972 46.755,9.535 22.022,10.169 21.451 C 10.213 21.410,11.300 21.511,12.583 21.676 C 29.113 23.792,44.104 20.549,55.668 12.355 L 57.167 11.293 57.167 7.980 C 57.167 4.298,57.198 4.370,56.065 5.427 M29.176 32.292 C 28.240 35.666,29.679 39.142,32.856 41.181 C 33.510 41.601,33.667 41.792,33.667 42.169 C 33.667 44.255,35.377 46.500,36.967 46.500 C 37.241 46.500,37.792 46.687,38.191 46.915 C 39.939 47.913,41.689 47.157,42.159 45.201 C 42.754 42.718,40.862 41.180,38.558 42.273 C 37.816 42.625,37.267 42.201,37.267 41.275 C 37.267 39.641,39.195 38.865,41.058 39.749 C 42.481 40.424,42.829 41.534,42.835 45.417 C 42.845 51.202,43.729 54.276,45.992 56.393 C 49.307 59.494,54.467 58.333,55.743 54.198 C 55.853 53.843,55.798 53.859,55.037 54.406 C 50.649 57.559,45.250 54.669,45.250 49.167 C 45.250 45.155,49.193 42.086,51.233 44.510 C 52.113 45.556,52.025 47.047,51.116 46.493 C 48.898 45.140,47.380 48.196,49.183 50.384 C 50.663 52.179,53.694 52.086,54.860 50.210 C 55.194 49.673,55.255 49.338,55.286 47.869 C 55.328 45.843,55.332 45.833,56.177 45.833 C 58.146 45.833,56.017 41.839,53.362 40.552 C 52.659 40.212,52.059 39.917,52.028 39.897 C 51.932 39.835,52.362 39.098,52.729 38.695 C 53.074 38.317,53.075 38.300,52.769 38.077 C 51.557 37.190,48.294 37.807,46.350 39.289 L 45.776 39.728 45.524 39.322 C 44.221 37.221,39.754 34.322,39.839 35.633 C 39.855 35.881,39.861 36.262,39.851 36.481 L 39.833 36.878 37.792 36.792 C 33.808 36.624,31.342 35.251,29.978 32.444 C 29.521 31.504,29.401 31.481,29.176 32.292 M48.523 44.395 C 46.159 45.250,44.914 48.633,45.971 51.333 C 47.544 55.356,51.881 56.516,55.132 53.783 C 57.096 52.132,56.505 54.866,54.459 56.897 C 53.460 57.889,52.905 58.196,51.377 58.605 C 50.880 58.738,53.944 60.711,56.991 62.218 C 57.184 62.314,57.869 62.003,59.340 61.152 C 62.379 59.395,66.706 56.909,67.036 56.731 C 67.270 56.605,67.105 56.455,66.119 55.900 C 65.458 55.527,63.379 54.335,61.500 53.249 C 55.058 49.529,55.604 49.809,55.417 50.129 C 54.103 52.382,51.068 52.825,49.221 51.034 C 46.731 48.617,48.114 44.800,51.069 45.934 C 51.409 46.065,51.418 45.647,51.088 45.010 C 50.694 44.247,49.633 43.993,48.523 44.395 M77.870 62.744 C 77.936 62.818,78.343 63.112,78.775 63.398 C 79.846 64.105,79.838 64.138,78.373 65.069 C 77.664 65.520,76.483 66.279,75.750 66.756 C 72.087 69.140,71.007 69.808,70.732 69.861 C 70.542 69.897,71.117 70.306,72.297 70.972 C 74.375 72.146,74.850 72.653,74.958 73.813 C 75.084 75.171,74.513 75.699,70.458 77.967 L 69.500 78.503 69.500 75.501 C 69.500 73.851,69.439 72.500,69.364 72.500 C 69.290 72.500,67.884 73.300,66.239 74.277 C 64.595 75.255,62.406 76.547,61.375 77.149 L 59.500 78.244 59.500 86.955 C 59.500 91.746,59.535 95.667,59.577 95.667 C 59.620 95.667,60.389 95.244,61.286 94.727 C 64.826 92.686,67.447 91.170,72.000 88.531 C 74.612 87.016,77.537 85.327,78.500 84.777 C 79.462 84.227,80.718 83.445,81.291 83.041 C 87.760 78.469,87.258 69.395,80.250 64.254 C 79.098 63.409,77.637 62.482,77.870 62.744 M68.833 69.009 C 69.264 69.303,70.333 69.844,70.333 69.768 C 70.333 69.680,68.835 68.832,68.687 68.836 C 68.630 68.837,68.696 68.915,68.833 69.009 " stroke="none" fill="#359d23" fill-rule="evenodd"></path></g></svg>